<svg width="144" height="144" viewBox="0 0 144 144" fill="none" xmlns="http://www.w3.org/2000/svg">
<g clip-path="url(#clip0_871_43)">
<path d="M0 20C0 8.95431 8.95431 0 20 0H124C135.046 0 144 8.95431 144 20V124C144 135.046 135.046 144 124 144H20C8.95431 144 0 135.046 0 124V20Z" fill="black"/>
<circle cx="72" cy="72" r="72" fill="black"/>
<path d="M81.8666 113.844C82.2796 114.251 82.8253 114.468 83.4055 114.468H109.99C110.482 114.468 110.729 113.873 110.381 113.526L61.2724 64.4313C60.8582 64.0172 60.2965 63.7846 59.7108 63.7846H45.6547C40.6777 63.7846 38.1524 69.7628 41.6408 73.3126C52.5567 84.4206 70.5557 102.678 81.8666 113.844Z" fill="white"/>
<path d="M68.7829 38.7695H26.4884C25.9912 38.7695 25.7457 39.3771 26.0998 39.7261C30.2486 43.8148 33.9001 48.0155 38.0541 52.1665C38.5229 52.635 38.9917 53.1034 39.5542 53.4781C41.9918 55.2582 44.7107 56.195 47.8046 56.2887H76.283C76.8456 56.2887 77.4081 56.2887 77.9706 56.3824C81.7208 57.1319 84.8147 60.8793 83.9709 65.3762C83.3362 68.8191 80.334 71.3858 76.8299 71.551C76.5721 71.5631 76.4544 71.8753 76.6369 72.0578L88.937 84.3544C89.4242 84.8415 90.1164 85.1031 90.7906 84.9617C90.7991 84.9599 90.8072 84.9582 90.8149 84.9564C92.315 84.6754 93.815 84.0196 95.2214 83.2701C97.4715 82.0522 99.534 80.4595 101.128 78.3985C104.034 74.5574 105.722 70.3415 106.003 65.5636C106.191 63.6899 106.097 61.8161 105.816 60.0361C105.441 57.694 104.784 55.4455 103.847 53.2908C101.784 48.7002 98.5965 45.0465 94.1901 42.4233C90.6274 40.3622 86.7835 39.3316 82.7521 38.9569C81.627 38.8632 80.5957 38.8632 79.4707 38.8632C75.9081 38.7695 72.3455 38.7695 68.7829 38.7695Z" fill="white"/>
</g>
<defs>
<clipPath id="clip0_871_43">
<rect width="144" height="144" fill="white"/>
</clipPath>
</defs>
</svg>
