<svg width="32" height="32" viewBox="0 0 32 32" fill="none" xmlns="http://www.w3.org/2000/svg"><path d="M16 6.5C15.1334 6.5 14.2938 6.61604 13.4961 6.83344C13.4717 6.31267 13.3335 5.82166 13.1058 5.38472C14.028 5.13388 14.9984 5 16 5C22.0751 5 27 9.92487 27 16C27 22.0751 22.0751 27 16 27C9.92487 27 5 22.0751 5 16C5 13.4544 5.86467 11.1108 7.31632 9.24687C7.63925 9.63217 8.04361 9.9469 8.50293 10.1646C7.24774 11.7749 6.5 13.8001 6.5 16C6.5 21.2467 10.7533 25.5 16 25.5C21.2467 25.5 25.5 21.2467 25.5 16C25.5 10.7533 21.2467 6.5 16 6.5Z" fill="white"/><path d="M12 7C12 8.10457 11.1046 9 10 9C8.89543 9 8 8.10457 8 7C8 5.89543 8.89543 5 10 5C11.1046 5 12 5.89543 12 7Z" fill="white"/><path d="M17.0044 16.5656L16.033 13.4718H15.9648L14.9955 16.5656H17.0044Z" fill="white"/><path fill-rule="evenodd" clip-rule="evenodd" d="M16 23C19.866 23 23 19.866 23 16C23 12.134 19.866 9 16 9C12.134 9 9 12.134 9 16C9 19.866 12.134 23 16 23ZM11.6523 20.0002H13.9194L14.4935 18.1678H17.5074L18.0827 20.0002H20.3498L17.4052 11.2729H14.5969L11.6523 20.0002Z" fill="white"/></svg>
