<svg fill="none" height="74" viewBox="0 0 74 74" width="74" xmlns="http://www.w3.org/2000/svg" xmlns:xlink="http://www.w3.org/1999/xlink"><linearGradient id="a" gradientUnits="userSpaceOnUse" x1="30.8024" x2="42.7965" y1="36.9074" y2="16.1411"><stop offset=".14" stop-color="#fff" stop-opacity="0"/><stop offset=".91" stop-color="#fff"/></linearGradient><radialGradient id="b" cx="38.2733" cy="32.4534" gradientUnits="userSpaceOnUse" r="20.3269"><stop offset="0" stop-color="#fff" stop-opacity=".2"/><stop offset=".05" stop-color="#fff" stop-opacity=".25"/><stop offset=".31" stop-color="#fff" stop-opacity=".52"/><stop offset=".54" stop-color="#fff" stop-opacity=".72"/><stop offset=".74" stop-color="#fff" stop-opacity=".87"/><stop offset=".9" stop-color="#fff" stop-opacity=".97"/><stop offset="1" stop-color="#fff"/></radialGradient><clipPath id="c"><path d="m0 0h74v74h-74z"/></clipPath><g clip-path="url(#c)"><path d="m37 74c20.4345 0 37-16.5655 37-37s-16.5655-37-37-37-37 16.5655-37 37 16.5655 37 37 37z" fill="#2979ff"/><path d="m51.029 26.2082h3.5921c-.653-1.814-1.6356-3.4918-2.8983-4.9487-1.5417.0925-3.2067.2466-4.8409.4471-1.1167-1.8419-2.4985-3.5093-4.1008-4.9488-5.4575 1.5417-19.1475 7.3229-25.2217 12.4567l.8634.3391c7.3215-4.4857 15.3093-7.7797 23.6646-9.7587.5938.764 1.1102 1.5851 1.5416 2.4512-7.5772 1.3244-14.9752 3.5232-22.0458 6.5521l.7092.4625c9.0205-3.0468 18.4478-4.7202 27.9658-4.9641.3215.6092.5798 1.2498.7708 1.9116z" fill="url(#a)"/><path d="m62.7303 35.936c-.1766-1.447-.5339-2.8661-1.0637-4.2242-.3319-.9092-.858-1.7352-1.5417-2.4204-.7417-.7259-1.6795-1.2189-2.6979-1.4183-.9558-.2159-2.96-.2159-17.7446-.2159.5763.6466 1.0637 1.3673 1.4492 2.1429l.4008.7863c11.3929 0 14.6459 0 15.2779.1542.4628.0799.8918.2943 1.2334.6166.3708.4531.6437.978.8016 1.5417.4477 1.1348.7532 2.3206.9096 3.5304.2004 1.6641.2004 3.3463 0 5.0104-.1601 1.2108-.4708 2.3968-.925 3.5304-.1533.5625-.4209 1.0873-.7862 1.5417-.3203.2962-.7058.5128-1.1254.6321-1.2218.1542-2.4553.1955-3.6846.1233h-9.99c-1.2293.0784-2.4633.0371-3.6846-.1233-.4206-.1249-.8061-.3467-1.1254-.6475-.271-.3014-.4992-.6386-.6784-1.0021l-.6012-1.2025c-.6288-1.1433-1.081-2.3751-1.3413-3.6537-.1467-.7356-.1882-1.4882-.1233-2.2355l-.1079-.555c-.2098-1.0301-.5736-2.0228-1.0792-2.9445l-.5858-1.3105c-1.0855 2.3055-1.4302 4.8907-.9867 7.4.3101 1.5637.8559 3.0712 1.6188 4.4709l.6012 1.1871c.3077.6397.7134 1.2275 1.2025 1.742.6782.6656 1.5175 1.1437 2.4359 1.3875 1.4696.2633 2.9664.341 4.4554.2313h10.0516c1.489.1097 2.9858.032 4.4555-.2313.9183-.2438 1.7576-.7219 2.4358-1.3875.6529-.7098 1.147-1.5507 1.4492-2.4666.5353-1.3849.9027-2.829 1.0945-4.3013.2263-1.8895.2263-3.7992 0-5.6887z" fill="url(#b)"/><path d="m32.8066 47.7921-.4008-.7708c-11.3929 0-14.6612 0-15.2933-.1542-.457-.0836-.8801-.2978-1.2179-.6166-.3624-.4274-.6303-.9265-.7863-1.4646-.4539-1.1391-.7646-2.3302-.925-3.5459-.2004-1.6589-.2004-3.336 0-4.995.153-1.2171.464-2.409.925-3.5458.1526-.5349.4211-1.0296.7863-1.4492.3152-.3062.7021-.5288 1.1254-.6475 1.2213-.1597 2.4553-.201 3.6846-.1233h10.1287c1.2294-.0722 2.4628-.0309 3.6846.1233.4222.113.8092.3304 1.1254.6321.2704.3043.4939.6472.6629 1.0175l.6167 1.1871c.6283 1.149 1.0805 2.3858 1.3412 3.6692.1474.7354.1889 1.4882.1234 2.2354l.1079.555c.2039 1.0318.5681 2.0253 1.0792 2.9446l.5858 1.1254c1.0924-2.3035 1.4374-4.8908.9867-7.4-.3073-1.5644-.8533-3.0723-1.6188-4.4708l-.6167-1.2025c-.338-.5952-.7643-1.1358-1.2641-1.6034-.6773-.67-1.5164-1.1533-2.4359-1.4029-1.4418-.2775-2.9124-.3759-4.3783-.2929h-10.1287c-1.4895-.117-2.988-.034-4.4555.2467-.9013.2743-1.7182.7729-2.3741 1.4491-.6755.6858-1.2006 1.5049-1.5417 2.405-.5382 1.3574-.9058 2.7763-1.0946 4.2242-.2312 1.915-.2312 3.8508 0 5.7658.197 1.4463.5644 2.8642 1.0946 4.2242.3321.9227.8578 1.7638 1.5417 2.4667.7417.7258 1.6795 1.2188 2.6979 1.4183.9558.2004 2.96.2158 17.7446.2158-.6037-.6667-1.1121-1.4138-1.5109-2.22z" fill="#fff"/></g></svg>