<svg fill="none" height="74" viewBox="0 0 74 74" width="74" xmlns="http://www.w3.org/2000/svg"><g clip-rule="evenodd" fill-rule="evenodd"><path d="m68.8895 26.2244c-.4826-1.6891-1.4478-3.1369-2.6543-4.3433-5.3085-6.0324-10.1345-8.2041-18.3385-4.3434h-.4826c-3.1369.2413-5.7911 2.1717-6.515 5.3086-2.8956 8.6866-6.2737 17.132-9.4106 25.5774-.4826.7239-.9652 1.2065-1.4478 1.9303-5.7911 4.3434-11.3409 8.2041-19.3037 4.826-2.89555-1.2065-7.72148-.7239-5.30851 5.0672.24129.7239.48259 1.4478 1.20648 1.9304.72389.7239 1.68907 1.4477 2.65426 1.9303 11.09967 7.2389 23.40577 8.928 35.22927 3.1369 13.5126-6.515 23.1645-16.6495 24.1297-32.575.7238-2.6543.7238-5.5498.2413-8.4454z" fill="#ca312c"/><path d="m64.0634 17.7789c0-2.1717.2413-4.3433.7239-6.7563.7238-5.79112-2.413-8.20408-4.826-8.44538-2.4129-.2413-4.5846.72389-6.2737 2.41296-.9652.72389-.9652 2.17167-.2413 3.13686 1.2065 1.20648 2.1717 1.20648 2.6543-1.20648 1.2065-3.86075 5.7911 0 5.5498 1.93037-.2413 4.10207-3.1369 5.54977-5.7911 7.23887-2.6543 1.6891-4.8259 2.1717-8.928 3.6195-.7239.2413-.9652 1.2064-.7239 1.9303 0 .2413.2413.4826.4826.4826.9652.2413 2.1717.2413 3.1369 0 3.3781-.4826 4.3433.4826 5.5498 3.8608 2.1717-.9652 4.3433-1.2065 6.515-.9652 2.1717.7239 2.1717 2.1717 3.1368 3.1368.4826.2413.9652 0 1.2065-.4825 0 0 0-.2413 0-.4826-1.4477-2.8956-2.4129-6.0325-2.1716-9.4106z" fill="#91b949"/></g></svg>