<svg fill="none" height="74" viewBox="0 0 74 74" width="74" xmlns="http://www.w3.org/2000/svg"><path d="m71.1365 36.6049v-.1342c-.0671-18.9806-15.356-34.4707-34.0682-34.4707-18.7123 0-34.0683 15.4901-34.0683 34.6049 0 19.1171 15.2865 34.5761 34.0683 34.5761 8.6183.0059 16.9071-3.3114 23.1417-9.2615.6141-.561.9802-1.343 1.0177-2.1739.0375-.831-.2566-1.6427-.8176-2.2568s-1.343-.9802-2.174-1.0177c-.8309-.0375-1.6427.2566-2.2567.8176l-.0671.0671c-2.6901 2.5574-5.8693 4.5448-9.3466 5.8429s-7.1811 1.8802-10.889 1.7113c-3.7078-.169-7.3433-1.0854-10.6882-2.6943-3.3449-1.609-6.3302-3.8772-8.7766-6.6686l14.5535-23.3382v10.7995c0 5.1602 2.0123 6.8395 3.7036 7.3091 1.6913.4695 4.2283.1293 6.9761-4.2283l7.9846-12.9652c.2132-.3785.46-.7378.7331-1.0756v6.576c0 4.8272 1.9452 8.7177 5.2967 10.5935 1.5471.8424 3.2935 1.25 5.0537 1.1795 1.7602-.0704 3.4684-.6163 4.9433-1.5796 3.8713-2.513 5.9507-6.9138 5.68-12.2129zm-8.8542 6.7916c-.5377.3703-1.1645.5903-1.8157.637-.6511.0468-1.303-.0814-1.888-.3711-1.3415-.8025-2.1489-2.6112-2.1489-5.0931v-7.6013c0-3.6174-1.4086-6.2359-3.821-6.9019-4.0941-1.2361-7.1749 3.8211-8.3176 5.6993l-7.2228 11.5996v-14.2828c-.0671-3.2844-1.1428-5.2296-3.1551-5.8357-1.3415-.4001-3.3539-.1965-5.2967 2.755l-16.1633 25.8847c-2.1503-4.0973-3.27717-8.6541-3.28445-13.2813 0-15.6267 12.53875-28.302 27.89955-28.302 15.3607 0 27.8995 12.6753 27.8995 28.302v.1365c.1605 3.0137-.8074 5.4333-2.6831 6.6359z" fill="#fff"/></svg>