<svg width="74" height="74" viewBox="0 0 74 74" fill="none" xmlns="http://www.w3.org/2000/svg"><path d="M48.0158 27.8075C42.6721 22.4845 34.1788 22.4845 28.8914 27.8075C23.6041 33.1878 23.6604 41.9448 28.9478 47.3251C34.2349 52.7052 42.8409 52.7625 48.1282 47.3824C48.2181 47.2908 48.5898 46.8751 49.2429 46.1354L42.8669 39.6398C42.2114 40.4142 41.8653 40.82 41.8285 40.8574C40.0285 42.6889 37.1037 42.6889 35.3036 40.8574C33.5038 39.0259 33.5038 36.0495 35.2475 34.2752C36.9912 32.5008 39.916 32.5008 41.7158 34.3323C41.7158 34.3323 47.3992 40.1113 58.7655 51.6689C54.097 58.5372 46.2721 62.8934 37.8348 62.8934C23.8853 62.8934 12.5234 51.2745 12.5234 36.9653C12.5234 22.6561 23.8853 11.0372 37.8348 11.0372C45.9908 11.0372 53.4717 15.0438 58.1402 21.5116C57.3881 22.4003 55.4665 24.6301 52.3753 28.2006L58.6663 34.5837L69.1084 22.599C63.7088 10.1215 51.5031 1.87939 37.8348 1.87939C18.8794 1.87939 3.5238 17.6194 3.5238 36.9653C3.5238 56.3113 18.8794 72.0512 37.8348 72.0512C46.4407 72.0512 53.5842 69.3039 60.5589 63.2368C66.9149 57.7421 69.9025 50.1235 69.9025 50.1235L48.0158 27.8075Z" fill="url(#paint0_linear_633_1000)"/><defs><linearGradient id="paint0_linear_633_1000" x1="69.9025" y1="36.9653" x2="3.5238" y2="36.9653" gradientUnits="userSpaceOnUse"><stop stop-color="#22E6B8"/><stop offset="1" stop-color="#00C1CE"/></linearGradient></defs></svg>
