<svg fill="none" height="74" viewBox="0 0 74 74" width="74" xmlns="http://www.w3.org/2000/svg"><g clip-rule="evenodd" fill-rule="evenodd"><path d="m49.6827 20.433c.9037.5584 2.3497 2.0476 3.4343 4.8399l15.5442-3.3507c-2.1689-8.0044-7.9528-13.72999-15.5442-16.66188-2.3497-.90744-6.507-1.3946-10.1219-1.3946h-26.2084c-.5423 0-1.0845.3723-1.0845.93075l-1.6268 12.09973c0 .5584.3615 1.1169 1.0845 1.1169h25.8468c3.615.1861 6.507.9307 8.676 2.4199z" fill="#fff"/><path d="m36.851 69.9488c9.2183 0 17.5325-2.4199 23.8587-9.8658 4.8804-5.7706 8.1336-14.8919 9.0373-23.8271l-16.8093 3.7229c-2.3498 10.4243-7.0493 15.6366-16.8096 15.6366 0 0-7.0493 0-10.3026 0h-1.2653l-1.9882 14.5195z" fill="#fff"/><path d="m24.7402 54.3111c.3615-2.0477 1.0845-7.4461 1.2652-9.4938 0-.5583.5423-.9305 1.0845-.9305h9.0373c.5423 0 .9038-.3725 1.0846-.9308l1.6266-12.2859c0-.5584-.3614-1.1169-1.0843-1.1169h-24.5817c-.5423 0-.9038.3723-1.0845.9308l-3.07274 23.0824c-.18075 1.4892-.72299 2.7924-1.44598 4.0954l-6.32616 10.6105c-.361497.7447 0 1.6752.90374 1.6752h20.60524z" fill="#01b5ab"/></g></svg>