<svg fill="none" height="34" viewBox="0 0 34 34" width="34" xmlns="http://www.w3.org/2000/svg" xmlns:xlink="http://www.w3.org/1999/xlink"><clipPath id="a"><path d="m0 0h34v34h-34z"/></clipPath><g clip-path="url(#a)"><path d="m28.8012 5.98939c-2.2008-1.02973-4.5541-1.77811-7.0144-2.20423-.3022.54628-.6552 1.28104-.8986 1.86554-2.6153-.39332-5.2066-.39332-7.7739 0-.2433-.5845-.6043-1.31926-.9092-1.86554-2.46296.42612-4.81895 1.17724-7.01983 2.20969-4.439193 6.70825-5.642586 13.24975-5.040888 19.69845 2.944308 2.1988 5.797698 3.5344 8.602928 4.4085.69263-.9533 1.31039-1.9666 1.84249-3.0346-1.01349-.3851-1.98422-.8603-2.90145-1.4121.24334-.1803.48136-.3687.71132-.5627 5.59443 2.6167 11.67293 2.6167 17.20053 0 .2327.194.4706.3824.7113.5627-.9199.5545-1.8933 1.0297-2.9068 1.4149.5321 1.0652 1.1472 2.0813 1.8425 3.0345 2.8079-.8741 5.664-2.2097 8.6083-4.4112.706-7.4756-1.2061-13.9572-5.0543-19.70391zm-17.4492 15.73801c-1.67939 0-3.05663-1.5678-3.05663-3.477s1.34783-3.4797 3.05663-3.4797 3.086 1.5678 3.0566 3.4797c.0027 1.9092-1.3478 3.477-3.0566 3.477zm11.2959 0c-1.6794 0-3.0567-1.5678-3.0567-3.477s1.3478-3.4797 3.0567-3.4797c1.7088 0 3.086 1.5678 3.0566 3.4797 0 1.9092-1.3478 3.477-3.0566 3.477z" fill="#fff"/></g></svg>