<svg fill="none" height="74" viewBox="0 0 74 74" width="74" xmlns="http://www.w3.org/2000/svg"><path d="m36.8718 44.3456c-4.0506 0-7.3447-3.2941-7.3447-7.3447s3.2941-7.3447 7.3447-7.3447 7.3447 3.2941 7.3447 7.3447-3.2941 7.3447-7.3447 7.3447z" fill="#fff"/><path d="m65.2751 36.472c4.9246-6.7682 6.1315-13.1017 3.4006-17.833-1.6244-2.813-5.2992-6.1671-13.5852-6.1671-1.3441 0-2.764.1237-4.2146.3-3.315-7.73156-8.2665-12.494556-14.0039-12.494556-5.7362 0-10.689 4.762996-14.0038 12.494556-1.4493-.1774-2.8693-.3-4.2122-.3-8.2886.0013-11.96334 3.3541-13.58778 6.1671-2.73101 4.7312-1.52402 11.0635 3.40065 17.833.12853.1763.27915.3501.41127.5263-5.03225 6.7326-6.67878 13.3979-3.81192 18.3641 1.62444 2.8131 5.29918 6.1671 13.58518 6.1671 1.3442 0 2.764-.1236 4.2146-.2999 3.315 7.7315 8.2665 12.4945 14.004 12.4945 5.7374 0 10.6889-4.763 14.0038-12.4957 1.4505.1775 2.8706.3 4.2146.3 8.2848 0 11.9607-3.3529 13.5852-6.1671 2.8668-4.9663 1.2216-11.6316-3.8119-18.3654.1322-.1739.2828-.3489.4114-.5239zm-10.1846-20.3277c4.9564 0 8.7194 1.4125 10.4049 4.3309 1.9966 3.4569.6904 8.3851-3.0211 13.5852-2.2107-2.4751-4.8804-4.9209-7.92-7.2675-.5129-3.8082-1.2964-7.3434-2.3357-10.4967.9928-.0968 1.955-.1519 2.8719-.1519zm-.0331 15.8167c1.9083 1.6587 3.5988 3.3505 5.0715 5.0397-1.4727 1.688-3.1631 3.3799-5.0715 5.0397.1041-1.6465.1763-3.3185.1763-5.0397 0-1.7211-.0722-3.3932-.1763-5.0397zm-4.7288-8.1904c-1.3734-.9133-2.7848-1.8105-4.2758-2.6722-1.4702-.8484-2.9525-1.6208-4.4362-2.3541 2.3846-.8201 4.6933-1.4505 6.8856-1.8802.7247 2.1189 1.3442 4.4263 1.8264 6.9065zm-13.4566-19.82092c4.0015 0 7.6249 3.60994 10.2739 9.44892-3.2989.6929-6.7584 1.7738-10.2739 3.2109-3.5157-1.4371-6.975-2.518-10.274-3.212 2.649-5.83788 6.2724-9.44782 10.274-9.44782zm-11.6303 12.91442c2.1924.4297 4.5011 1.0601 6.8856 1.8802-1.4848.7332-2.9672 1.5057-4.4373 2.3541-1.4911.8605-2.9025 1.7589-4.2759 2.6722.4835-2.4802 1.1017-4.7876 1.8276-6.9065zm-6.5883 40.9931c-4.9563 0-8.71933-1.4126-10.40487-4.3309-2.00014-3.4642-.6867-8.4048 3.04187-13.6147 2.256 2.518 4.905 4.9822 7.9004 7.3018.5128 3.8058 1.2964 7.341 2.3344 10.4932-.9927.0955-1.9548.1506-2.8718.1506zm.0332-15.8168c-1.9084-1.6587-3.5989-3.3504-5.0716-5.0397 1.4727-1.688 3.1631-3.3798 5.0716-5.0397-.1042 1.6465-.1763 3.3186-.1763 5.0397 0 1.7212.0721 3.3932.1763 5.0397zm.5043-15.2475c-3.0407 2.3466-5.7091 4.7937-7.92 7.2675-3.71151-5.2001-5.01763-10.1283-3.02237-13.5852 1.68439-2.9171 5.44857-4.3296 10.40487-4.3309.9168 0 1.8791.0538 2.8718.1506-1.038 3.1533-1.8214 6.6897-2.3343 10.498zm4.2232 23.4307c1.3845.9242 2.8021 1.8264 4.277 2.6784 1.4702.8483 2.9525 1.6207 4.4362 2.354-2.3845.8201-4.6932 1.4506-6.8856 1.8802-.7259-2.1189-1.3453-4.4301-1.8276-6.9126zm13.4579 19.8282c-4.0016 0-7.625-3.61-10.274-9.449 3.299-.6928 6.7584-1.7737 10.274-3.2108 3.5157 1.4371 6.975 2.518 10.2739 3.2108-2.649 5.839-6.2722 9.449-10.2739 9.449zm11.6302-12.9156c-2.1936-.4296-4.501-1.0601-6.8856-1.8802 1.4849-.7332 2.966-1.5057 4.4362-2.354 1.4763-.852 2.8926-1.7555 4.277-2.6784-.4823 2.4837-1.1017 4.7937-1.8276 6.9126zm2.5842-11.9291c-2.1263 1.573-4.4117 3.0958-6.8698 4.5146-2.458 1.4187-4.9196 2.6453-7.3446 3.7004-2.4251-1.0552-4.8867-2.2806-7.3447-3.7004-2.458-1.4188-4.7435-2.9416-6.8697-4.5146-.2987-2.6281-.475-5.3678-.475-8.2064 0-2.8387.1763-5.5782.475-8.2064 2.1262-1.5729 4.4117-3.0958 6.8697-4.5145s4.9196-2.6454 7.3447-3.7004c2.425 1.0552 4.8866 2.2805 7.3446 3.7004 2.4581 1.4187 4.7435 2.9416 6.8698 4.5145.2986 2.6282.4749 5.3678.4749 8.2064 0 2.8388-.1763 5.5783-.4749 8.2064zm14.409 8.3192c-1.6844 2.917-5.4485 4.3309-10.4049 4.3309-.9168 0-1.8791-.0538-2.8717-.1506 1.038-3.1521 1.8215-6.6861 2.3343-10.4932 2.9954-2.3197 5.6444-4.7838 7.9004-7.3018 3.7286 5.2112 5.0409 10.1505 3.0419 13.6147z" fill="#69d6d7"/></svg>