<svg width="74" height="74" viewBox="0 0 74 74" fill="none" xmlns="http://www.w3.org/2000/svg">
<path d="M37 0C57.4425 0 74 16.5575 74 37C73.998 44.7524 71.5649 52.3091 67.0433 58.6063C62.5216 64.9034 56.1389 69.6241 48.7938 72.1038C46.9438 72.4737 46.25 71.3175 46.25 70.3463C46.25 69.0975 46.2963 65.12 46.2963 60.1712C46.2963 56.7025 45.14 54.4825 43.7988 53.3262C52.0313 52.4012 60.68 49.2562 60.68 35.0575C60.68 30.9875 59.2463 27.7037 56.8875 25.1137C57.2575 24.1887 58.5525 20.3962 56.5175 15.3088C56.5175 15.3088 53.4188 14.2913 46.3425 19.1012C43.3825 18.2688 40.2375 17.8525 37.0925 17.8525C33.9475 17.8525 30.8025 18.2688 27.8425 19.1012C20.7663 14.3375 17.6675 15.3088 17.6675 15.3088C15.6325 20.3962 16.9275 24.1887 17.2975 25.1137C14.9388 27.7037 13.505 31.0338 13.505 35.0575C13.505 49.21 22.1075 52.4012 30.34 53.3262C29.2763 54.2512 28.305 55.87 27.9813 58.275C25.8538 59.2463 20.535 60.8187 17.205 55.2225C16.5113 54.1125 14.43 51.3838 11.5163 51.43C8.41751 51.4762 10.2675 53.1875 11.5625 53.8812C13.135 54.76 14.9388 58.0437 15.355 59.1075C16.095 61.1887 18.5 65.1663 27.7963 63.455C27.7963 66.5537 27.8425 69.4675 27.8425 70.3463C27.8425 71.3175 27.1488 72.4275 25.2988 72.1038C17.9295 69.6508 11.5196 64.9397 6.97862 58.6387C2.43759 52.3377 -0.00407222 44.7668 5.09819e-06 37C5.09819e-06 16.5575 16.5575 0 37 0Z" fill="white"/></svg>
