<svg width="74" height="74" viewBox="0 0 74 74" fill="none" xmlns="http://www.w3.org/2000/svg">
<path fill-rule="evenodd" clip-rule="evenodd" d="M68.0001 19.1113V54.8828L37.0148 72.7686L6.02942 54.8828V19.1113L37.0148 1.22656L68.0001 19.1113ZM37.0148 72.418L38.5822 71.5127L11.8566 57.9014L37.0148 72.418ZM38.796 71.3125L40.2628 70.3604L13.546 58.4609L38.796 71.3125ZM40.4962 70.1523L41.879 69.1475L15.4298 58.9902L40.4962 70.1523ZM42.4288 69.293L67.7306 54.6943V52.8643L42.4288 69.293ZM42.0626 68.9385L43.3585 67.8887L17.2404 59.4043L42.0626 68.9385ZM44.2023 67.8037L67.6486 52.5908L67.5558 50.8408L44.2023 67.8037ZM43.547 67.6426L44.7062 66.5986L19.6261 59.8818L43.547 67.6426ZM45.1896 66.7461L67.4874 50.5684L67.3058 48.8457L45.1896 66.7461ZM44.8956 66.374L45.9718 65.2979L21.3116 60.0537L44.8956 66.374ZM46.6534 65.2217L67.1906 48.5977L66.9366 46.9922L46.6534 65.2217ZM46.1105 65.0273L47.0773 63.9531L23.2462 60.1738L46.1105 65.0273ZM47.2706 63.7051L48.1671 62.5967L24.6788 60.124L47.2706 63.7051ZM48.1827 63.4697L66.8663 46.6553L66.5431 45.1406L48.1827 63.4697ZM48.9113 62.3604L66.4064 44.874L66.006 43.3809L48.9113 62.3604ZM48.297 62.3281L49.0909 61.2334L26.4376 60.043L48.297 62.3281ZM49.2413 60.9521L49.9425 59.873H28.5695L49.2413 60.9521ZM50.4318 60.2295L65.8673 43.0947L65.42 41.7207L50.4318 60.2295ZM22.3585 59.5488L23.6681 59.6172L12.881 40.96L22.3585 59.5488ZM20.6847 59.4424L22.049 59.585L11.9747 39.8174L20.6847 59.4424ZM10.8878 36.9697L23.9503 59.5762H50.0509L63.1144 36.9697L50.0509 14.3633H23.9503L10.8878 36.9697ZM19.0109 59.2266L20.3888 59.4443L10.9454 38.2236L19.0109 59.2266ZM17.257 58.9033L18.6945 59.208L9.88977 36.2666L17.257 58.9033ZM50.9513 59.1602L65.2736 41.4756L64.7677 40.1592L50.9513 59.1602ZM15.5031 58.4971L16.9562 58.8857L9.29211 35.3438L15.5031 58.4971ZM13.6945 57.958L15.1857 58.4414L8.45325 33.3467L13.6945 57.958ZM11.8595 57.3379L13.3986 57.9287L7.76868 31.4502L11.8595 57.3379ZM51.8888 57.3818L64.5988 39.8838L64.0529 38.6592L51.8888 57.3818ZM10.0245 56.584L11.5763 57.2744L7.18176 29.5029L10.0245 56.584ZM8.16125 55.7207L9.72668 56.5176L6.70813 27.7158L8.16125 55.7207ZM52.63 55.7363L63.8976 38.4004L63.3146 37.2568L52.63 55.7363ZM6.29895 54.6943L7.88098 55.6074L6.29895 25.3428V54.6943ZM67.7306 48.6172V19.2734L66.1476 18.3604L67.7306 48.6172ZM67.3087 46.1377L65.84 18.249L64.3029 17.4668L67.3087 46.1377ZM66.8468 44.4639L64.006 17.3867L62.4532 16.6953L66.8468 44.4639ZM66.1534 42.041L62.1427 16.6572L60.6378 16.0791L66.1534 42.041ZM65.63 40.8506L60.3351 15.9824L58.8331 15.4951L65.63 40.8506ZM64.8243 38.9766L58.5255 15.4961L57.0499 15.1006L64.8243 38.9766ZM63.9757 37.2773L56.7452 15.0391L55.3243 14.7383L63.9757 37.2773ZM10.132 35.5674L10.7335 36.748L21.7736 17.6514L10.132 35.5674ZM62.9288 35.3711L55.0167 14.7686L53.6661 14.5537L62.9288 35.3711ZM9.42981 34.083L9.97473 35.3105L22.1437 16.5781L9.42981 34.083ZM61.9747 33.9932L53.3175 14.5527L51.9943 14.4121L61.9747 33.9932ZM8.755 32.5195L9.24622 33.7998L22.6906 15.3115L8.755 32.5195ZM61.0695 32.8545L51.67 14.417L50.3712 14.3486L61.0695 32.8545ZM8.13489 30.875L8.58899 32.2695L23.8077 13.4746L8.13489 30.875ZM7.62219 29.1191L8.01086 30.5703L24.6251 12.124L7.62219 29.1191ZM7.16321 27.2852L7.49426 28.8408L26.1251 10.2197L7.16321 27.2852ZM6.81262 25.3975L7.06848 27.0215L27.3292 8.78906L6.81262 25.3975ZM6.54211 23.4023L6.7218 25.1221L28.8224 7.23438L6.54211 23.4023ZM6.38 21.3789L6.47083 23.1299L30.0157 6.02734L6.38 21.3789ZM6.29895 19.2734V21.0762L31.2277 4.88867L6.29895 19.2734ZM35.4708 2.44043L61.8019 15.8525L37.0148 1.5498L35.4708 2.44043ZM33.7501 3.60156L60.2579 15.4072L35.2062 2.65723L33.7501 3.60156ZM32.1495 4.81934L58.5597 14.9619L33.5323 3.81738L32.1495 4.81934ZM30.6759 6.08105L56.1534 14.3564L31.9406 5.05762L30.6759 6.08105ZM29.3009 7.36133L54.8751 14.2109L30.4835 6.29785L29.3009 7.36133ZM24.0695 14.1201H45.9796L24.7882 13.0146L24.0695 14.1201ZM24.9376 12.7324L47.1261 13.8984L25.7325 11.6387L24.9376 12.7324ZM28.0714 8.67871L52.38 13.8486L29.1329 7.61914L28.0714 8.67871ZM26.9288 10.0107L51.0529 13.8359L27.8917 8.94238L26.9288 10.0107ZM25.9015 11.3467L48.3126 13.7061L26.7579 10.291L25.9015 11.3467Z" fill="white"/>
<path fill-rule="evenodd" clip-rule="evenodd" d="M24.0569 24.393C24.3991 23.8226 25.0155 23.4736 25.6806 23.4736H48.403C49.0681 23.4736 49.6845 23.8226 50.0267 24.393L55.7073 33.8606C56.1343 34.5722 56.0481 35.479 55.4947 36.0974L39.3997 54.086C39.3806 54.1073 39.3611 54.1282 39.3411 54.1486C39.0414 54.4545 38.6836 54.6975 38.2888 54.8634C37.894 55.0293 37.4701 55.1148 37.0418 55.1148C36.6135 55.1148 36.1896 55.0293 35.7948 54.8634C35.4 54.6975 35.0422 54.4545 34.7425 54.1486C34.7225 54.1282 34.703 54.1073 34.6839 54.086L18.5889 36.0974C18.0355 35.479 17.9493 34.5722 18.3763 33.8606L24.0569 24.393ZM26.7527 27.2607L22.3417 34.6123L37.0418 51.0418L51.7419 34.6123L47.3309 27.2607H26.7527ZM31.578 30.9385C32.4747 31.4766 32.7655 32.6397 32.2275 33.5364L31.8154 34.2233L34.6558 37.3478C35.3593 38.1216 35.3023 39.3192 34.5285 40.0226C33.7547 40.7261 32.5571 40.6691 31.8536 39.8953L28.0666 35.7295C27.5046 35.1113 27.4142 34.1979 27.844 33.4815L28.9801 31.588C29.5181 30.6913 30.6813 30.4005 31.578 30.9385Z" fill="white"/>
</svg>
