<svg fill="none" height="74" viewBox="0 0 75 74" width="75" xmlns="http://www.w3.org/2000/svg"><path clip-rule="evenodd" d="m13.5082 10.1965c.6333-1.05552 1.7741-1.70138 3.005-1.70138h42.0532c1.231 0 2.3717.64586 3.005 1.70138l10.5133 17.5222c.7902 1.317.6308 2.9951-.3934 4.1397l-29.7876 33.2921c-.0353.0394-.0715.0781-.1085.1159-.5547.5661-1.2168 1.0158-1.9475 1.3229-.7307.307-1.5153.4652-2.3079.4652s-1.5772-.1582-2.3079-.4652c-.7307-.3071-1.3928-.7568-1.9475-1.3229-.037-.0378-.0732-.0765-.1084-.1159l-29.78769-33.2921c-1.02413-1.1446-1.1836-2.8227-.39338-4.1397zm4.9892 5.3075-8.1635 13.6059 27.2059 30.4066 27.2059-30.4066-8.1635-13.6059zm8.9304 6.8067c1.6596.9957 2.1978 3.1484 1.202 4.808l-.7627 1.2712 5.2569 5.7826c1.3019 1.4321 1.1964 3.6485-.2357 4.9504-1.4321 1.302-3.6485 1.1964-4.9504-.2357l-7.0089-7.7097c-1.04-1.1441-1.2074-2.8346-.4119-4.1604l2.1026-3.5044c.9958-1.6597 3.1484-2.1978 4.8081-1.202z" fill="#b2ff59" fill-rule="evenodd"/></svg>