<svg width="74" height="74" viewBox="0 0 74 74" fill="none" xmlns="http://www.w3.org/2000/svg">
<path fill-rule="evenodd" clip-rule="evenodd" d="M36.7739 3.81669C36.7737 3.49855 36.8571 3.18595 37.0158 2.9102C37.1744 2.63445 37.4028 2.40522 37.6779 2.24548C37.953 2.08574 38.2653 2.00109 38.5834 2.00001C38.9015 1.99893 39.2144 2.08147 39.4906 2.23934L52.6609 9.76522L67.404 18.1898C67.7513 18.3883 68.0401 18.675 68.241 19.0209C68.4418 19.3669 68.5477 19.7598 68.5478 20.1598V37L54.9123 29.2086C54.2266 28.8169 53.4506 28.6109 52.6609 28.6109C51.8712 28.6109 51.0952 28.8169 50.4095 29.2086L36.7739 37V3.81669ZM5 37V20.1598C5.00013 19.7598 5.10599 19.3669 5.30687 19.0209C5.50775 18.675 5.79649 18.3883 6.14386 18.1898L18.6355 11.0521C19.3212 10.6604 20.0973 10.4544 20.887 10.4544C21.6766 10.4544 22.4527 10.6604 23.1384 11.0521L36.7739 18.8435L5 37ZM36.7739 70.1856C36.7737 70.5035 36.69 70.8158 36.5312 71.0913C36.3724 71.3667 36.144 71.5956 35.8689 71.7551C35.5939 71.9146 35.2818 71.999 34.9638 72C34.6459 72.001 34.3333 71.9184 34.0572 71.7607L20.887 64.2348L6.14386 55.8102C5.79649 55.6117 5.50775 55.325 5.30687 54.9791C5.10599 54.6331 5.00013 54.2402 5 53.8402V37L18.6355 44.7914C19.3212 45.1831 20.0973 45.3891 20.887 45.3891C21.6766 45.3891 22.4527 45.1831 23.1384 44.7914L36.7739 37V70.1856ZM50.4095 62.9479C51.0952 63.3396 51.8712 63.5456 52.6609 63.5456C53.4506 63.5456 54.2266 63.3396 54.9123 62.9479L67.404 55.8102C67.7513 55.6117 68.0401 55.325 68.241 54.9791C68.4418 54.6331 68.5477 54.2402 68.5478 53.8402V37L36.7739 55.1565L50.4095 62.9479Z" fill="#159DFF"/>
</svg>
