<svg width="32" height="32" viewBox="0 0 32 32" fill="none" xmlns="http://www.w3.org/2000/svg"><path d="M20.5278 15.9872C20.5278 18.4626 18.5211 20.4693 16.0457 20.4693C13.5703 20.4693 11.5636 18.4626 11.5636 15.9872C11.5636 13.5118 13.5703 11.5051 16.0457 11.5051C18.5211 11.5051 20.5278 13.5118 20.5278 15.9872Z" fill="var(--logo-color-invert)"/><path d="M15.0578 6.75311C15.0578 6.23228 15.48 5.81006 16.0008 5.81006C16.5217 5.81006 16.9439 6.23228 16.9439 6.75311V8.7964C16.9439 9.31724 16.5217 9.73946 16.0008 9.73946C15.48 9.73946 15.0578 9.31724 15.0578 8.7964V6.75311Z" fill="var(--logo-color-invert)"/><path d="M15.0578 23.178C15.0578 22.6572 15.48 22.235 16.0008 22.235C16.5217 22.235 16.9439 22.6572 16.9439 23.178V25.2213C16.9439 25.7421 16.5217 26.1644 16.0008 26.1644C15.48 26.1644 15.0578 25.7421 15.0578 25.2213V23.178Z" fill="var(--logo-color-invert)"/><path d="M8.81603 10.1524C8.44774 9.78408 8.44774 9.18697 8.81603 8.81868C9.18431 8.45039 9.78142 8.45039 10.1497 8.81868L11.5945 10.2635C11.9628 10.6318 11.9628 11.2289 11.5945 11.5972C11.2262 11.9655 10.6291 11.9655 10.2608 11.5972L8.81603 10.1524Z" fill="var(--logo-color-invert)"/><path d="M20.4302 21.7665C20.0619 21.3982 20.0619 20.8011 20.4302 20.4328C20.7985 20.0645 21.3956 20.0645 21.7638 20.4328L23.2087 21.8776C23.577 22.2459 23.577 22.843 23.2087 23.2113C22.8404 23.5796 22.2433 23.5796 21.875 23.2113L20.4302 21.7665Z" fill="var(--logo-color-invert)"/><path d="M6.77826 16.958C6.25743 16.958 5.83521 16.5358 5.83521 16.015C5.83521 15.4941 6.25743 15.0719 6.77826 15.0719H8.82155C9.34238 15.0719 9.7646 15.4941 9.7646 16.015C9.7646 16.5358 9.34238 16.958 8.82155 16.958H6.77826Z" fill="var(--logo-color-invert)"/><path d="M23.2031 16.958C22.6823 16.958 22.2601 16.5358 22.2601 16.015C22.2601 15.4941 22.6823 15.0719 23.2031 15.0719H25.2464C25.7673 15.0719 26.1895 15.4941 26.1895 16.015C26.1895 16.5358 25.7673 16.958 25.2464 16.958H23.2031Z" fill="var(--logo-color-invert)"/><path d="M10.1775 23.1998C9.8092 23.5681 9.21209 23.5681 8.8438 23.1998C8.47552 22.8315 8.47552 22.2344 8.8438 21.8661L10.2886 20.4213C10.6569 20.053 11.254 20.053 11.6223 20.4213C11.9906 20.7896 11.9906 21.3867 11.6223 21.755L10.1775 23.1998Z" fill="var(--logo-color-invert)"/><path d="M21.7916 11.5856C21.4233 11.9539 20.8262 11.9539 20.4579 11.5856C20.0897 11.2174 20.0897 10.6202 20.4579 10.252L21.9028 8.80714C22.2711 8.43885 22.8682 8.43885 23.2364 8.80714C23.6047 9.17543 23.6047 9.77254 23.2364 10.1408L21.7916 11.5856Z" fill="var(--logo-color-invert)"/></svg>
