<svg width="74" height="74" viewBox="0 0 74 74" fill="none" xmlns="http://www.w3.org/2000/svg">
<path fill-rule="evenodd" clip-rule="evenodd" d="M60.5274 14.4066C57.6082 11.4873 54.3645 9.21674 50.4721 7.59492C46.5798 5.97309 42.0386 5 37.4975 5C32.6321 5 28.4153 5.97309 24.5229 7.59492C20.6306 9.21674 17.0625 11.4873 14.1432 14.4066C11.224 17.3259 8.95341 20.8939 7.33158 24.7863C5.70976 28.6786 5.06104 32.8954 5.06104 37.1121C5.06104 41.3289 5.70976 45.5456 7.33158 49.438C8.95341 53.3304 10.8996 56.574 13.8189 59.1689L22.9011 42.6263L31.9833 51.7086L42.0386 27.7055L37.8219 25.7594L43.6604 21.5426L49.499 17.3259L50.4721 24.4619L51.4452 31.5979L47.2285 29.6517L34.2539 60.4664L24.5229 51.0598L18.36 62.737C20.3062 64.3588 22.5767 65.3319 24.8473 66.305C28.7397 67.9268 33.2808 68.8999 37.8219 68.8999C42.6874 68.8999 46.9041 67.9268 50.7965 66.305C58.5813 63.0613 64.7442 56.8984 67.6635 49.1136C69.2853 45.2213 69.934 41.0045 69.934 36.7878C69.934 32.571 69.2853 28.3543 67.6635 24.4619C65.3929 20.5695 63.1224 17.3259 60.5274 14.4066Z" fill="#4BC1BE"/>
</svg>
