<svg fill="none" height="34" viewBox="0 0 34 34" width="34" xmlns="http://www.w3.org/2000/svg"><path d="m4.94001 10.4158c.03872-.3825-.10715-.76061-.39279-1.01806l-2.90956-3.50503v-.52357h9.03414l6.983 15.31446 6.1392-15.31446h8.6123v.52357l-2.4877 2.38517c-.2145.16348-.3209.43216-.2764.6981v17.52512c-.0445.266.0619.5346.2764.6981l2.4295 2.3852v.5236h-12.2202v-.5236l2.5168-2.4434c.2473-.2472.2473-.3199.2473-.6981v-14.1655l-6.9975 17.7724h-.9456l-8.14677-17.7724v11.9113c-.06792.5008.0984 1.0049.45099 1.3671l3.27328 3.9704v.5236h-9.28153v-.5236l3.27326-3.9704c.35002-.3628.50664-.8703.42188-1.3671z" fill="#fff"/></svg>