<svg width="104" height="74" viewBox="0 0 104 74" fill="none" xmlns="http://www.w3.org/2000/svg">
<path d="M96.4452 48.8298L76.3494 13.8972C71.9636 6.62235 61.1623 6.55682 56.9073 14.225L35.8291 50.5338C31.9014 57.2189 36.7455 65.5424 44.6662 65.5424H87.0191C94.94 65.6079 100.897 56.9567 96.4452 48.8298Z" fill="#003087"/>
<path d="M67.5895 51.5353L66.3446 49.3753C65.1651 47.3464 62.6096 43.0265 62.6096 43.0265L45.5729 13.4418C41.1827 6.89654 30.6986 6.30746 26.3084 14.62L6.45415 48.9172C2.32603 56.117 7.24047 65.4768 16.152 65.5422H58.2849H76.2388H86.9197C76.0422 65.6077 72.5696 59.9132 67.5895 51.5353Z" fill="#1877F2"/>
<path d="M67.5974 51.3373L66.3529 49.1568C65.1739 47.1085 62.6194 42.7476 62.6194 42.7476L51.6154 23.1895L35.8299 50.4122C31.8999 57.1518 36.7469 65.5434 44.6724 65.5434H58.2309H76.178H86.92C75.9814 65.4773 72.5755 59.8609 67.5974 51.3373Z" fill="url(#paint0_linear_633_980)"/>
<defs>
<linearGradient id="paint0_linear_633_980" x1="30.1961" y1="38.0745" x2="79.231" y2="56.0369" gradientUnits="userSpaceOnUse">
<stop stop-color="#003087" stop-opacity="0"/>
<stop offset="1" stop-color="#003087"/>
</linearGradient>
</defs>
</svg>
