<svg fill="none" height="74" viewBox="0 0 74 74" width="74" xmlns="http://www.w3.org/2000/svg"><path d="m63.4002 70.0006h-52.8005c-3.63004 0-6.60007-2.97-6.60007-6.6v-52.8005c0-3.63007 2.97003-6.6001 6.60007-6.6001h52.8005c3.6301 0 6.6001 2.97003 6.6001 6.6001v52.8005c0 3.63-2.97 6.6-6.6001 6.6z" fill="#5767ff"/><path d="m45.2502 22.644c-3.3 0-6.105 1.3201-8.2501 3.4651-2.145-2.145-4.95-3.4651-8.25-3.4651-6.4351 0-11.5501 5.1151-11.5501 11.5502v13.6951c0 1.815 1.485 3.3 3.3 3.3s3.3-1.485 3.3-3.3v-13.6951c0-2.8051 2.145-4.9501 4.9501-4.9501 2.805 0 4.95 2.145 4.95 4.9501v13.6951c0 1.815 1.485 3.3 3.3 3.3 1.8151 0 3.3001-1.485 3.3001-3.3v-13.6951c0-2.8051 2.145-4.9501 4.95-4.9501 2.8051 0 4.9501 2.145 4.9501 4.9501v13.6951c0 1.815 1.485 3.3 3.3 3.3s3.3-1.485 3.3-3.3v-13.6951c0-6.2701-5.115-11.5502-11.5501-11.5502z" fill="#fff"/></svg>