<svg width="74" height="74" viewBox="0 0 74 74" fill="none" xmlns="http://www.w3.org/2000/svg">
<circle cx="37" cy="37" r="34" fill="#367FA9"/>
<path d="M22.9785 56.2381L20.2122 53.4718L48.8818 24.1734C46.7693 21.7591 40.4989 17.9281 37.9421 16.503L39.0738 16C42.1922 16.6036 48.5046 20.7783 51.0195 22.7902L51.5225 22.413L54.2888 24.9278L53.7859 25.5566C57.8097 29.7816 60.2407 35.9514 60.9533 38.5082H60.0731C57.9606 34.082 53.9954 29.3708 52.2769 27.5685L22.9785 56.2381Z" fill="white"/>
<path fill-rule="evenodd" clip-rule="evenodd" d="M29.7685 28.0717L32.7863 25.8083C30.8163 23.503 25.7447 18.857 22.7268 18.6412C20.9664 18.5153 17.4455 19.144 18.0742 23.7967C18.5772 27.5189 22.8106 31.5086 24.9902 33.2271L27.3793 30.5864L48.0014 51.0827C47.708 51.7953 47.4984 53.4467 49.0073 54.8551C49.4065 55.2276 49.7968 55.5937 50.1643 55.9384C51.1864 56.8969 52.0325 57.6904 52.4024 57.9987L57.3064 52.9689C57.3064 52.9689 55.2945 50.8312 54.2886 49.8253C53.2826 48.8193 51.7737 48.1906 50.5163 48.6936C50.5163 48.6936 36.1814 35.0714 29.7685 28.0717ZM50.6421 50.3286C51.145 49.9514 52.0252 49.9514 52.5282 50.4544L54.7916 52.7178L52.151 55.4841C51.7578 55.0909 51.334 54.7129 50.9383 54.3599C50.4061 53.8851 49.9246 53.4556 49.6361 53.095C49.2589 52.6234 49.1332 51.8376 49.6361 51.3346C49.7332 51.2375 49.8372 51.1248 49.9449 51.0081C50.1718 50.7623 50.4146 50.4992 50.6421 50.3286Z" fill="white"/>
</svg>
