<svg width="74" height="74" viewBox="0 0 74 74" fill="none" xmlns="http://www.w3.org/2000/svg"><circle cx="37" cy="37" r="37" fill="#092737"/><path d="M38.7059 11.4119C38.7059 12.3541 37.9421 13.1178 37 13.1178C36.0579 13.1178 35.2941 12.3541 35.2941 11.4119C35.2941 10.4698 36.0579 9.70605 37 9.70605C37.9421 9.70605 38.7059 10.4698 38.7059 11.4119Z" fill="#DCDB6E"/><path d="M26.7647 23.3531C26.7647 25.2374 25.2372 26.7649 23.3529 26.7649C21.4687 26.7649 19.9412 25.2374 19.9412 23.3531C19.9412 21.4688 21.4687 19.9413 23.3529 19.9413C25.2372 19.9413 26.7647 21.4688 26.7647 23.3531Z" fill="#DCDB6E"/><path d="M26.7647 37.0002C26.7647 38.8844 25.2372 40.4119 23.3529 40.4119C21.4687 40.4119 19.9412 38.8844 19.9412 37.0002C19.9412 35.1159 21.4687 33.5884 23.3529 33.5884C25.2372 33.5884 26.7647 35.1159 26.7647 37.0002Z" fill="#DCDB6E"/><path d="M50.6471 40.4119C52.5313 40.4119 54.0588 38.8844 54.0588 37.0002C54.0588 35.1159 52.5313 33.5884 50.6471 33.5884C48.7628 33.5884 47.2353 35.1159 47.2353 37.0002C47.2353 38.8844 48.7628 40.4119 50.6471 40.4119Z" fill="#DCDB6E"/><path d="M40.4118 37.0002C40.4118 38.8844 38.8843 40.4119 37 40.4119C35.1157 40.4119 33.5882 38.8844 33.5882 37.0002C33.5882 35.1159 35.1157 33.5884 37 33.5884C38.8843 33.5884 40.4118 35.1159 40.4118 37.0002Z" fill="#DCDB6E"/><path d="M37 25.059C37.9421 25.059 38.7059 24.2952 38.7059 23.3531C38.7059 22.411 37.9421 21.6472 37 21.6472C36.0579 21.6472 35.2941 22.411 35.2941 23.3531C35.2941 24.2952 36.0579 25.059 37 25.059Z" fill="#DCDB6E"/><path d="M38.7059 50.6472C38.7059 51.5894 37.9421 52.3531 37 52.3531C36.0579 52.3531 35.2941 51.5894 35.2941 50.6472C35.2941 49.7051 36.0579 48.9413 37 48.9413C37.9421 48.9413 38.7059 49.7051 38.7059 50.6472Z" fill="#DCDB6E"/><path d="M37 64.2943C37.9421 64.2943 38.7059 63.5305 38.7059 62.5884C38.7059 61.6463 37.9421 60.8825 37 60.8825C36.0579 60.8825 35.2941 61.6463 35.2941 62.5884C35.2941 63.5305 36.0579 64.2943 37 64.2943Z" fill="#DCDB6E"/><path d="M9.70588 38.7061C10.648 38.7061 11.4118 37.9423 11.4118 37.0002C11.4118 36.058 10.648 35.2943 9.70588 35.2943C8.76375 35.2943 8 36.058 8 37.0002C8 37.9423 8.76375 38.7061 9.70588 38.7061Z" fill="#DCDB6E"/><path d="M66 37.0002C66 37.9423 65.2362 38.7061 64.2941 38.7061C63.352 38.7061 62.5882 37.9423 62.5882 37.0002C62.5882 36.058 63.352 35.2943 64.2941 35.2943C65.2362 35.2943 66 36.058 66 37.0002Z" fill="#DCDB6E"/><path d="M50.6471 26.7649C52.5313 26.7649 54.0588 25.2374 54.0588 23.3531C54.0588 21.4688 52.5313 19.9413 50.6471 19.9413C48.7628 19.9413 47.2353 21.4688 47.2353 23.3531C47.2353 25.2374 48.7628 26.7649 50.6471 26.7649Z" fill="#DCDB6E"/><path d="M54.0588 50.6472C54.0588 52.5315 52.5313 54.059 50.6471 54.059C48.7628 54.059 47.2353 52.5315 47.2353 50.6472C47.2353 48.763 48.7628 47.2355 50.6471 47.2355C52.5313 47.2355 54.0588 48.763 54.0588 50.6472Z" fill="#DCDB6E"/><path d="M23.3529 54.059C25.2372 54.059 26.7647 52.5315 26.7647 50.6472C26.7647 48.763 25.2372 47.2355 23.3529 47.2355C21.4687 47.2355 19.9412 48.763 19.9412 50.6472C19.9412 52.5315 21.4687 54.059 23.3529 54.059Z" fill="#DCDB6E"/></svg>
