<svg width="74" height="74" viewBox="0 0 74 74" fill="none" xmlns="http://www.w3.org/2000/svg">
<path fill-rule="evenodd" clip-rule="evenodd" d="M9.53198 36.7771C9.65507 21.607 22.0527 9.40891 37.2228 9.53199C38.5428 9.5427 39.8384 9.64609 41.1041 9.83548C42.8877 10.1024 44.55 8.87285 44.8169 7.08921C45.0838 5.30557 43.8543 3.64326 42.0707 3.37635C40.5035 3.14182 38.9025 3.01434 37.2758 3.00114C18.4988 2.8488 3.15349 17.9471 3.00114 36.7241C2.95045 42.9722 4.59122 48.8483 7.49664 53.9082C6.71367 55.2634 6.26562 56.8364 6.26562 58.514C6.26562 63.6062 10.3937 67.7343 15.4859 67.7343C20.5782 67.7343 24.7063 63.6062 24.7063 58.514C24.7063 53.4218 20.5782 49.2937 15.4859 49.2937C14.4985 49.2937 13.5473 49.4489 12.6554 49.7363C10.6266 45.8676 9.49401 41.4577 9.53198 36.7771ZM18.5594 58.514C18.5594 60.2114 17.1834 61.5874 15.4859 61.5874C13.7885 61.5874 12.4125 60.2114 12.4125 58.514C12.4125 56.8166 13.7885 55.4406 15.4859 55.4406C17.1834 55.4406 18.5594 56.8166 18.5594 58.514Z" fill="#64FFDA"/>
<path fill-rule="evenodd" clip-rule="evenodd" d="M67.7344 15.4858C67.7344 17.1635 67.2863 18.7366 66.5033 20.0918C69.4089 25.152 71.0494 31.0283 70.9987 37.2758C70.8464 56.0528 55.5011 71.1511 36.7241 70.9987C35.0405 70.9851 33.3845 70.849 31.765 70.5986C29.9827 70.3229 28.7613 68.6546 29.0369 66.8723C29.3126 65.09 30.9809 63.8686 32.7632 64.1442C34.0709 64.3465 35.411 64.4568 36.7771 64.4679C51.9472 64.591 64.3448 52.3929 64.4679 37.2228C64.5059 32.5417 63.3731 28.132 61.3445 24.2636C60.4526 24.551 59.5015 24.7062 58.5141 24.7062C53.4219 24.7062 49.2938 20.5781 49.2938 15.4858C49.2938 10.3936 53.4219 6.26553 58.5141 6.26553C63.6063 6.26553 67.7344 10.3936 67.7344 15.4858ZM58.5141 18.5593C60.2115 18.5593 61.5875 17.1833 61.5875 15.4858C61.5875 13.7884 60.2115 12.4124 58.5141 12.4124C56.8167 12.4124 55.4407 13.7884 55.4407 15.4858C55.4407 17.1833 56.8167 18.5593 58.5141 18.5593Z" fill="#64FFDA"/>
<path fill-rule="evenodd" clip-rule="evenodd" d="M49.678 36.9999C49.678 44.0018 44.0018 49.6779 37 49.6779C29.9982 49.6779 24.3221 44.0018 24.3221 36.9999C24.3221 29.9981 29.9982 24.322 37 24.322C44.0018 24.322 49.678 29.9981 49.678 36.9999ZM43.1469 36.9999C43.1469 40.3948 40.3948 43.1468 37 43.1468C33.6052 43.1468 30.8531 40.3948 30.8531 36.9999C30.8531 33.6051 33.6052 30.853 37 30.853C40.3948 30.853 43.1469 33.6051 43.1469 36.9999Z" fill="#64FFDA"/>
</svg>
