<svg width="74" height="74" viewBox="0 0 74 74" fill="none" xmlns="http://www.w3.org/2000/svg">
<path fill-rule="evenodd" clip-rule="evenodd" d="M36.7249 4H2.60716C2.17365 4 1.95958 4.52973 2.26835 4.83403C4.16057 6.69883 5.93413 8.59037 7.71384 10.4885C9.33633 12.2189 10.9642 13.9551 12.6915 15.681C13.1002 16.0895 13.5089 16.4979 13.9994 16.8246C16.1248 18.3767 18.4954 19.1935 21.193 19.2752H43.2643C43.7548 19.2752 44.2453 19.2752 44.7358 19.3569C48.0056 20.0104 50.7032 23.2778 49.9675 27.1987C49.4141 30.2006 46.7964 32.4386 43.7412 32.5826C43.5164 32.5932 43.4137 32.8654 43.5729 33.0245L54.2975 43.7461C54.7223 44.1708 55.3259 44.3989 55.9137 44.2756L55.9349 44.271C57.2428 44.026 58.5508 43.4542 59.7769 42.8007C61.7388 41.7388 63.5372 40.3501 64.9269 38.553C67.461 35.2039 68.9324 31.5281 69.1777 27.3621C69.3412 25.7284 69.2594 24.0947 69.0142 22.5426C68.6872 20.5005 68.115 18.54 67.2975 16.6613C65.4991 12.6587 62.7198 9.47294 58.8777 7.18574C55.7714 5.38865 52.4198 4.49011 48.9048 4.16337C47.9238 4.08168 47.0246 4.08168 46.0437 4.08168C42.9374 4 39.8312 4 36.7249 4ZM46.0629 69.4553C46.4229 69.8107 46.8987 70 47.4046 70H70.5844C71.0133 70 71.2281 69.4813 70.9248 69.178L28.1065 26.3719C27.7454 26.0109 27.2556 25.808 26.7449 25.808H14.4892C10.1497 25.808 7.94785 31.0206 10.9895 34.1157C20.5072 43.8009 36.2008 59.7196 46.0629 69.4553Z" fill="white"/>
</svg>
