<svg width="128" height="128" viewBox="0 0 128 128" fill="none" xmlns="http://www.w3.org/2000/svg">
<path d="M100.15 113.32C90.0245 120.754 77.525 125.145 63.9999 125.145C30.2302 125.145 2.85449 97.7696 2.85449 63.9999C2.85449 55.8971 4.43062 48.1623 7.29302 41.0855L10.4991 44.2915C8.2358 50.4334 6.99995 57.0723 6.99995 63.9999C6.99995 95.4802 32.5197 121 63.9999 121C76.3787 121 87.8358 117.054 97.1821 110.351L100.15 113.32Z" fill="#EDEDED"/>
<path d="M107.075 107.397C118.235 96.3193 125.145 80.9666 125.145 63.9999C125.145 30.2302 97.7696 2.85449 63.9999 2.85449C42.2142 2.85449 23.0895 14.248 12.2594 31.4015L15.2707 34.4127C25.2716 17.9768 43.3539 6.99995 63.9999 6.99995C95.4802 6.99995 121 32.5197 121 63.9999C121 79.8219 114.553 94.1382 104.144 104.466L107.075 107.397Z" fill="#EDEDED"/>
<path d="M74.6348 121.269C75.1567 121.784 75.8464 122.059 76.5798 122.059H110.18C110.802 122.059 111.113 121.307 110.673 120.867L48.606 58.8174C48.0825 58.294 47.3725 58 46.6323 58H28.867C22.5766 58 19.3849 65.5559 23.7939 70.0424C37.5903 84.0816 60.3391 107.157 74.6348 121.269Z" fill="#EDEDED"/>
<path d="M58.0985 26.3838H4.64289C4.01448 26.3838 3.70419 27.1517 4.15177 27.5928C9.39538 32.7604 14.0104 38.0697 19.2607 43.3161C19.8532 43.9082 20.4456 44.5002 21.1566 44.9738C24.2375 47.2236 27.6738 48.4077 31.5842 48.5261H67.5778C68.2887 48.5261 68.9997 48.5261 69.7107 48.6445C74.4504 49.5917 78.3608 54.3281 77.2943 60.0116C76.4922 64.3631 72.6977 67.6071 68.269 67.8159C67.9431 67.8312 67.7943 68.2258 68.025 68.4565L83.571 83.998C84.1867 84.6136 85.0616 84.9442 85.9138 84.7655C85.9245 84.7633 85.9347 84.7611 85.9444 84.7589C87.8404 84.4037 89.7363 83.5748 91.5137 82.6276C94.3576 81.0883 96.9645 79.0753 98.9789 76.4704C102.652 71.6156 104.785 66.2873 105.141 60.2485C105.378 57.8803 105.259 55.5121 104.904 53.2624C104.43 50.3022 103.6 47.4604 102.415 44.737C99.8083 38.935 95.7795 34.3171 90.2103 31.0017C85.7074 28.3967 80.8492 27.0942 75.7539 26.6206C74.332 26.5022 73.0285 26.5022 71.6066 26.5022C67.1039 26.3838 62.6012 26.3838 58.0985 26.3838Z" fill="#EDEDED"/>
</svg>
