<svg width="74" height="74" viewBox="0 0 74 74" fill="none" xmlns="http://www.w3.org/2000/svg">
<path d="M57.8993 65.513C52.0453 69.8111 44.8191 72.3498 36.9999 72.3498C17.4768 72.3498 1.65015 56.5232 1.65015 37.0001C1.65015 32.3156 2.56135 27.844 4.21617 23.7527L6.06966 25.6062C4.76121 29.1569 4.04674 32.9951 4.04674 37.0001C4.04674 55.1996 18.8004 69.9532 36.9999 69.9532C44.1563 69.9532 50.78 67.672 56.1833 63.797L57.8993 65.513Z" fill="#EDEDED"/>
<path d="M61.9027 62.089C68.3545 55.6847 72.3496 46.809 72.3496 37.0001C72.3496 17.477 56.523 1.65039 36.9999 1.65039C24.405 1.65039 13.3485 8.23727 7.08738 18.1541L8.82824 19.895C14.61 10.3929 25.0638 4.04698 36.9999 4.04698C55.1994 4.04698 69.953 18.8006 69.953 37.0001C69.953 46.1472 66.2261 54.4238 60.208 60.3943L61.9027 62.089Z" fill="#EDEDED"/>
<path d="M43.1483 70.1085C43.45 70.4064 43.8487 70.565 44.2727 70.565H63.6979C64.0574 70.565 64.2374 70.1303 63.9831 69.8762L28.1004 34.0036C27.7977 33.701 27.3873 33.5311 26.9593 33.5311H16.6887C13.0521 33.5311 11.2069 37.8993 13.7558 40.4931C21.7319 48.6095 34.8835 61.9498 43.1483 70.1085Z" fill="#EDEDED"/>
<path d="M33.5882 15.2529H2.68418C2.32089 15.2529 2.1415 15.6969 2.40025 15.9519C5.43172 18.9394 8.09979 22.0089 11.1351 25.0419C11.4776 25.3842 11.8202 25.7265 12.2312 26.0003C14.0123 27.3009 15.9989 27.9855 18.2596 28.0539H39.0684C39.4794 28.0539 39.8905 28.0539 40.3015 28.1224C43.0417 28.67 45.3023 31.4082 44.6858 34.694C44.222 37.2097 42.0284 39.0851 39.468 39.2059C39.2796 39.2147 39.1936 39.4428 39.327 39.5762L48.3145 48.5611C48.6705 48.917 49.1763 49.1082 49.6689 49.0049C49.6751 49.0036 49.681 49.0023 49.6866 49.001C50.7827 48.7957 51.8788 48.3165 52.9064 47.7689C54.5505 46.879 56.0576 45.7152 57.2222 44.2092C59.3458 41.4026 60.5789 38.3221 60.7844 34.8309C60.9214 33.4619 60.8529 32.0928 60.6474 30.7921C60.3734 29.0808 59.8939 27.4378 59.2088 25.8634C57.7017 22.5091 55.3725 19.8394 52.1528 17.9227C49.5496 16.4167 46.7409 15.6637 43.7952 15.3898C42.9732 15.3214 42.2196 15.3214 41.3976 15.3214C38.7944 15.2529 36.1913 15.2529 33.5882 15.2529Z" fill="#EDEDED"/>
</svg>
