<svg width="196" height="36" viewBox="0 0 196 36" fill="none" xmlns="http://www.w3.org/2000/svg"><path fill-rule="evenodd" clip-rule="evenodd" d="M34.2161 18.1066C34.2161 27.4874 26.6114 35.0921 17.2306 35.0921C7.84978 35.0921 0.245117 27.4874 0.245117 18.1066C0.245117 8.72576 7.84978 1.12109 17.2306 1.12109C26.6114 1.12109 34.2161 8.72576 34.2161 18.1066ZM6.16236 10.2656H16.1401C16.9805 10.2656 17.821 10.2656 18.6614 10.2877C18.9268 10.2877 19.1701 10.2877 19.4355 10.3098C20.3866 10.3982 21.2934 10.6413 22.1339 11.1275C23.1734 11.7464 23.9254 12.6083 24.412 13.6913C24.6331 14.1996 24.788 14.7301 24.8764 15.2826C24.9428 15.7025 24.9649 16.1445 24.9207 16.5866C24.8543 17.7137 24.4562 18.7083 23.7705 19.6144C23.3946 20.1007 22.908 20.4764 22.3771 20.7637C22.0454 20.9405 21.6915 21.0952 21.3376 21.1615L21.3319 21.1628C21.1728 21.1961 21.0095 21.1344 20.8946 21.0195L17.9929 18.1186C17.9498 18.0756 17.9776 18.0019 18.0384 17.999C18.8651 17.9601 19.5733 17.3546 19.723 16.5424C19.9221 15.4815 19.1922 14.5974 18.3075 14.4206C18.1748 14.3985 18.0421 14.3985 17.9094 14.3985H11.1911C10.4612 14.3764 9.81977 14.1554 9.24471 13.7355C9.11201 13.6471 9.00142 13.5366 8.89083 13.4261C8.42347 12.9591 7.98305 12.4894 7.54403 12.0211C7.06251 11.5076 6.58265 10.9958 6.07069 10.4912C5.98715 10.4089 6.04507 10.2656 6.16236 10.2656ZM19.5899 28.1238C19.453 28.1238 19.3243 28.0726 19.2268 27.9764C16.5585 25.3423 12.3123 21.0352 9.73722 18.4147C8.91426 17.5773 9.51001 16.167 10.6841 16.167H14.0001C14.1382 16.167 14.2708 16.2219 14.3685 16.3195L25.9536 27.9014C26.0357 27.9834 25.9776 28.1238 25.8615 28.1238H19.5899Z" fill="black"/><path d="M152.521 15.1925L163.875 25.0869C164.398 25.5428 165.069 25.7939 165.763 25.7939C166.732 25.7939 167.518 25.0083 167.518 24.0391V10.3731H164.132V20.3325L153.066 10.6352C152.636 10.2585 152.084 10.0508 151.513 10.0508C150.211 10.0507 149.156 11.106 149.156 12.4078V25.4716H152.521V15.1925Z" fill="black"/><path d="M79.028 14.7392L72.149 25.4717H67.6904L76.5198 11.7327C77.0909 10.8553 77.8803 10.1143 79.1076 10.1143C80.2752 10.1143 81.0625 10.7897 81.6496 11.728L90.2556 25.4717H85.788L83.3007 21.6155L83.2985 21.6123C82.9564 21.1089 82.4407 20.2806 81.9968 19.5678L81.9962 19.5668L81.9852 19.5491L81.8557 19.3413L81.8552 19.3404L79.028 14.7392Z" fill="black"/><path d="M49.0944 21.3062V25.4715H45.3242V18.0681H57.4147C58.1466 18.0681 58.8234 17.8857 59.327 17.5333C59.8377 17.176 60.1684 16.6419 60.1684 15.9808C60.1684 15.2779 59.8992 14.7172 59.3884 14.3439C58.8933 13.982 58.2078 13.8229 57.4147 13.8229H45.3242V10.373H57.0521C58.645 10.373 60.4134 10.652 61.7722 11.4548C63.1088 12.2445 64.0665 13.5482 64.0665 15.6749C64.0665 17.9972 62.7612 19.8692 60.587 20.349L60.1153 20.4531L61.0855 21.4969C61.3557 21.7696 61.6741 22.1139 62.0833 22.5705L62.1304 22.6212L62.1295 22.6221C62.2211 22.7246 62.3173 22.8326 62.4184 22.9465L64.5835 25.4715H59.6975L55.875 21.3062H49.0944Z" fill="black"/><path d="M93.748 19.3819H97.5395V13.8229H104.073C106.607 13.8229 108.618 15.5603 108.618 17.9811C108.618 19.2005 108.138 20.2309 107.317 20.9529C106.5 21.6717 105.364 22.0686 104.073 22.0686H93.748V25.4715H104.073C108.863 25.4715 112.346 22.1374 112.346 17.7693C112.346 13.4388 108.921 10.373 104.073 10.373H93.748V19.3819Z" fill="black"/><path d="M134.822 14.7392L127.943 25.4717H123.485L132.314 11.7327L132.315 11.7316C132.886 10.8544 133.675 10.1143 134.902 10.1143C136.07 10.1143 136.857 10.7897 137.444 11.728L146.05 25.4717H141.442L139.097 21.619L139.093 21.6123C138.752 21.1097 138.237 20.2832 137.794 19.5712L137.791 19.5673L137.79 19.5665L137.649 19.3404L134.822 14.7392Z" fill="black"/><path d="M178.343 13.8229H170.885V10.373H189.629V13.8229H182.113V25.4715H178.343V13.8229Z" fill="black"/><path d="M120.079 25.4715V10.373H116.309V25.4715H120.079Z" fill="black"/></svg>