<svg width="214" height="36" viewBox="0 0 214 36" fill="none" xmlns="http://www.w3.org/2000/svg">
<path d="M170.432 14.8457L183.354 26.1062C183.949 26.6251 184.712 26.9109 185.502 26.9109C186.605 26.9109 187.499 26.0168 187.499 24.9138V9.36093H183.646V20.6954L171.052 9.6592C170.563 9.23051 169.935 8.99416 169.285 8.99414C167.803 8.9941 166.602 10.1951 166.602 11.6765V26.5441H170.432V14.8457Z" fill="#EDEDED"/>
<path d="M86.7916 14.3298L78.9629 26.5441H73.8886L83.9371 10.9082L83.9377 10.9073C84.5876 9.90876 85.4854 9.06634 86.8821 9.06634C88.211 9.06634 89.107 9.835 89.7752 10.9028L99.5694 26.5441H94.485L91.6542 22.1555L91.6517 22.1518C91.2621 21.5787 90.6748 20.6354 90.1695 19.8238L90.1571 19.8038C90.107 19.7234 90.0578 19.6444 90.0097 19.5672L90.0091 19.5662L86.7916 14.3298Z" fill="#EDEDED"/>
<path d="M52.7253 21.8037V26.5441H48.4346V18.1185H62.1943C63.0274 18.1185 63.7976 17.9109 64.3707 17.5099C64.9519 17.1032 65.3283 16.4954 65.3283 15.743C65.3283 14.9431 65.0219 14.305 64.4406 13.8801C63.8771 13.4682 63.097 13.2872 62.1943 13.2872H48.4346L48.4346 9.36093H61.7817C63.5946 9.36093 65.6071 9.67848 67.1535 10.5921C68.6747 11.4908 69.7646 12.9745 69.7646 15.3949C69.7646 18.0379 68.279 20.1683 65.8047 20.7143L65.2679 20.8328L66.372 22.0208C66.6795 22.3311 67.0419 22.723 67.5076 23.2426L67.5612 23.3003L67.5601 23.3013C67.6644 23.4179 67.7739 23.5408 67.8889 23.6705L70.353 26.5441H64.7924L60.442 21.8037H52.7253Z" fill="#EDEDED"/>
<path d="M103.544 13.2872V19.6137H107.859V13.2872H115.295C118.179 13.2872 120.468 15.2645 120.468 18.0195C120.468 19.4073 119.921 20.58 118.987 21.4016C118.057 22.2197 116.764 22.6714 115.295 22.6714H107.859H103.544V26.5441H115.295C120.746 26.5441 124.71 22.7497 124.71 17.7784C124.71 12.8501 120.812 9.36093 115.295 9.36093H103.544V13.2872Z" fill="#EDEDED"/>
<path d="M150.29 14.3298L142.461 26.5441H137.387L147.435 10.9082L147.436 10.9069C148.086 9.90858 148.984 9.06634 150.38 9.06634C151.709 9.06634 152.605 9.835 153.273 10.9028L163.067 26.5441H157.823L155.155 22.1595L155.15 22.1518C154.76 21.5788 154.173 20.6359 153.668 19.8245L153.667 19.8236L153.507 19.5662L150.29 14.3298Z" fill="#EDEDED"/>
<path d="M199.82 13.2872H191.331V9.36093H212.664V13.2872H204.11V26.5441H199.82V13.2872Z" fill="#EDEDED"/>
<path d="M133.511 26.5441V9.36093H129.221V26.5441H133.511Z" fill="#EDEDED"/>
<path d="M28.7358 32.0163C25.8493 34.1356 22.2861 35.3874 18.4305 35.3874C8.80391 35.3874 1 27.5835 1 17.9569C1 15.647 1.4493 13.4421 2.26528 11.4248L3.17921 12.3387C2.53403 14.0895 2.18173 15.9821 2.18173 17.9569C2.18173 26.9309 9.45656 34.2057 18.4305 34.2057C21.9593 34.2057 25.2253 33.0808 27.8896 31.1701L28.7358 32.0163Z" fill="#EDEDED"/>
<path d="M30.7098 30.3279C33.8911 27.1701 35.8611 22.7935 35.8611 17.9569C35.8611 8.33028 28.0571 0.526367 18.4305 0.526367C12.2201 0.526367 6.76832 3.77428 3.68103 8.66417L4.53943 9.52257C7.39036 4.83722 12.545 1.7081 18.4305 1.7081C27.4045 1.7081 34.6793 8.98293 34.6793 17.9569C34.6793 22.4672 32.8417 26.5483 29.8742 29.4923L30.7098 30.3279Z" fill="#EDEDED"/>
<path d="M21.4617 34.284C21.6105 34.4309 21.8071 34.5091 22.0161 34.5091H31.5945C31.7717 34.5091 31.8605 34.2947 31.7351 34.1694L14.0418 16.4811C13.8925 16.3319 13.6901 16.2481 13.4791 16.2481H8.4148C6.62164 16.2481 5.71178 18.402 6.96864 19.681C10.9015 23.6831 17.3865 30.261 21.4617 34.284Z" fill="#EDEDED"/>
<path d="M16.7477 7.23535H1.50933C1.33019 7.23535 1.24174 7.45425 1.36933 7.57999C2.86411 9.05311 4.1797 10.5666 5.67638 12.0622C5.84527 12.231 6.01417 12.3997 6.21684 12.5348C7.09509 13.1761 8.07468 13.5136 9.18938 13.5474H19.45C19.6526 13.5474 19.8553 13.5474 20.058 13.5811C21.4091 13.8512 22.5238 15.2013 22.2198 16.8215C21.9912 18.062 20.9095 18.9867 19.647 19.0463C19.5541 19.0506 19.5117 19.1631 19.5775 19.2289L24.0091 23.6592C24.1846 23.8347 24.434 23.929 24.6769 23.878C24.68 23.8774 24.6829 23.8768 24.6857 23.8762C25.2262 23.7749 25.7666 23.5386 26.2733 23.2686C27.084 22.8298 27.8271 22.256 28.4014 21.5134C29.4485 20.1294 30.0565 18.6105 30.1579 16.889C30.2254 16.214 30.1917 15.5389 30.0903 14.8975C29.9552 14.0537 29.7188 13.2436 29.381 12.4672C28.6378 10.8133 27.4893 9.49688 25.9017 8.55176C24.6181 7.80917 23.2332 7.43788 21.7807 7.30286C21.3754 7.26911 21.0038 7.26911 20.5984 7.26911C19.3149 7.23535 18.0313 7.23535 16.7477 7.23535Z" fill="#EDEDED"/>
</svg>
