<svg width="896" height="98" viewBox="0 0 896 98" fill="none" xmlns="http://www.w3.org/2000/svg">
<path d="M665.074 32.2334L735.521 93.6207C738.767 96.4493 742.927 98.0076 747.233 98.0076C753.246 98.0076 758.12 93.1331 758.12 87.12V2.3326H737.111V64.1232L668.459 3.9586C665.792 1.62157 662.367 0.333099 658.821 0.333008C650.745 0.332809 644.198 6.87994 644.198 14.9563V96.0076H665.074V32.2334Z" fill="#EDEDED"/>
<path d="M209.106 29.4209L166.427 96.0076H138.764L193.544 10.7675L193.548 10.7626C197.091 5.31914 201.985 0.726593 209.599 0.726593C216.844 0.726593 221.728 4.91699 225.371 10.7381L278.765 96.0076H251.047L235.614 72.083L235.601 72.063C233.477 68.9385 230.275 63.7959 227.521 59.3716L227.453 59.2626C227.18 58.8245 226.912 58.3937 226.65 57.9729L226.646 57.9675L209.106 29.4209Z" fill="#EDEDED"/>
<path d="M23.391 70.1653V96.0076H9.15527e-05V50.0751H75.0122C79.5536 50.0751 83.7527 48.9434 86.877 46.7573C90.0454 44.5403 92.097 41.2266 92.097 37.125C92.097 32.7643 90.4267 29.2852 87.2579 26.9692C84.1859 24.7239 79.9333 23.7369 75.0122 23.7369H9.15527e-05L0 2.3326H72.7627C82.6457 2.3326 93.6171 4.06375 102.047 9.04437C110.34 13.9438 116.282 22.0324 116.282 35.227C116.282 49.6354 108.183 61.2496 94.6944 64.2263L91.7678 64.8721L97.787 71.3485C99.4632 73.0403 101.439 75.1766 103.978 78.0095L104.27 78.324L104.264 78.3294C104.833 78.9651 105.429 79.6352 106.057 80.3422L119.49 96.0076H89.1757L65.4595 70.1653H23.391Z" fill="#EDEDED"/>
<path d="M300.431 23.7369V58.2263H323.954V23.7369H364.492C380.217 23.7369 392.693 34.5161 392.693 49.5351C392.693 57.1008 389.712 63.494 384.62 67.973C379.549 72.433 372.504 74.8954 364.492 74.8954H323.954H300.431V96.0076H364.492C394.209 96.0076 415.819 75.3223 415.819 48.2211C415.819 21.354 394.57 2.3326 364.492 2.3326H300.431V23.7369Z" fill="#EDEDED"/>
<path d="M555.269 29.4209L512.59 96.0076H484.928L539.708 10.7675L539.712 10.7607C543.255 5.31812 548.15 0.726593 555.763 0.726593C563.008 0.726593 567.892 4.91699 571.535 10.7381L624.929 96.0076H596.341L581.793 72.1046L581.764 72.063C579.641 68.9394 576.441 63.7986 573.686 59.3752L573.684 59.3704L572.81 57.9675L555.269 29.4209Z" fill="#EDEDED"/>
<path d="M825.285 23.7369H779.009V2.3326H895.306V23.7369H848.676V96.0076H825.285V23.7369Z" fill="#EDEDED"/>
<path d="M463.801 96.0076V2.3326H440.41V96.0076H463.801Z" fill="#EDEDED"/>
</svg>
