<svg width="74" height="74" viewBox="0 0 74 74" fill="none" xmlns="http://www.w3.org/2000/svg">
<path d="M47.8217 67.302C48.1589 67.6348 48.6045 67.8121 49.0783 67.8121H70.7862C71.188 67.8121 71.3891 67.3263 71.105 67.0423L31.0055 26.9542C30.6673 26.616 30.2086 26.4261 29.7303 26.4261H18.2528C14.1888 26.4261 12.1268 31.3077 14.9753 34.2063C23.8887 43.2765 38.5858 58.1845 47.8217 67.302Z" fill="white"/>
<path d="M37.1382 6H2.60251C2.19653 6 1.99605 6.4961 2.28522 6.78107C5.67292 10.1197 8.65454 13.5498 12.0465 16.9394C12.4293 17.3219 12.8121 17.7044 13.2714 18.0103C15.2619 19.4638 17.482 20.2288 20.0083 20.3053H43.2624C43.7218 20.3053 44.1811 20.3053 44.6404 20.3818C47.7026 20.9938 50.2289 24.0538 49.5399 27.7257C49.0217 30.537 46.5703 32.6329 43.709 32.7678C43.4984 32.7777 43.4023 33.0326 43.5514 33.1816L53.5951 43.2224C53.9929 43.6201 54.5581 43.8338 55.1087 43.7183C55.1156 43.7169 55.1222 43.7154 55.1285 43.714C56.3533 43.4845 57.5782 42.949 58.7266 42.337C60.5639 41.3426 62.2481 40.0421 63.5495 38.3591C65.9228 35.2226 67.3007 31.7802 67.5304 27.8787C67.6835 26.3487 67.607 24.8188 67.3773 23.3653C67.0711 21.4528 66.5352 19.6168 65.7696 17.8573C64.0854 14.1089 61.4825 11.1254 57.8845 8.98346C54.9754 7.30048 51.8366 6.45899 48.5447 6.153C47.6261 6.0765 46.784 6.0765 45.8653 6.0765C42.9563 6 40.0472 6 37.1382 6Z" fill="white"/>
</svg>
