<svg width="128" height="128" viewBox="0 0 128 128" fill="none" xmlns="http://www.w3.org/2000/svg">
<path d="M80.6944 110.885C81.2163 111.401 81.906 111.675 82.6393 111.675H116.24C116.861 111.675 117.173 110.923 116.733 110.483L54.6656 48.4336C54.1421 47.9102 53.4321 47.6162 52.6918 47.6162H34.9265C28.6362 47.6162 25.4445 55.1721 29.8534 59.6587C43.6499 73.6978 66.3987 96.773 80.6944 110.885Z" fill="#EDEDED"/>
<path d="M64.158 16H10.7025C10.0741 16 9.76376 16.7679 10.2113 17.209C15.4549 22.3766 20.07 27.6859 25.3203 32.9323C25.9127 33.5244 26.5052 34.1164 27.2162 34.59C30.297 36.8398 33.7334 38.0239 37.6437 38.1423H73.6373C74.3483 38.1423 75.0593 38.1423 75.7702 38.2607C80.51 39.208 84.4204 43.9443 83.3539 49.6279C82.5517 53.9793 78.7573 57.2233 74.3285 57.4321C74.0026 57.4475 73.8539 57.842 74.0846 58.0727L89.6305 73.6142C90.2463 74.2298 91.1212 74.5604 91.9733 74.3817C91.9841 74.3795 91.9943 74.3773 92.004 74.3751C93.8999 74.0199 95.7958 73.191 97.5733 72.2438C100.417 70.7045 103.024 68.6915 105.038 66.0866C108.712 61.2318 110.845 55.9035 111.2 49.8647C111.437 47.4965 111.319 45.1284 110.963 42.8786C110.489 39.9184 109.66 37.0766 108.475 34.3532C105.868 28.5512 101.839 23.9333 96.2698 20.6179C91.767 18.0129 86.9088 16.7104 81.8135 16.2368C80.3915 16.1184 79.0881 16.1184 77.6661 16.1184C73.1634 16 68.6607 16 64.158 16Z" fill="#EDEDED"/>
</svg>
