<svg width="176" height="34" viewBox="0 0 176 34" fill="none" xmlns="http://www.w3.org/2000/svg">
<path d="M44 26.9137L47.306 7H55.5321C57.023 7 58.2676 7.26902 59.2659 7.80705C60.2642 8.3386 60.974 9.10352 61.3954 10.1018C61.8167 11.0936 61.9139 12.2701 61.6871 13.6314C61.4667 15.0057 60.974 16.1758 60.2091 17.1416C59.4507 18.101 58.4718 18.8335 57.2726 19.3391C56.0798 19.8448 54.725 20.0976 53.2082 20.0976H48.0061L48.6478 16.3054H52.9554C53.6749 16.3054 54.2972 16.2114 54.8223 16.0234C55.3473 15.8289 55.7654 15.5372 56.0766 15.1483C56.3942 14.7529 56.6049 14.2473 56.7086 13.6314C56.8059 13.0156 56.7605 12.5067 56.5725 12.1048C56.391 11.6965 56.0701 11.3918 55.6099 11.1908C55.1561 10.9834 54.5727 10.8797 53.8596 10.8797H51.4871L48.8131 26.9137H44ZM56.7183 17.8125L60.1702 26.9137H54.9195L51.5746 17.8125H56.7183Z" fill="#EDEDED"/>
<path d="M67.1985 26.9137H62.0256L72.0506 7H78.4584L81.8713 26.9137H76.6984L74.5106 12.0173H74.355L67.1985 26.9137ZM67.8208 19.0766H78.6334L78.0111 22.7326H67.1985L67.8208 19.0766Z" fill="#EDEDED"/>
<path d="M92.0306 26.9137H84.563L87.869 7H95.113C97.1355 7 98.8209 7.41163 100.169 8.23489C101.524 9.05166 102.48 10.225 103.038 11.7548C103.602 13.2781 103.709 15.0932 103.359 17.2C103.021 19.2354 102.344 20.9792 101.326 22.4312C100.315 23.8833 99.0186 24.995 97.4369 25.7664C95.8552 26.5313 94.0531 26.9137 92.0306 26.9137ZM90.047 22.8104H92.3321C93.447 22.8104 94.4323 22.6095 95.288 22.2076C96.1502 21.7992 96.8632 21.1477 97.4272 20.2531C97.9911 19.3521 98.393 18.1691 98.6329 16.7041C98.8662 15.3039 98.8565 14.1986 98.6037 13.3883C98.3574 12.5716 97.8777 11.9882 97.1646 11.6381C96.4581 11.2816 95.5343 11.1033 94.3934 11.1033H92.0015L90.047 22.8104Z" fill="#EDEDED"/>
<path d="M113.231 7L109.925 26.9137H105.112L108.418 7H113.231Z" fill="#EDEDED"/>
<path d="M117.802 26.9137H112.629L122.654 7H129.062L132.474 26.9137H127.302L125.114 12.0173H124.958L117.802 26.9137ZM118.424 19.0766H129.237L128.614 22.7326H117.802L118.424 19.0766Z" fill="#EDEDED"/>
<path d="M155.42 7L152.114 26.9137H148.03L142.031 15.4206H141.895L139.979 26.9137H135.166L138.472 7H142.614L148.565 18.4737H148.73L150.617 7H155.42Z" fill="#EDEDED"/>
<path d="M157.682 10.9089L158.343 7H175.174L174.513 10.9089H168.475L165.83 26.9137H161.085L163.73 10.9089H157.682Z" fill="#EDEDED"/>
<path d="M26.4328 30.1215C23.7607 32.0834 20.4623 33.2422 16.8933 33.2422C7.98205 33.2422 0.758057 26.0182 0.758057 17.1069C0.758057 14.9687 1.17397 12.9276 1.92931 11.0602L2.77533 11.9062C2.17809 13.5269 1.85197 15.2788 1.85197 17.1069C1.85197 25.414 8.5862 32.1482 16.8933 32.1482C20.1598 32.1482 23.1832 31.107 25.6495 29.3382L26.4328 30.1215Z" fill="#EDEDED"/>
<path d="M28.2601 28.5586C31.205 25.6354 33.0285 21.5841 33.0285 17.1069C33.0285 8.19567 25.8045 0.97168 16.8933 0.97168C11.1444 0.97168 6.09772 3.97823 3.23986 8.50475L4.03447 9.29936C6.67354 4.96219 11.4451 2.06559 16.8933 2.06559C25.2004 2.06559 31.9346 8.79982 31.9346 17.1069C31.9346 21.2821 30.2335 25.0599 27.4866 27.7851L28.2601 28.5586Z" fill="#EDEDED"/>
<path d="M19.6997 32.2193C19.8374 32.3552 20.0194 32.4276 20.2129 32.4276H29.0795C29.2436 32.4276 29.3258 32.2292 29.2097 32.1132L12.8312 15.7393C12.693 15.6012 12.5057 15.5236 12.3103 15.5236H7.62236C5.96245 15.5236 5.12021 17.5175 6.28366 18.7014C9.92431 22.4061 15.9273 28.4953 19.6997 32.2193Z" fill="#EDEDED"/>
<path d="M15.3361 7.18066H1.23004C1.06422 7.18066 0.982338 7.38329 1.10045 7.49969C2.48414 8.86334 3.70198 10.2644 5.08743 11.6488C5.24377 11.805 5.40012 11.9613 5.58773 12.0863C6.40072 12.6799 7.30751 12.9924 8.33938 13.0236H17.8375C18.0251 13.0236 18.2127 13.0236 18.4003 13.0549C19.6511 13.3048 20.6829 14.5547 20.4015 16.0545C20.1898 17.2027 19.1885 18.0588 18.0199 18.1139C17.9339 18.1179 17.8946 18.2221 17.9555 18.2829L22.0578 22.3841C22.2203 22.5465 22.4512 22.6338 22.676 22.5866C22.6789 22.586 22.6816 22.5854 22.6841 22.5849C23.1844 22.4911 23.6847 22.2724 24.1538 22.0224C24.9042 21.6162 25.5921 21.0851 26.1237 20.3976C27.093 19.1166 27.6559 17.7105 27.7497 16.117C27.8122 15.4921 27.7809 14.8671 27.6871 14.2735C27.5621 13.4923 27.3432 12.7424 27.0305 12.0238C26.3426 10.4927 25.2794 9.27413 23.8098 8.39925C22.6216 7.71184 21.3396 7.36814 19.995 7.24316C19.6198 7.21191 19.2758 7.21191 18.9006 7.21191C17.7124 7.18066 16.5242 7.18066 15.3361 7.18066Z" fill="#EDEDED"/>
</svg>
