<svg width="74" height="74" viewBox="0 0 74 74" fill="none" xmlns="http://www.w3.org/2000/svg">
<g clip-path="url(#clip0_714_43)">
<path fill-rule="evenodd" clip-rule="evenodd" d="M16.4439 6.23562C22.5285 2.17001 29.6821 0 37 0C46.813 0 56.2241 3.8982 63.163 10.837C70.1018 17.7759 74 27.187 74 37C74 44.3179 71.83 51.4715 67.7644 57.5561C63.6988 63.6407 57.9202 68.3831 51.1593 71.1835C44.3984 73.984 36.959 74.7167 29.7817 73.2891C22.6044 71.8614 16.0116 68.3375 10.8371 63.163C5.66252 57.9884 2.13861 51.3956 0.710961 44.2183C-0.716692 37.041 0.0160317 29.6016 2.81647 22.8407C5.61692 16.0798 10.3593 10.3012 16.4439 6.23562ZM35.18 16H10.8694C10.5605 16 10.4079 16.3775 10.6279 16.5943C11.9762 17.9231 13.24 19.2709 14.5081 20.6234C15.6642 21.8564 16.8242 23.0935 18.0549 24.3233C18.3462 24.6144 18.6374 24.9054 18.9869 25.1382C20.5014 26.2441 22.1905 26.8262 24.1127 26.8844H39.8396C40.1891 26.8844 40.5386 26.8844 40.8881 26.9426C43.218 27.4082 45.1402 29.7364 44.616 32.5303C44.2217 34.6693 42.3565 36.2639 40.1794 36.3666C40.0192 36.3741 39.9461 36.5681 40.0595 36.6814L47.7014 44.3211C48.004 44.6237 48.4341 44.7862 48.853 44.6984L48.8681 44.6952C49.8 44.5205 50.732 44.1131 51.6057 43.6475C53.0037 42.8908 54.2851 41.9013 55.2753 40.6208C57.081 38.2344 58.1295 35.6151 58.3042 32.6467C58.4207 31.4826 58.3625 30.3185 58.1877 29.2126C57.9547 27.7574 57.547 26.3605 56.9645 25.0218C55.6831 22.1697 53.7026 19.8997 50.965 18.27C48.7516 16.9895 46.3634 16.3492 43.8588 16.1164C43.1598 16.0582 42.5191 16.0582 41.8201 16.0582C39.6067 16 37.3933 16 35.18 16ZM41.8338 62.6402C42.0903 62.8935 42.4293 63.0283 42.7898 63.0283H59.3065C59.6122 63.0283 59.7653 62.6587 59.5491 62.4426L29.0389 31.9411C28.7816 31.6839 28.4326 31.5393 28.0687 31.5393H19.3359C16.2438 31.5393 14.6749 35.2536 16.8422 37.459C23.624 44.3601 34.8065 55.7031 41.8338 62.6402Z" fill="white"/>
</g>
<defs>
<clipPath id="clip0_714_43">
<rect width="74" height="74" fill="white"/>
</clipPath>
</defs>
</svg>
