<svg fill="none" height="34" viewBox="0 0 34 34" width="34" xmlns="http://www.w3.org/2000/svg"><path d="m32.262 17.3443c-.0692-1.8685-1.6378-3.3276-3.5121-3.2641-.8305.0288-1.6205.3691-2.2203.94-2.6413-1.7993-5.744-2.7855-8.9332-2.8547l1.5052-7.23762 4.9655 1.04384c.1384 1.27452 1.2802 2.19724 2.5548 2.05883 1.2745-.13841 2.1972-1.28028 2.0588-2.5548-.1384-1.27451-1.2803-2.19724-2.5548-2.05883-.7324.07497-1.3899.50173-1.7532 1.13611l-5.6863-1.13611c-.3864-.08651-.7728.15571-.8593.54787v.01153l-1.7128 8.05078c-3.2295.0519-6.37259 1.0439-9.0485 2.8547-1.36102-1.2803-3.50636-1.2168-4.78664.1499-1.280288 1.3611-1.21685 3.5064.14994 4.7867.26528.248.57094.4614.91119.6113-.02307.3403-.02307.6805 0 1.0208 0 5.1961 6.0554 9.4233 13.52371 9.4233 7.4683 0 13.5237-4.2215 13.5237-9.4233.0231-.3403.0231-.6805 0-1.0208 1.165-.5825 1.8974-1.782 1.8743-3.0854zm-23.2008 2.3241c0-1.2802 1.0438-2.3241 2.3241-2.3241s2.3241 1.0439 2.3241 2.3241c0 1.2803-1.0438 2.3242-2.3241 2.3242-1.286-.0116-2.3241-1.0439-2.3241-2.3242zm13.4776 6.3784c-1.6494 1.2399-3.6679 1.8743-5.7325 1.7878-2.0646.0865-4.083-.5479-5.7324-1.7878-.2191-.2653-.1788-.6632.0865-.8824.2307-.1903.5594-.1903.7959 0 1.3956 1.0208 3.0969 1.5398 4.827 1.4591 1.7301.0923 3.4371-.4037 4.8501-1.4129.2537-.248.6689-.2422.9169.0115.248.2538.2422.5767-.0115.8247zm-.4152-3.9735c-1.2803 0-2.3242-1.0438-2.3242-2.3241s1.0439-2.3241 2.3242-2.3241c1.2802 0 2.3241 1.0438 2.3241 2.3241.0519 1.2803-.9285 2.2722-2.2088 2.3241-.0404 0-.075 0-.1153 0z" fill="#fff"/></svg>