<svg width="128" height="128" viewBox="0 0 128 128" fill="none" xmlns="http://www.w3.org/2000/svg">
<path d="M123 63.9999C123 80.3712 116.332 95.1851 105.564 105.874L102.736 103.046C112.78 93.0806 119 79.2666 119 63.9999C119 33.6243 94.3759 8.99999 64.0004 8.99999C47.5341 8.99999 32.758 16.2361 22.6783 27.7018H58.3059C62.6507 27.7018 66.9954 27.7018 71.3401 27.816C72.7121 27.816 73.9698 27.816 75.3419 27.9303C80.2583 28.3873 84.9461 29.6441 89.2909 32.1576C94.6648 35.3567 98.5522 39.8126 101.068 45.411C102.211 48.0388 103.011 50.7809 103.469 53.6372C103.812 55.808 103.926 58.0931 103.697 60.3781C103.354 66.205 101.296 71.3464 97.7519 76.0308C95.8081 78.5444 93.2927 80.4867 90.5486 81.972C88.8336 82.886 87.0042 83.6858 85.1748 84.0285L85.1452 84.0349C84.323 84.2073 83.4788 83.8883 82.8846 83.2943L67.8842 68.2981C67.6616 68.0756 67.8051 67.6948 68.1196 67.68C72.3929 67.4785 76.0542 64.3484 76.8282 60.1496C77.8573 54.6655 74.0841 50.0954 69.5107 49.1813C68.8247 49.0671 68.1386 49.0671 67.4526 49.0671H32.722C28.9489 48.9528 25.6331 47.8103 22.6604 45.6395C21.9744 45.1825 21.4027 44.6112 20.831 44.0399C18.4149 41.6257 16.1383 39.1976 13.8688 36.7771C11.3795 34.1223 8.89886 31.4766 6.25224 28.8683C5.82037 28.4427 6.11978 27.7018 6.72613 27.7018H17.4843C28.2826 13.8834 45.1041 5 64.0004 5C96.5851 5 123 31.4151 123 63.9999Z" fill="white"/>
<path d="M73.2222 118.23C59.3857 104.543 38.1877 83.0394 25.2051 69.8284C20.9508 65.4993 24.0306 58.2086 30.1002 58.2086H47.2421C47.9564 58.2086 48.6415 58.4923 49.1466 58.9973L109.036 118.87C109.46 119.294 109.16 120.019 108.56 120.019H82.5657C76.7282 121.953 70.4865 123 64.0004 123C31.4156 123 5.00049 96.5846 5.00049 63.9999C5.00049 56.1813 6.52131 48.7179 9.28327 41.8895L12.3768 44.983C10.193 50.9094 9.00048 57.3154 9.00048 63.9999C9.00048 94.3755 33.6248 119 64.0004 119C67.1428 119 70.2237 118.736 73.2222 118.23Z" fill="white"/>
</svg>
