<svg width="74" height="74" viewBox="0 0 74 74" fill="none" xmlns="http://www.w3.org/2000/svg"><path d="M70 36.9998C70 46.1566 66.2705 54.4423 60.2476 60.4208L58.6656 58.8388C64.2836 53.2652 67.7627 45.5388 67.7627 36.9998C67.7627 20.0101 53.9899 6.23727 37.0002 6.23727C27.7897 6.23727 19.5245 10.2851 13.8868 16.699H33.8158C36.2458 16.699 38.6759 16.699 41.106 16.7629C41.8734 16.7629 42.5769 16.7629 43.3443 16.8268C46.0942 17.0824 48.7161 17.7853 51.1463 19.1912C54.152 20.9805 56.3263 23.4728 57.7332 26.6041C58.3727 28.0739 58.8204 29.6076 59.0762 31.2052C59.268 32.4193 59.332 33.6974 59.2041 34.9755C59.0122 38.2346 57.8611 41.1103 55.8786 43.7303C54.7915 45.1362 53.3845 46.2226 51.8497 47.0533C50.8905 47.5646 49.8673 48.0119 48.844 48.2036C48.8388 48.2048 48.8333 48.206 48.8275 48.2072C48.3676 48.3036 47.8954 48.1252 47.5631 47.7929L39.1731 39.4053C39.0485 39.2808 39.1288 39.0679 39.3047 39.0596C41.6949 38.9469 43.7427 37.1961 44.1756 34.8477C44.7512 31.7803 42.6408 29.2241 40.0828 28.7129C39.6991 28.649 39.3154 28.649 38.9317 28.649H19.5062C17.3958 28.5851 15.5412 27.9461 13.8785 26.7319C13.4948 26.4763 13.1751 26.1567 12.8553 25.8372C11.504 24.4869 10.2306 23.1288 8.96122 21.775C7.56894 20.2901 6.18143 18.8103 4.70113 17.3514C4.45957 17.1134 4.62704 16.699 4.96618 16.699H10.9818C17.0214 8.96926 26.4305 4 37.0002 4C55.2255 4 70 18.7745 70 36.9998Z" fill="white"/><path d="M42.1574 67.3318C34.4184 59.6762 22.5628 47.65 15.3018 40.2612C12.9223 37.8399 14.6449 33.762 18.0397 33.762H27.6275C28.0271 33.762 28.4102 33.9207 28.6928 34.2032L62.1901 67.691C62.4275 67.9283 62.2594 68.334 61.9238 68.334H47.3799C44.1161 69.4146 40.6265 69.9995 37.0002 69.9995C18.775 69.9995 4.00049 55.225 4.00049 36.9998C4.00049 32.6267 4.85111 28.4523 6.39593 24.633L8.12621 26.3633C6.90474 29.678 6.23776 33.261 6.23776 36.9998C6.23776 53.9894 20.0106 67.7622 37.0002 67.7622C38.7576 67.7622 40.4805 67.6149 42.1574 67.3318Z" fill="white"/></svg>
