<svg width="74" height="74" viewBox="0 0 74 74" fill="none" xmlns="http://www.w3.org/2000/svg">
<path fill-rule="evenodd" clip-rule="evenodd" d="M51.0063 4.23318C52.1287 5.35969 53.0181 6.69624 53.6239 8.16651L53.6216 8.17112C54.5341 10.3862 54.7725 12.8214 54.3068 15.1713C53.8412 17.5213 52.6922 19.6816 51.004 21.3813L49.6919 22.7011C50.5394 22.5338 51.4018 22.4535 52.2657 22.4615C54.2128 22.4615 55.8672 22.6504 57.5171 23.1297C60.3953 23.7558 62.968 25.3589 64.7984 27.6667C64.7187 27.6314 64.781 27.6667 64.7712 27.6558C66.9142 30.0637 67.8958 33.1329 67.8958 36.3197C67.8973 39.8622 66.4964 43.2613 63.9993 45.774L40.0398 69.8394C38.8343 71.054 37.4002 72.018 35.8202 72.6757C34.2403 73.3334 32.5458 73.6718 30.8344 73.6714C29.1235 73.669 27.4298 73.3293 25.8502 72.6718C24.2707 72.0143 22.8363 71.0518 21.629 69.8394C19.7576 67.9544 18.5018 65.5461 18.0275 62.9326C17.5532 60.3194 17.8825 57.6238 18.9718 55.2016C16.4682 54.4191 14.1376 53.1206 12.1385 51.371C11.9242 51.2004 11.7214 51.0184 11.5278 50.8272L11.3158 50.6059L11.1085 50.4055C7.75292 46.8124 5.92168 42.058 5.99997 37.1423C6.07554 32.226 8.05556 27.5308 11.5232 24.045L31.2475 4.23318C32.541 2.92946 34.0799 1.89478 35.7753 1.18884C37.4708 0.482901 39.2892 0.119674 41.1258 0.120118C42.9623 0.122274 44.7803 0.486677 46.4757 1.19246C48.1712 1.89824 49.7108 2.93154 51.0063 4.23318Z" fill="#0F75FC"/>
<path d="M18.9722 55.2006C17.8826 57.6231 17.5532 60.319 18.0275 62.9326C18.5018 65.5461 19.7576 67.9544 21.629 69.8394C22.8363 71.0518 24.2707 72.0143 25.8502 72.6718C27.4298 73.3293 29.1235 73.669 30.8344 73.6714C32.5458 73.6718 34.2403 73.3334 35.8202 72.6757C37.4002 72.018 38.8343 71.054 40.0398 69.8394L63.9993 45.774C66.4964 43.2613 67.8973 39.8622 67.8958 36.3197C67.8958 33.1329 66.9142 30.0637 64.7712 27.6558C63.7136 27.1972 62.5453 27.0567 61.4139 27.2709C60.4001 27.4622 59.4715 28.0659 58.6996 28.7756L35.9406 52.2397C35.5189 52.6775 35.0327 53.0415 34.5051 53.3204C34.7846 53.1469 35.0597 52.9663 35.33 52.7789L35.2609 52.8065L35.33 52.7604L35.3991 52.7143L35.2609 52.8065C32.9004 54.4043 30.2101 55.4494 27.3901 55.8643C24.5701 56.2792 21.6928 56.0508 18.9722 55.2006Z" fill="#0044C9"/>
<path d="M35.2627 52.8083L35.3987 52.7138C34.5242 53.0701 33.5741 53.2008 32.6359 53.0937C31.6977 52.9866 30.8015 52.6451 30.0298 52.1009C29.3432 51.6152 28.7706 50.9858 28.352 50.2564C27.9334 49.5269 27.6787 48.7151 27.6058 47.8772C27.5315 47.039 27.6396 46.1947 27.9229 45.4023C28.2061 44.61 28.6576 43.8883 29.2464 43.2872L36.8204 35.6094L47.8853 24.4961L47.9314 24.4546C47.9621 24.4276 47.9937 24.4015 48.0259 24.3763L49.6919 22.7011C50.5394 22.5338 51.4018 22.4535 52.2657 22.4615C54.2128 22.4615 55.8672 22.6504 57.5171 23.1297C60.3953 23.7558 62.968 25.3589 64.7984 27.6667C63.7359 27.1963 62.556 27.0581 61.4135 27.2704C60.3997 27.4617 59.4733 28.0654 58.7014 28.7751L35.9425 52.2391C35.5185 52.6769 35.0346 53.041 34.5046 53.3198C34.7843 53.1465 35.0593 52.9659 35.3296 52.7783L35.2604 52.806L35.2627 52.8083Z" fill="#0038C7"/>
<path d="M53.6239 8.16651C53.0181 6.69624 52.1287 5.35969 51.0063 4.23318C49.7108 2.93154 48.1712 1.89824 46.4757 1.19246C44.7803 0.486676 42.9623 0.122274 41.1258 0.120118C39.2892 0.119674 37.4708 0.4829 35.7753 1.18884C34.0799 1.89478 32.541 2.92946 31.2475 4.23318L11.5232 24.045C8.05556 27.5308 6.07554 32.226 5.99997 37.1423C5.92168 42.058 7.75292 46.8124 11.1085 50.4055L11.3158 50.6059L11.5278 50.8272C11.7214 51.0184 11.9242 51.2004 12.1385 51.371C15.3137 54.15 19.3251 55.7908 23.5378 56.0337C27.7504 56.2766 31.9238 55.1077 35.3974 52.712C34.5231 53.0687 33.5731 53.1997 32.6349 53.093C31.6967 52.9863 30.8004 52.6453 30.0286 52.1014C29.342 51.6156 28.7696 50.9862 28.3509 50.2568C27.9323 49.5274 27.6776 48.7155 27.6045 47.8777C27.5299 47.0397 27.6377 46.1955 27.9205 45.4031C28.2034 44.6108 28.6545 43.8891 29.2428 43.2877L36.8191 35.61L47.8841 24.4943C47.9302 24.4552 47.9763 24.4137 48.0246 24.3768L51.004 21.3813C52.6922 19.6816 53.8412 17.5213 54.3068 15.1713C54.7725 12.8214 54.5341 10.3862 53.6216 8.17112L53.6239 8.16651Z" fill="#0F75FC"/>
</svg>
