<svg width="74" height="74" viewBox="0 0 74 74" fill="none" xmlns="http://www.w3.org/2000/svg">
<path fill-rule="evenodd" clip-rule="evenodd" d="M23.537 5H50.0094C54.1851 5 56.2711 5 57.868 5.81416C59.2727 6.52349 60.4083 7.66611 61.1246 9.0673C61.9388 10.6642 61.9388 12.7502 61.9388 16.9259V21.3531H11.6077V16.9259C11.6077 12.7502 11.6077 10.6642 12.4218 9.0673C13.1312 7.66611 14.2738 6.52699 15.6785 5.81416C17.2753 5 19.3614 5 23.537 5ZM61.9423 36.3124H45.1629L45.1699 38.6361V69.0186H50.0129C54.1886 69.0186 56.2746 69.0186 57.875 68.2044C59.2727 67.4951 60.4118 66.3525 61.1281 64.9513C61.9423 63.3544 61.9423 61.2684 61.9423 57.0892V36.3124ZM28.3801 36.4482H11.6077V57.2285C11.6077 61.4041 11.6077 63.4902 12.4218 65.0836C13.1381 66.4883 14.2738 67.6309 15.6785 68.3402C17.2753 69.1544 19.3614 69.1544 23.537 69.1544H28.3801V36.4482Z" fill="white"/>
</svg>
