<svg fill="none" height="34" viewBox="0 0 34 34" width="34" xmlns="http://www.w3.org/2000/svg"><path clip-rule="evenodd" d="m29.0438 5.18549c1.6813-.70791 3.4837.71377 3.1868 2.5137l-3.5064 21.25981c-.3381 2.0499-2.5895 3.2261-4.4701 2.2046-1.5737-.8548-3.9085-2.1704-6.0127-3.5454-1.0508-.6866-4.2682-2.8882-3.8727-4.4554.3381-1.34 5.7469-6.3748 8.8378-9.3691 1.214-1.1762.6611-1.8556-.7727-.7727-3.557 2.6864-9.2676 6.7708-11.156 7.9203-1.66617 1.0141-2.53611 1.1872-3.57378 1.0141-1.89488-.3158-3.65167-.8047-5.08594-1.3993-1.938523-.8036-1.844098-3.4676-.00131-4.2434z" fill="#fff" fill-rule="evenodd"/></svg>