<svg fill="none" height="74" viewBox="0 0 74 74" width="74" xmlns="http://www.w3.org/2000/svg"><g fill="#34a76a"><path d="m68.2005 3.26466c0 .39087-.0698.85153-.1815 1.45179-.0558.22336-.1256.64215-.1675.90738-.3909 2.35917-2.0521 6.15617-3.6435 8.37577-1.0051 1.3959-2.8756 3.3782-4.0203 4.2716-.3769.2932-.7259.5863-.7678.6282-.1536.1536-2.4709 1.6472-3.0432 1.9404-.3211.1675-.6142.3629-.6561.4188-.0419.0558-.0977 1.1307-.1256 2.3871-.028 1.2563-.0978 2.5127-.1536 2.7779-.1815.9772-.7678 3.4201-.8934 3.6993-.0698.1536-.3211.7817-.5584 1.396-1.6472 4.2297-5.0673 8.3757-9.0877 10.9862-2.6244 1.703-6.5191 3.1967-9.2412 3.5597-.5305.0698-.6701.1396-.7957.4467-2.9734 7.7196-5.193 11.4189-9.0738 15.1182-2.1497 2.0521-5.9886 4.6904-8.1105 5.5559-.1954.0698-.4467.1955-.5584.2792-.321.2094-2.066.9772-3.0711 1.3541l-.9073.335 2.3033-.0837c1.2703-.0559 2.5267-.1117 2.7919-.1396.2652-.014 1.0609-.0838 1.745-.1257.6979-.0558 1.4518-.1116 1.6751-.1396.2373-.0279.8655-.0977 1.396-.1396.5444-.0558 1.0749-.1256 1.1865-.1535.1117-.0279.6422-.0838 1.1587-.1396.5165-.0419 1.0609-.1117 1.2145-.1396.1396-.0279.5583-.0977.9353-.1396.6281-.0977 3.4201-.5584 4.0203-.684 1.8566-.3769 3.2247-.684 3.2945-.7259.0558-.0279.3071-.0838.5723-.1257.2792-.0418 1.4937-.3629 2.7082-.7119 2.6523-.7538 2.4569-.698 2.7081-.7957.1117-.0419.9353-.335 1.8148-.6421.8794-.3071 1.8566-.6701 2.1637-.7957.3071-.1396.6282-.2653.698-.2792.335-.0698 1.5495-.6701 1.6193-.7818.0559-.0837.0419-.335-.0279-.5863-.1396-.5304-.5444-2.5127-.6421-3.085-.028-.2373-.1117-.6422-.1815-.9074s-.1675-.7399-.2094-1.047c-.0559-.3071-.1117-.6561-.1396-.7678-.1675-.5583-.9074-4.2437-.8655-4.2716.0279-.0419 2.3452 2.6663 4.2856 5.0115.1954.2373.7259.8655 1.1866 1.4099.4606.5445.9771 1.1726 1.1446 1.396l.3072.3909.8096-.4607c.4467-.2513.8795-.5165.9493-.5724.0837-.0698.7398-.5304 1.4657-1.033 2.8478-1.9822 5.877-4.83 7.943-7.4544.6282-.8096 1.2424-1.5774 1.3541-1.717.1117-.1257.1954-.2652.1954-.2932 0-.0279.3211-.5165.698-1.1028s.698-1.1167.698-1.1726c0-.1117-.7119-.9772-2.1637-2.6244-.7399-.8376-1.0749-1.2145-1.6333-1.8845-.1675-.1955-.684-.7957-1.1447-1.3262-.4607-.5444-.9213-1.0749-1.019-1.2005-.1257-.1396.8655.0837 3.1409.7398 1.8147.5305 3.4061.9912 3.5317 1.0191.1117.0279.5305.1396.9214.2513l.7119.2094.2094-.5026c.6003-1.4099 1.5495-4.5927 1.9125-6.3795.0698-.3909.1535-.8236.1954-.9772.0558-.3071.1954-1.1586.2932-1.8147.0279-.2373.0837-.6143.1256-.8376.0558-.4048.1954-1.7589.3071-3.0013.0558-.8097.0558-6.575 0-7.3986-.0419-.349-.0977-1.1307-.1536-1.745-.0977-1.2284-.1256-1.5774-.2791-2.7221-.1257-.9911-.1536-1.2284-.2653-1.8147-.0419-.2653-.1117-.7399-.1535-1.047-.2792-2.1218-2.08-9.79962-2.3592-10.07882-.0419-.05583-.0838.0698-.0977.25128z"/><path d="m4.92166 3.7672c-.01396.01396-.5165.04188-1.10281.05584-.60026.01396-1.11676.08376-1.15864.1396-.04188.0698.01396.12563.12563.12563.53047 0 4.35539 1.80079 6.26786 2.95944 1.8845 1.14468 3.3782 2.28937 4.8579 3.74119 1.5496 1.5355 1.745 1.7728 2.764 3.2805 1.745 2.6104 2.7082 5.4582 2.8897 8.641.0279.4467.0698.8236.0977.8375.0279.028.67.377 1.4378.7818 1.4518.7678 4.1739 2.5127 4.8719 3.1409.2234.1954.4607.349.5165.349.1955 0 3.5597 3.4201 4.2158 4.2856 2.443 3.2107 3.811 6.7285 4.2019 10.7209.0279.3769.0698.712.0698.7399.0279.0838 1.1307-.1256 2.1637-.3909 2.5546-.67 6.1841-2.5127 8.2082-4.1599 3.4201-2.7919 5.542-5.7793 6.7565-9.5205.6561-2.066.9353-3.8389.9492-6.1282l.014-1.3122-.3909-.0419c-.2233-.014-.8236-.0698-1.3261-.1117-1.382-.1256-3.4062-.3909-4.4252-.5863-.1536-.0279-.4607-.0977-.698-.1396-.2234-.0419-.698-.1396-1.047-.2094-.349-.0837-.7398-.1675-.8655-.1954-1.1586-.2373-4.4112-1.2703-5.4861-1.745-.3071-.1396-.9632-.4188-1.4658-.6421-3.0711-1.3401-5.3744-2.7919-11.3212-7.1892-1.5076-1.1028-2.8477-2.09393-3.0013-2.19165-5.6815-3.72721-10.1067-5.10921-16.70962-5.23485-.75382-.01396-1.39596-.01396-1.40992 0z"/><path d="m31.1098 9.65815-1.4238 2.07995.5304.4188c1.1587.9214 3.6993 2.4709 5.5839 3.4062 2.3312 1.1726 1.9404 1.2982 3.5876-1.1168l1.0749-1.5774-.3909-.5165c-.3909-.5445-1.9962-2.1498-2.5825-2.58257-1.1866-.90737-3.9645-2.17769-4.7463-2.19165-.1256 0-.8096.87945-1.6333 2.07997z"/><path d="m14.4002 34.1991c-3.0711 4.509-6.33763 9.3111-7.24501 10.6512-.92133 1.3401-2.52668 3.7132-3.60157 5.2767l-1.92642 2.8338v8.3897c0 5.891.04188 8.3618.15355 8.2501.1396-.1396 2.01018-2.8617 5.06733-7.3706 1.61932-2.4011 3.62952-5.3466 13.26162-19.4876l7.5242-11.056-1.033-1.0191c-.5723-.5583-1.4658-1.354-2.0102-1.7589-.5304-.4048-1.0051-.7817-1.0469-.8236-.1536-.1675-3.0153-1.9125-3.2805-1.9962-.2513-.0698-.9912.9353-5.8631 8.1105z"/></g></svg>