<svg fill="none" height="74" viewBox="0 0 74 74" width="74" xmlns="http://www.w3.org/2000/svg"><path clip-rule="evenodd" d="m9.26807 7.93396c-.37581.04818-.71308.12527-.76126.17345-.05782.05782-.14454.09636-.20236.09636-.06745 0-.41436.13491-.78054.29873-.36617.17345-.96362.51072-1.33943.7709-.37582.25054-.94436.7324-1.26235 1.0696-.32763.3373-.80945.9347-1.07926 1.3298-.26018.3951-.5589.9155-.6649 1.1564s-.24091.5685-.28909.7227c-.05782.1542-.16381.5107-.2409.7709-.106.3951-.12527 4.4327-.12527 22.9824 0 18.6461.01927 22.5874.1349 22.9825.06746.2698.24091.7805.37582 1.1563.1349.3758.42399.9636.63599 1.3202.22163.3565.61672.9058.88653 1.2045.26018.3084.78054.7709 1.15635 1.0407.36618.2602.94435.6167 1.29126.7806.3469.1734.81908.3758 1.05998.4625.24091.0771.79981.1927 1.25271.2409.55891.0771 9.48205.106 27.94515.106 18.463 0 27.3862-.0289 27.945-.106.453-.0482 1.0119-.1638 1.2528-.2409.2409-.0867.713-.2891 1.0599-.4625.347-.1639.9251-.5204 1.2913-.7806.3758-.2698.8962-.7323 1.1564-1.0407.2698-.2987.6649-.848.8865-1.2045.212-.3566.5011-.9444.636-1.3202s.3083-.8865.3758-1.1563c.1156-.3951.1349-4.3364.1349-22.9825 0-18.5497-.0193-22.5873-.1253-22.9824-.0771-.2602-.1831-.6167-.2409-.7709-.0482-.1542-.1831-.4818-.2891-.7227s-.4047-.7613-.6649-1.1564c-.2698-.3951-.7516-.9925-1.0792-1.3298-.318-.3372-.8866-.81906-1.2624-1.0696-.3758-.26018-.9636-.59745-1.3298-.7709-.3565-.16382-.7034-.29873-.7612-.29873-.0675 0-.1735-.03854-.2217-.08672-.0482-.05782-.4625-.14455-.9154-.19273-.5589-.07709-9.3568-.106-27.9933-.09636-15.5818.00964-27.46328.04818-27.84873.106zm-.4143 5.50194c.17345-.0867.47217-.1927.65526-.2313.18309-.0385 12.77767-.0578 55.64927-.0385l.4047.2216c.2313.1157.5204.3566.6553.53.1253.1638.2987.5589.3855.8673.106.4047.1445 1.0407.1445 2.3801 0 1.5611-.0193 1.8309-.1445 1.8309-.0771 0-.2602-.0482-.4048-.106-.1541-.0578-.501-.1638-.7709-.2409-.4336-.1156-4.7314-.1349-28.1667-.1349s-27.7331.0193-28.15709.1349c-.27945.0771-.62636.1831-.7709.2409-.15418.0578-.33727.106-.41436.106-.12527 0-.14454-.2698-.14454-1.8309 0-1.3394.03854-1.9754.14454-2.3801.08673-.3084.26018-.7035.38545-.8673.13491-.1734.38545-.3951.54927-.4818zm-.06746 10.783c.212-.1349.57818-.2698.81908-.3084.24091-.0385 12.81621-.0674 55.45661-.0482l.4721.2409c.2602.1349.5782.3758.6938.53.1253.1638.2891.5686.3662.9155.106.4432.1542 1.137.1542 4.1436l-.212-.0386c-.1253-.0289-.5685-.1349-.9925-.2409-.7613-.1927-.9733-.1927-28.2824-.1927-27.3091 0-27.5211 0-28.28236.1927-.424.106-.86726.212-1.20453.2795v-1.7538c0-1.2238.04818-1.9466.14454-2.3609.07709-.3373.22164-.7227.30836-.8673.09636-.1349.34691-.3565.5589-.4914zm.57818 10.4264c-.15418.0578-.39509.1734-.53.2409-.1349.0771-.35654.2698-.50108.4336-.16382.1927-.318.5397-.41436.9733-.106.4914-.14454 1.06-.12527 2.12l.02891 1.4454c12.73911.0867 15.00361.1253 15.17711.2024.1349.0674.5011.183.819.2794.318.0867.8191.2795 1.1082.4144s.8962.5107 1.3395.8287c.4529.3276 1.0407.848 1.3201 1.166.2795.318.6264.7516.7709.9636.1446.212.5396.9251.8866 1.59.3372.6649.7516 1.3972.9154 1.6381s.5974.742.9733 1.1178c.3758.3758.925.8384 1.2141 1.0215s.7227.4432.9636.5781c.241.1253.6746.318.9637.4144.2891.0867.6263.2024.7516.2505.1156.0482.6553.135 1.2045.2024.7517.0867 1.2335.0867 2.0236 0 .5686-.0674 1.1275-.1542 1.2527-.2024.1157-.0481.453-.1638.742-.2505.2891-.0964.7228-.2891.9637-.4144.2409-.1349.6552-.3758.9154-.5492.2698-.1638.7613-.5589 1.0985-.8769.3373-.3084.7999-.8287 1.0311-1.1467.2217-.318.6746-1.0986 1.0022-1.7346.3276-.6359.7034-1.3298.848-1.5418.1349-.2119.4914-.6649.7902-1.0021.289-.3469.8287-.848 1.2045-1.1178s.8672-.6071 1.1081-.742c.241-.1349.7806-.3662 1.2046-.5011l.0353-.012c.4151-.1415.8748-.2982 1.0247-.3638.2023-.0771 2.4283-.1253 7.7571-.1638l7.4681-.0482c.0482-2.5054.0097-3.074-.0963-3.5654-.0964-.4336-.2506-.7806-.4144-.9733-.1445-.1638-.3662-.3565-.5011-.4336-.1349-.0675-.3951-.1831-.5782-.2506-.2698-.0963-5.8973-.1156-27.8969-.1156-20.5444.0096-27.63671.0386-27.84871.1253z" fill="#63686f" fill-rule="evenodd"/></svg>