<svg fill="none" height="72" viewBox="0 0 72 72" width="72" xmlns="http://www.w3.org/2000/svg"><path d="m70.8536 35.7215c0 19.3434-15.6884 35.047-35.0583 35.047-19.3547 0-35.045056-15.7036-35.045056-35.047 0-4.3427.786316-8.4808 2.226316-12.3044h7.53724l.1213.847 4.2196 32.0456c.072.6177.3619.9569.8223 1.1028.1572.036.3391.0606.5324.0606h7.7779c.6764 0 1.1615-.341 1.4286-.9189l11.6261-25.0314.2407 2.4556 2.2623 22.3313c.0852.6784.3751 1.0289.8962 1.1255.1194.0247.2274.0379.3619.0379h7.6206c.6783 0 1.26-.341 1.512-1.0042l15.6297-39.2589c.2653.4244.5229.8602.775 1.3206 2.9642 5.2441 4.5205 11.167 4.5132 17.1909z" fill="#3f92c5"/><g fill="#0f77b7"><path d="m10.514 23.419.1213.8451h-7.93706c.1099-.2786.23116-.5685.35053-.8451zm26.5282 8.1038.2426 2.4556-10.9838 23.9646c-.2653.6063-.7503.9569-1.4287.9569h-7.8138c-.7504 0-1.2582-.3506-1.3434-1.1994l-.036-.288c.1572.0379.3372.0587.5324.0587h7.7779c.3032.0112.6026-.0707.858-.2347.2554-.1639.4545-.402.5706-.6823l11.6261-25.0295zm29.3003-12.9922-15.4611 39.3404c-.2406.6783-.8337 1.0289-1.512 1.0289h-7.632c-.7503 0-1.1747-.3506-1.2714-1.1994l-.0227-.2653c.1213.0247.2274.0379.36.0379h7.6225c.6783 0 1.26-.341 1.512-1.0042l15.6316-39.2589c.2653.4244.5192.8602.7731 1.3206z"/><path d="m35.7953.663627c-11.1296 0-21.0353 5.187793-27.45849 13.282073h-.01137v.0133h9.38846c.18 0 .3619.0227.5191.0587.0745.0234.1473.0519.2179.0853.0683.0276.1301.0689.1819.1213.0493.0379.0966.0852.1326.1326s.072.0966.0948.1573c.0492.0492.0758.1098.0871.1818.036.0607.0607.1327.0701.2066.0133.0701.0379.144.0379.216l3.3386 25.5259.0132-.0114v.0246l.5552-1.2221v-.0132l11.3248-24.5445c.0903-.2096.2217-.3991.3865-.557.1022-.0968.2209-.1745.3506-.2293.0632-.0366.1325-.0616.2046-.0739.1549-.0387.314-.0584.4737-.0587h8.0924c.1228.0038.2446.0242.3619.0606.0739.0228.1459.0474.2084.0834.1957.1029.3457.2752.4207.4832.0163.0255.0255.0549.0265.0852.0163.0211.0244.0473.0227.0739.0133.0227.0133.0474.0247.0701.0246.0985.036.1952.0492.3032l2.2604 22.6838.6784-1.6807v-.0132l10.8019-26.96593c-6.3496-5.48314-14.465-8.493472-22.8544-8.478943z"/></g></svg>