<svg fill="none" height="74" viewBox="0 0 74 74" width="74" xmlns="http://www.w3.org/2000/svg"><path d="m1.20954 8.92535c.11375.34122 19.39276 24.64385 19.50656 24.60595.3412-.1138 4.4738-5.3648 4.3411-5.5354-.0758-.1138-2.199-2.8435-4.7013-6.0851-2.5212-3.2606-4.5875-5.9714-4.5875-6.0283s1.9525-.1137 4.36-.1137h4.3411l4.0757 5.0614 4.0757 5.0804-.6255.7583c-2.8056 3.4312-30.82377 38.596-30.82377 38.6719 0 .0568 6.04722.0947 13.42137.0947h13.4214l3.109-3.8671c1.7061-2.1042 3.071-3.9241 3.052-4.0189-.0758-.2275-4.2653-5.3648-4.379-5.3648-.0569 0-1.2701 1.4029-2.7108 3.1279l-2.6161 3.1089h-4.36c-2.6729 0-4.3411-.0758-4.3032-.1706.0379-.1137 5.5543-7.1277 12.284-15.5825 6.7296-8.4736 12.4546-15.7341 12.7579-16.1132l.5118-.7014-6.6728-8.5495-6.6917-8.54956h-13.4214c-7.81022 0-13.40247.07583-13.36456.17061z" fill="#ebbe5a"/><path d="m42.8955 12.584c-1.7062 2.1232-3.09 3.9241-3.09 3.9999.019.1896 4.2653 5.4216 4.398 5.4216.0568 0 1.2701-1.4028 2.7108-3.1278l2.616-3.1089h4.3601c2.6919 0 4.3411.0758 4.3032.1895-.019.0948-5.7629 7.4311-12.7579 16.3029-6.9761 8.8717-12.7011 16.208-12.7011 16.3028 0 .0758 2.9762 3.9051 6.6349 8.5116l6.6349 8.3599h13.4214c7.8102 0 13.4024-.0758 13.3645-.1706-.1137-.3412-19.3928-24.6438-19.5065-24.6059-.3412.1138-4.4738 5.3648-4.3411 5.5354.0758.0948 2.199 2.8435 4.7013 6.0851 2.5212 3.2606 4.5875 5.9714 4.5875 6.0283s-1.9525.1137-4.3411.1137h-4.3601l-3.9809-4.8339c-2.199-2.654-3.9999-4.9288-3.9999-5.0426 0-.0947 7.033-9.0613 15.6394-19.8856 8.6064-10.8433 15.6393-19.75301 15.6393-19.80987 0-.05688-6.0472-.09479-13.4214-.09479h-13.4214z" fill="#fff"/></svg>