<svg fill="none" height="74" viewBox="0 0 74 74" width="74" xmlns="http://www.w3.org/2000/svg"><g fill="#ffbe40"><path d="m14.5445 5.12106c1.4947-1.49475 3.9182-1.49475 5.4129 0l9.7107 9.71064c1.4947 1.4948 1.4947 3.9182 0 5.413l-9.4233 9.4233c-1.4947 1.4947-3.9182 1.4947-5.413 0l-9.71061-9.7107c-1.49475-1.4947-1.49474-3.9182 0-5.413z"/><path d="m52.0602 37.224 17.2667-17.2667c1.4947-1.4947 1.4947-3.9182 0-5.4129l-9.4233-9.4233c-1.4948-1.49474-3.9183-1.49474-5.413 0l-49.36954 49.3696c-1.49475 1.4947-1.49475 3.9182 0 5.4129l9.42324 9.4233c1.4948 1.4948 3.9183 1.4948 5.413 0l17.2666-17.2666 17.2668 17.2668c1.4948 1.4947 3.9183 1.4947 5.413 0l9.4233-9.4233c1.4947-1.4947 1.4947-3.9182 0-5.413z"/></g></svg>