<svg width="210" height="180" viewBox="0 0 210 180" fill="none" xmlns="http://www.w3.org/2000/svg">
<path fill-rule="evenodd" clip-rule="evenodd" d="M50.1596 28.887C51.6066 26.4755 54.2126 25 57.0249 25H153.099C155.912 25 158.518 26.4755 159.965 28.887L183.983 68.9181C185.789 71.9269 185.424 75.7607 183.085 78.3757L115.032 154.435C114.951 154.525 114.869 154.613 114.784 154.699C113.517 155.993 112.004 157.02 110.335 157.722C108.665 158.423 106.873 158.784 105.062 158.784C103.251 158.784 101.459 158.423 99.7895 157.722C98.1202 157.02 96.6076 155.993 95.3403 154.699C95.2557 154.613 95.1731 154.525 95.0925 154.435L27.0397 78.3757C24.7 75.7607 24.3357 71.9269 26.141 68.9181L50.1596 28.887ZM61.5579 41.0124L42.9076 72.0964L105.062 141.563L167.217 72.0964L148.566 41.0124H61.5579ZM81.9602 56.563C85.7518 58.8379 86.9813 63.7558 84.7063 67.5474L82.9638 70.4515L94.9738 83.6625C97.9482 86.9343 97.7071 91.9978 94.4353 94.9722C91.1635 97.9465 86.1 97.7054 83.1256 94.4336L67.1132 76.82C64.7371 74.2063 64.3547 70.3442 66.1721 67.3153L70.9758 59.3091C73.2507 55.5175 78.1686 54.288 81.9602 56.563Z" fill="#B2FF59"/>
</svg>
