<svg width="504" height="67" viewBox="0 0 504 67" fill="none" xmlns="http://www.w3.org/2000/svg">
<path d="M436.35 29.7063L452.151 43.4759C452.879 44.1103 453.813 44.4599 454.778 44.4599C456.127 44.4599 457.221 43.3665 457.221 42.0177V22.9993H452.508V36.8594L437.109 23.364C436.511 22.8398 435.742 22.5508 434.947 22.5508C433.135 22.5507 431.667 24.0193 431.667 25.8309V44.0112H436.35V29.7063Z" fill="white"/>
<path d="M334.073 29.0754L324.5 44.0112H318.295L330.582 24.8913L330.583 24.8902C331.378 23.6692 332.476 22.6391 334.184 22.6391C335.809 22.6391 336.904 23.579 337.721 24.8847L349.698 44.0112H343.48L340.019 38.6448L340.016 38.6403C339.539 37.9395 338.821 36.7859 338.203 35.7935L338.188 35.7691C338.127 35.6708 338.067 35.5742 338.008 35.4798L338.007 35.4786L334.073 29.0754Z" fill="white"/>
<path d="M292.416 38.2146V44.0112H287.169V33.7083H303.995C305.013 33.7083 305.955 33.4544 306.656 32.9641C307.367 32.4668 307.827 31.7235 307.827 30.8035C307.827 29.8254 307.452 29.045 306.741 28.5255C306.052 28.0218 305.099 27.8004 303.995 27.8004H287.169L287.169 22.9993H303.49C305.707 22.9993 308.168 23.3876 310.059 24.5048C311.919 25.6038 313.252 27.4181 313.252 30.3777C313.252 33.6096 311.435 36.2148 308.41 36.8825L307.753 37.0273L309.103 38.48C309.479 38.8595 309.922 39.3387 310.492 39.9741L310.557 40.0447L310.556 40.0459C310.684 40.1885 310.817 40.3388 310.958 40.4974L313.971 44.0112H307.172L301.852 38.2146H292.416Z" fill="white"/>
<path d="M354.558 27.8004V35.5366H359.834V27.8004H368.927C372.454 27.8004 375.253 30.2183 375.253 33.5871C375.253 35.2842 374.584 36.7182 373.442 37.7229C372.304 38.7233 370.724 39.2756 368.927 39.2756H359.834H354.558V44.0112H368.927C375.593 44.0112 380.44 39.3714 380.44 33.2924C380.44 27.2659 375.674 22.9993 368.927 22.9993H354.558V27.8004Z" fill="white"/>
<path d="M411.72 29.0754L402.146 44.0112H395.942L408.229 24.8913L408.23 24.8898C409.025 23.669 410.123 22.6391 411.83 22.6391C413.455 22.6391 414.551 23.579 415.368 24.8847L427.345 44.0112H420.932L417.669 38.6496L417.663 38.6403C417.186 37.9397 416.468 36.7865 415.851 35.7943L415.85 35.7933L415.654 35.4786L411.72 29.0754Z" fill="white"/>
<path d="M472.286 27.8004H461.906V22.9993H487.992V27.8004H477.533V44.0112H472.286V27.8004Z" fill="white"/>
<path d="M391.203 44.0112V22.9993H385.956V44.0112H391.203Z" fill="white"/>
<path d="M263.041 50.8131C259.5 53.4129 255.129 54.9486 250.399 54.9486C238.59 54.9486 229.017 45.3753 229.017 33.5661C229.017 30.7325 229.568 28.0277 230.569 25.5529L231.69 26.6741C230.898 28.8219 230.466 31.1435 230.466 33.5661C230.466 44.5747 239.39 53.4989 250.399 53.4989C254.728 53.4989 258.734 52.119 262.003 49.7751L263.041 50.8131Z" fill="white"/>
<path d="M265.462 48.7419C269.365 44.8681 271.782 39.4993 271.782 33.5661C271.782 21.7569 262.208 12.1836 250.399 12.1836C242.781 12.1836 236.093 16.1679 232.305 22.1665L233.359 23.2195C236.856 17.4718 243.179 13.6333 250.399 13.6333C261.408 13.6333 270.332 22.5575 270.332 33.5661C270.332 39.099 268.078 44.1054 264.437 47.7169L265.462 48.7419Z" fill="white"/>
<path d="M254.118 53.5933C254.301 53.7735 254.542 53.8694 254.798 53.8694H266.548C266.766 53.8694 266.875 53.6065 266.721 53.4527L245.016 31.7541C244.833 31.571 244.585 31.4682 244.326 31.4682H238.113C235.914 31.4682 234.797 34.1105 236.339 35.6794C241.164 40.5889 249.119 48.6582 254.118 53.5933Z" fill="white"/>
<path d="M248.335 20.4121H229.642C229.422 20.4121 229.314 20.6806 229.47 20.8349C231.304 22.642 232.918 24.4986 234.754 26.3333C234.961 26.5403 235.168 26.7474 235.417 26.913C236.494 27.6997 237.696 28.1138 239.063 28.1552H251.65C251.899 28.1552 252.148 28.1552 252.396 28.1966C254.054 28.5279 255.421 30.1842 255.048 32.1717C254.768 33.6934 253.441 34.8278 251.892 34.9008C251.778 34.9062 251.726 35.0442 251.807 35.1248L257.243 40.5597C257.458 40.7749 257.764 40.8905 258.062 40.8281C258.066 40.8273 258.07 40.8265 258.073 40.8257C258.736 40.7015 259.399 40.4117 260.021 40.0804C261.015 39.5421 261.927 38.8382 262.631 37.9273C263.916 36.2296 264.662 34.3663 264.786 32.2545C264.869 31.4264 264.827 30.5982 264.703 29.8115C264.537 28.7763 264.247 27.7825 263.833 26.8302C262.921 24.8012 261.512 23.1864 259.565 22.027C257.99 21.116 256.291 20.6606 254.509 20.4949C254.012 20.4535 253.556 20.4535 253.059 20.4535C251.485 20.4121 249.91 20.4121 248.335 20.4121Z" fill="white"/>
<path d="M25.5863 25.7199C27.2503 25.7199 28.7329 26.0825 30.0343 26.8079C31.3569 27.5332 32.3916 28.5572 33.1383 29.8799C33.8849 31.2025 34.2583 32.7279 34.2583 34.4559C34.2583 36.1839 33.8849 37.7199 33.1383 39.0639C32.3916 40.3865 31.3569 41.4105 30.0343 42.1359C28.7329 42.8612 27.2503 43.2239 25.5863 43.2239C23.2823 43.2239 21.4583 42.4559 20.1143 40.9199V49.2079H16.1143V25.9119H19.9223V28.1519C20.5836 27.3412 21.3943 26.7332 22.3543 26.3279C23.3356 25.9225 24.4129 25.7199 25.5863 25.7199ZM25.1383 39.7999C26.6103 39.7999 27.8156 39.3092 28.7543 38.3279C29.7143 37.3465 30.1943 36.0559 30.1943 34.4559C30.1943 32.8559 29.7143 31.5652 28.7543 30.5839C27.8156 29.6025 26.6103 29.1119 25.1383 29.1119C24.1783 29.1119 23.3143 29.3359 22.5463 29.7839C21.7783 30.2105 21.1703 30.8292 20.7223 31.6399C20.2743 32.4505 20.0503 33.3892 20.0503 34.4559C20.0503 35.5225 20.2743 36.4612 20.7223 37.2719C21.1703 38.0825 21.7783 38.7119 22.5463 39.1599C23.3143 39.5865 24.1783 39.7999 25.1383 39.7999Z" fill="white"/>
<path d="M46.3718 43.2239C44.6438 43.2239 43.0864 42.8505 41.6998 42.1039C40.3131 41.3572 39.2251 40.3225 38.4358 38.9999C37.6678 37.6559 37.2838 36.1412 37.2838 34.4559C37.2838 32.7705 37.6678 31.2665 38.4358 29.9439C39.2251 28.6212 40.3131 27.5865 41.6998 26.8399C43.0864 26.0932 44.6438 25.7199 46.3718 25.7199C48.1211 25.7199 49.6891 26.0932 51.0758 26.8399C52.4624 27.5865 53.5398 28.6212 54.3078 29.9439C55.0971 31.2665 55.4918 32.7705 55.4918 34.4559C55.4918 36.1412 55.0971 37.6559 54.3078 38.9999C53.5398 40.3225 52.4624 41.3572 51.0758 42.1039C49.6891 42.8505 48.1211 43.2239 46.3718 43.2239ZM46.3718 39.7999C47.8438 39.7999 49.0598 39.3092 50.0198 38.3279C50.9798 37.3465 51.4598 36.0559 51.4598 34.4559C51.4598 32.8559 50.9798 31.5652 50.0198 30.5839C49.0598 29.6025 47.8438 29.1119 46.3718 29.1119C44.8998 29.1119 43.6838 29.6025 42.7238 30.5839C41.7851 31.5652 41.3158 32.8559 41.3158 34.4559C41.3158 36.0559 41.7851 37.3465 42.7238 38.3279C43.6838 39.3092 44.8998 39.7999 46.3718 39.7999Z" fill="white"/>
<path d="M86.144 25.9119L79.84 42.9999H76L71.584 31.2239L67.104 42.9999H63.264L56.992 25.9119H60.768L65.28 38.5199L69.984 25.9119H73.344L77.952 38.5839L82.592 25.9119H86.144Z" fill="white"/>
<path d="M105.13 34.5519C105.13 34.8292 105.108 35.2239 105.066 35.7359H91.6575C91.8922 36.9945 92.5002 37.9972 93.4815 38.7439C94.4842 39.4692 95.7215 39.8319 97.1935 39.8319C99.0708 39.8319 100.618 39.2132 101.834 37.9759L103.978 40.4399C103.21 41.3572 102.239 42.0505 101.066 42.5199C99.8922 42.9892 98.5695 43.2239 97.0975 43.2239C95.2202 43.2239 93.5668 42.8505 92.1375 42.1039C90.7082 41.3572 89.5988 40.3225 88.8095 38.9999C88.0415 37.6559 87.6575 36.1412 87.6575 34.4559C87.6575 32.7919 88.0308 31.2985 88.7775 29.9759C89.5455 28.6319 90.6015 27.5865 91.9455 26.8399C93.2895 26.0932 94.8042 25.7199 96.4895 25.7199C98.1535 25.7199 99.6362 26.0932 100.938 26.8399C102.26 27.5652 103.284 28.5999 104.01 29.9439C104.756 31.2665 105.13 32.8025 105.13 34.5519ZM96.4895 28.9199C95.2095 28.9199 94.1215 29.3039 93.2255 30.0719C92.3508 30.8185 91.8175 31.8212 91.6255 33.0799H101.322C101.151 31.8425 100.628 30.8399 99.7535 30.0719C98.8788 29.3039 97.7908 28.9199 96.4895 28.9199Z" fill="white"/>
<path d="M113.42 28.4079C114.572 26.6159 116.598 25.7199 119.5 25.7199V29.5279C119.158 29.4639 118.849 29.4319 118.572 29.4319C117.014 29.4319 115.798 29.8905 114.924 30.8079C114.049 31.7039 113.612 33.0052 113.612 34.7119V42.9999H109.612V25.9119H113.42V28.4079Z" fill="white"/>
<path d="M139.441 34.5519C139.441 34.8292 139.419 35.2239 139.377 35.7359H125.969C126.203 36.9945 126.811 37.9972 127.793 38.7439C128.795 39.4692 130.033 39.8319 131.505 39.8319C133.382 39.8319 134.929 39.2132 136.145 37.9759L138.289 40.4399C137.521 41.3572 136.55 42.0505 135.377 42.5199C134.203 42.9892 132.881 43.2239 131.409 43.2239C129.531 43.2239 127.878 42.8505 126.449 42.1039C125.019 41.3572 123.91 40.3225 123.121 38.9999C122.353 37.6559 121.969 36.1412 121.969 34.4559C121.969 32.7919 122.342 31.2985 123.089 29.9759C123.857 28.6319 124.913 27.5865 126.257 26.8399C127.601 26.0932 129.115 25.7199 130.801 25.7199C132.465 25.7199 133.947 26.0932 135.249 26.8399C136.571 27.5652 137.595 28.5999 138.321 29.9439C139.067 31.2665 139.441 32.8025 139.441 34.5519ZM130.801 28.9199C129.521 28.9199 128.433 29.3039 127.537 30.0719C126.662 30.8185 126.129 31.8212 125.937 33.0799H135.633C135.462 31.8425 134.939 30.8399 134.065 30.0719C133.19 29.3039 132.102 28.9199 130.801 28.9199Z" fill="white"/>
<path d="M160.659 19.2559V42.9999H156.819V40.7919C156.158 41.6025 155.336 42.2105 154.355 42.6159C153.395 43.0212 152.328 43.2239 151.155 43.2239C149.512 43.2239 148.03 42.8612 146.707 42.1359C145.406 41.4105 144.382 40.3865 143.635 39.0639C142.888 37.7199 142.515 36.1839 142.515 34.4559C142.515 32.7279 142.888 31.2025 143.635 29.8799C144.382 28.5572 145.406 27.5332 146.707 26.8079C148.03 26.0825 149.512 25.7199 151.155 25.7199C152.286 25.7199 153.32 25.9119 154.259 26.2959C155.198 26.6799 155.998 27.2559 156.659 28.0239V19.2559H160.659ZM151.635 39.7999C152.595 39.7999 153.459 39.5865 154.227 39.1599C154.995 38.7119 155.603 38.0825 156.051 37.2719C156.499 36.4612 156.723 35.5225 156.723 34.4559C156.723 33.3892 156.499 32.4505 156.051 31.6399C155.603 30.8292 154.995 30.2105 154.227 29.7839C153.459 29.3359 152.595 29.1119 151.635 29.1119C150.675 29.1119 149.811 29.3359 149.043 29.7839C148.275 30.2105 147.667 30.8292 147.219 31.6399C146.771 32.4505 146.547 33.3892 146.547 34.4559C146.547 35.5225 146.771 36.4612 147.219 37.2719C147.667 38.0825 148.275 38.7119 149.043 39.1599C149.811 39.5865 150.675 39.7999 151.635 39.7999Z" fill="white"/>
<path d="M185.488 25.7199C187.152 25.7199 188.634 26.0825 189.936 26.8079C191.258 27.5332 192.293 28.5572 193.04 29.8799C193.786 31.2025 194.16 32.7279 194.16 34.4559C194.16 36.1839 193.786 37.7199 193.04 39.0639C192.293 40.3865 191.258 41.4105 189.936 42.1359C188.634 42.8612 187.152 43.2239 185.488 43.2239C184.314 43.2239 183.237 43.0212 182.256 42.6159C181.296 42.2105 180.485 41.6025 179.824 40.7919V42.9999H176.016V19.2559H180.016V27.9919C180.698 27.2452 181.498 26.6799 182.415 26.2959C183.354 25.9119 184.378 25.7199 185.488 25.7199ZM185.04 39.7999C186.512 39.7999 187.717 39.3092 188.656 38.3279C189.616 37.3465 190.096 36.0559 190.096 34.4559C190.096 32.8559 189.616 31.5652 188.656 30.5839C187.717 29.6025 186.512 29.1119 185.04 29.1119C184.079 29.1119 183.216 29.3359 182.448 29.7839C181.68 30.2105 181.072 30.8292 180.624 31.6399C180.176 32.4505 179.952 33.3892 179.952 34.4559C179.952 35.5225 180.176 36.4612 180.624 37.2719C181.072 38.0825 181.68 38.7119 182.448 39.1599C183.216 39.5865 184.079 39.7999 185.04 39.7999Z" fill="white"/>
<path d="M214.124 25.9119L206.124 44.3759C205.378 46.2319 204.471 47.5332 203.404 48.2799C202.338 49.0479 201.047 49.4319 199.532 49.4319C198.679 49.4319 197.836 49.2932 197.004 49.0159C196.172 48.7385 195.49 48.3545 194.956 47.8639L196.556 44.9199C196.94 45.2825 197.388 45.5705 197.9 45.7839C198.434 45.9972 198.967 46.1039 199.5 46.1039C200.204 46.1039 200.78 45.9225 201.228 45.5599C201.698 45.1972 202.124 44.5892 202.508 43.7359L202.796 43.0639L195.34 25.9119H199.5L204.876 38.5519L210.284 25.9119H214.124Z" fill="white"/>
</svg>
