<svg width="505" height="67" viewBox="0 0 505 67" fill="none" xmlns="http://www.w3.org/2000/svg">
<circle cx="252.296" cy="33.7654" r="24.0389" fill="white"/>
<path d="M255.121 47.7352C255.259 47.8713 255.441 47.9438 255.635 47.9438H264.511C264.675 47.9438 264.757 47.7451 264.641 47.629L248.245 31.2377C248.107 31.0994 247.919 31.0218 247.724 31.0218H243.031C241.369 31.0218 240.526 33.0178 241.691 34.203C245.335 37.9116 251.345 44.0072 255.121 47.7352Z" fill="black"/>
<path d="M250.753 22.6699H236.632C236.466 22.6699 236.384 22.8728 236.502 22.9893C237.887 24.3544 239.106 25.7569 240.493 27.1428C240.65 27.2992 240.806 27.4556 240.994 27.5807C241.808 28.175 242.716 28.4878 243.749 28.5191H253.257C253.445 28.5191 253.633 28.5191 253.82 28.5504C255.072 28.8006 256.105 30.0518 255.824 31.5532C255.612 32.7027 254.609 33.5596 253.44 33.6148C253.353 33.6188 253.314 33.7231 253.375 33.784L257.482 37.8895C257.644 38.0521 257.876 38.1395 258.101 38.0923C258.103 38.0917 258.106 38.0911 258.109 38.0905C258.61 37.9967 259.11 37.7777 259.58 37.5275C260.331 37.1209 261.02 36.5891 261.552 35.901C262.522 34.6185 263.086 33.211 263.18 31.6157C263.242 30.9902 263.211 30.3646 263.117 29.7703C262.992 28.9883 262.773 28.2376 262.46 27.5182C261.771 25.9855 260.707 24.7656 259.236 23.8898C258.046 23.2017 256.763 22.8576 255.417 22.7325C255.041 22.7012 254.697 22.7012 254.321 22.7012C253.132 22.6699 251.942 22.6699 250.753 22.6699Z" fill="black"/>
<path d="M442.351 29.6421L458.421 43.6452C459.162 44.2904 460.111 44.6459 461.093 44.6459C462.464 44.6459 463.576 43.534 463.576 42.1623V22.8214H458.784V36.9165L443.123 23.1923C442.515 22.6592 441.734 22.3653 440.925 22.3652C439.083 22.3652 437.589 23.8587 437.589 25.701V44.1897H442.351V29.6421Z" fill="white"/>
<path d="M338.34 29.0005L328.604 44.1897H322.294L334.79 24.7455L334.791 24.7443C335.599 23.5026 336.716 22.455 338.453 22.455C340.105 22.455 341.219 23.4109 342.05 24.7388L354.23 44.1897H347.907L344.387 38.7322L344.384 38.7276C343.899 38.0149 343.169 36.8418 342.541 35.8326L342.525 35.8077C342.463 35.7078 342.402 35.6095 342.342 35.5135L342.341 35.5123L338.34 29.0005Z" fill="white"/>
<path d="M295.976 38.2948V44.1897H290.641V33.712H307.752C308.788 33.712 309.746 33.4538 310.458 32.9551C311.181 32.4494 311.649 31.6935 311.649 30.7579C311.649 29.7632 311.268 28.9696 310.545 28.4412C309.844 27.9291 308.874 27.7039 307.752 27.7039H290.641L290.641 22.8214H307.239C309.493 22.8214 311.996 23.2163 313.919 24.3524C315.81 25.47 317.166 27.3151 317.166 30.3249C317.166 33.6117 315.318 36.261 312.241 36.94L311.574 37.0873L312.947 38.5647C313.329 38.9506 313.78 39.4379 314.359 40.0841L314.426 40.1558L314.424 40.1571C314.554 40.3021 314.69 40.4549 314.833 40.6162L317.898 44.1897H310.983L305.573 38.2948H295.976Z" fill="white"/>
<path d="M359.172 27.7039V35.5713H364.538V27.7039H373.785C377.372 27.7039 380.218 30.1628 380.218 33.5888C380.218 35.3146 379.538 36.773 378.377 37.7947C377.22 38.812 375.613 39.3737 373.785 39.3737H364.538H359.172V44.1897H373.785C380.564 44.1897 385.493 39.4711 385.493 33.289C385.493 27.1603 380.646 22.8214 373.785 22.8214H359.172V27.7039Z" fill="white"/>
<path d="M417.304 29.0005L407.568 44.1897H401.258L413.754 24.7455L413.755 24.7439C414.563 23.5024 415.68 22.455 417.416 22.455C419.069 22.455 420.183 23.4109 421.014 24.7388L433.194 44.1897H426.672L423.354 38.7371L423.348 38.7276C422.863 38.0151 422.133 36.8424 421.505 35.8334L421.504 35.8323L421.305 35.5123L417.304 29.0005Z" fill="white"/>
<path d="M478.897 27.7039H468.341V22.8214H494.87V27.7039H484.233V44.1897H478.897V27.7039Z" fill="white"/>
<path d="M396.439 44.1897V22.8214H391.103V44.1897H396.439Z" fill="white"/>
<path d="M25.5863 25.7199C27.2503 25.7199 28.7329 26.0825 30.0343 26.8079C31.3569 27.5332 32.3916 28.5572 33.1383 29.8799C33.8849 31.2025 34.2583 32.7279 34.2583 34.4559C34.2583 36.1839 33.8849 37.7199 33.1383 39.0639C32.3916 40.3865 31.3569 41.4105 30.0343 42.1359C28.7329 42.8612 27.2503 43.2239 25.5863 43.2239C23.2823 43.2239 21.4583 42.4559 20.1143 40.9199V49.2079H16.1143V25.9119H19.9223V28.1519C20.5836 27.3412 21.3943 26.7332 22.3543 26.3279C23.3356 25.9225 24.4129 25.7199 25.5863 25.7199ZM25.1383 39.7999C26.6103 39.7999 27.8156 39.3092 28.7543 38.3279C29.7143 37.3465 30.1943 36.0559 30.1943 34.4559C30.1943 32.8559 29.7143 31.5652 28.7543 30.5839C27.8156 29.6025 26.6103 29.1119 25.1383 29.1119C24.1783 29.1119 23.3143 29.3359 22.5463 29.7839C21.7783 30.2105 21.1703 30.8292 20.7223 31.6399C20.2743 32.4505 20.0503 33.3892 20.0503 34.4559C20.0503 35.5225 20.2743 36.4612 20.7223 37.2719C21.1703 38.0825 21.7783 38.7119 22.5463 39.1599C23.3143 39.5865 24.1783 39.7999 25.1383 39.7999Z" fill="white"/>
<path d="M46.3718 43.2239C44.6438 43.2239 43.0864 42.8505 41.6998 42.1039C40.3131 41.3572 39.2251 40.3225 38.4358 38.9999C37.6678 37.6559 37.2838 36.1412 37.2838 34.4559C37.2838 32.7705 37.6678 31.2665 38.4358 29.9439C39.2251 28.6212 40.3131 27.5865 41.6998 26.8399C43.0864 26.0932 44.6438 25.7199 46.3718 25.7199C48.1211 25.7199 49.6891 26.0932 51.0758 26.8399C52.4624 27.5865 53.5398 28.6212 54.3078 29.9439C55.0971 31.2665 55.4918 32.7705 55.4918 34.4559C55.4918 36.1412 55.0971 37.6559 54.3078 38.9999C53.5398 40.3225 52.4624 41.3572 51.0758 42.1039C49.6891 42.8505 48.1211 43.2239 46.3718 43.2239ZM46.3718 39.7999C47.8438 39.7999 49.0598 39.3092 50.0198 38.3279C50.9798 37.3465 51.4598 36.0559 51.4598 34.4559C51.4598 32.8559 50.9798 31.5652 50.0198 30.5839C49.0598 29.6025 47.8438 29.1119 46.3718 29.1119C44.8998 29.1119 43.6838 29.6025 42.7238 30.5839C41.7851 31.5652 41.3158 32.8559 41.3158 34.4559C41.3158 36.0559 41.7851 37.3465 42.7238 38.3279C43.6838 39.3092 44.8998 39.7999 46.3718 39.7999Z" fill="white"/>
<path d="M86.144 25.9119L79.84 42.9999H76L71.584 31.2239L67.104 42.9999H63.264L56.992 25.9119H60.768L65.28 38.5199L69.984 25.9119H73.344L77.952 38.5839L82.592 25.9119H86.144Z" fill="white"/>
<path d="M105.13 34.5519C105.13 34.8292 105.108 35.2239 105.066 35.7359H91.6575C91.8922 36.9945 92.5002 37.9972 93.4815 38.7439C94.4842 39.4692 95.7215 39.8319 97.1935 39.8319C99.0708 39.8319 100.618 39.2132 101.834 37.9759L103.978 40.4399C103.21 41.3572 102.239 42.0505 101.066 42.5199C99.8922 42.9892 98.5695 43.2239 97.0975 43.2239C95.2202 43.2239 93.5668 42.8505 92.1375 42.1039C90.7082 41.3572 89.5988 40.3225 88.8095 38.9999C88.0415 37.6559 87.6575 36.1412 87.6575 34.4559C87.6575 32.7919 88.0308 31.2985 88.7775 29.9759C89.5455 28.6319 90.6015 27.5865 91.9455 26.8399C93.2895 26.0932 94.8042 25.7199 96.4895 25.7199C98.1535 25.7199 99.6362 26.0932 100.938 26.8399C102.26 27.5652 103.284 28.5999 104.01 29.9439C104.756 31.2665 105.13 32.8025 105.13 34.5519ZM96.4895 28.9199C95.2095 28.9199 94.1215 29.3039 93.2255 30.0719C92.3508 30.8185 91.8175 31.8212 91.6255 33.0799H101.322C101.151 31.8425 100.628 30.8399 99.7535 30.0719C98.8788 29.3039 97.7908 28.9199 96.4895 28.9199Z" fill="white"/>
<path d="M113.42 28.4079C114.572 26.6159 116.598 25.7199 119.5 25.7199V29.5279C119.158 29.4639 118.849 29.4319 118.572 29.4319C117.014 29.4319 115.798 29.8905 114.924 30.8079C114.049 31.7039 113.612 33.0052 113.612 34.7119V42.9999H109.612V25.9119H113.42V28.4079Z" fill="white"/>
<path d="M139.441 34.5519C139.441 34.8292 139.419 35.2239 139.377 35.7359H125.969C126.203 36.9945 126.811 37.9972 127.793 38.7439C128.795 39.4692 130.033 39.8319 131.505 39.8319C133.382 39.8319 134.929 39.2132 136.145 37.9759L138.289 40.4399C137.521 41.3572 136.55 42.0505 135.377 42.5199C134.203 42.9892 132.881 43.2239 131.409 43.2239C129.531 43.2239 127.878 42.8505 126.449 42.1039C125.019 41.3572 123.91 40.3225 123.121 38.9999C122.353 37.6559 121.969 36.1412 121.969 34.4559C121.969 32.7919 122.342 31.2985 123.089 29.9759C123.857 28.6319 124.913 27.5865 126.257 26.8399C127.601 26.0932 129.115 25.7199 130.801 25.7199C132.465 25.7199 133.947 26.0932 135.249 26.8399C136.571 27.5652 137.595 28.5999 138.321 29.9439C139.067 31.2665 139.441 32.8025 139.441 34.5519ZM130.801 28.9199C129.521 28.9199 128.433 29.3039 127.537 30.0719C126.662 30.8185 126.129 31.8212 125.937 33.0799H135.633C135.462 31.8425 134.939 30.8399 134.065 30.0719C133.19 29.3039 132.102 28.9199 130.801 28.9199Z" fill="white"/>
<path d="M160.659 19.2559V42.9999H156.819V40.7919C156.158 41.6025 155.336 42.2105 154.355 42.6159C153.395 43.0212 152.328 43.2239 151.155 43.2239C149.512 43.2239 148.03 42.8612 146.707 42.1359C145.406 41.4105 144.382 40.3865 143.635 39.0639C142.888 37.7199 142.515 36.1839 142.515 34.4559C142.515 32.7279 142.888 31.2025 143.635 29.8799C144.382 28.5572 145.406 27.5332 146.707 26.8079C148.03 26.0825 149.512 25.7199 151.155 25.7199C152.286 25.7199 153.32 25.9119 154.259 26.2959C155.198 26.6799 155.998 27.2559 156.659 28.0239V19.2559H160.659ZM151.635 39.7999C152.595 39.7999 153.459 39.5865 154.227 39.1599C154.995 38.7119 155.603 38.0825 156.051 37.2719C156.499 36.4612 156.723 35.5225 156.723 34.4559C156.723 33.3892 156.499 32.4505 156.051 31.6399C155.603 30.8292 154.995 30.2105 154.227 29.7839C153.459 29.3359 152.595 29.1119 151.635 29.1119C150.675 29.1119 149.811 29.3359 149.043 29.7839C148.275 30.2105 147.667 30.8292 147.219 31.6399C146.771 32.4505 146.547 33.3892 146.547 34.4559C146.547 35.5225 146.771 36.4612 147.219 37.2719C147.667 38.0825 148.275 38.7119 149.043 39.1599C149.811 39.5865 150.675 39.7999 151.635 39.7999Z" fill="white"/>
<path d="M185.488 25.7199C187.152 25.7199 188.634 26.0825 189.936 26.8079C191.258 27.5332 192.293 28.5572 193.04 29.8799C193.786 31.2025 194.16 32.7279 194.16 34.4559C194.16 36.1839 193.786 37.7199 193.04 39.0639C192.293 40.3865 191.258 41.4105 189.936 42.1359C188.634 42.8612 187.152 43.2239 185.488 43.2239C184.314 43.2239 183.237 43.0212 182.256 42.6159C181.296 42.2105 180.485 41.6025 179.824 40.7919V42.9999H176.016V19.2559H180.016V27.9919C180.698 27.2452 181.498 26.6799 182.415 26.2959C183.354 25.9119 184.378 25.7199 185.488 25.7199ZM185.04 39.7999C186.512 39.7999 187.717 39.3092 188.656 38.3279C189.616 37.3465 190.096 36.0559 190.096 34.4559C190.096 32.8559 189.616 31.5652 188.656 30.5839C187.717 29.6025 186.512 29.1119 185.04 29.1119C184.079 29.1119 183.216 29.3359 182.448 29.7839C181.68 30.2105 181.072 30.8292 180.624 31.6399C180.176 32.4505 179.952 33.3892 179.952 34.4559C179.952 35.5225 180.176 36.4612 180.624 37.2719C181.072 38.0825 181.68 38.7119 182.448 39.1599C183.216 39.5865 184.079 39.7999 185.04 39.7999Z" fill="white"/>
<path d="M214.124 25.9119L206.124 44.3759C205.378 46.2319 204.471 47.5332 203.404 48.2799C202.338 49.0479 201.047 49.4319 199.532 49.4319C198.679 49.4319 197.836 49.2932 197.004 49.0159C196.172 48.7385 195.49 48.3545 194.956 47.8639L196.556 44.9199C196.94 45.2825 197.388 45.5705 197.9 45.7839C198.434 45.9972 198.967 46.1039 199.5 46.1039C200.204 46.1039 200.78 45.9225 201.228 45.5599C201.698 45.1972 202.124 44.5892 202.508 43.7359L202.796 43.0639L195.34 25.9119H199.5L204.876 38.5519L210.284 25.9119H214.124Z" fill="white"/>
</svg>
