<svg width="222" height="222" viewBox="0 0 222 222" fill="none" xmlns="http://www.w3.org/2000/svg">
<circle cx="111" cy="111" r="91" fill="black"/>
<path d="M121.694 163.885C122.216 164.401 122.906 164.675 123.639 164.675H157.24C157.861 164.675 158.173 163.923 157.733 163.483L95.6656 101.434C95.1421 100.91 94.4321 100.616 93.6918 100.616H75.9265C69.6362 100.616 66.4445 108.172 70.8534 112.659C84.6499 126.698 107.399 149.773 121.694 163.885Z" fill="white"/>
<path d="M105.158 69H51.7025C51.0741 69 50.7638 69.7679 51.2113 70.209C56.4549 75.3766 61.07 80.6859 66.3203 85.9323C66.9127 86.5244 67.5052 87.1164 68.2162 87.59C71.297 89.8398 74.7334 91.0239 78.6437 91.1423H114.637C115.348 91.1423 116.059 91.1423 116.77 91.2607C121.51 92.208 125.42 96.9443 124.354 102.628C123.552 106.979 119.757 110.223 115.329 110.432C115.003 110.447 114.854 110.842 115.085 111.073L130.631 126.614C131.246 127.23 132.121 127.56 132.973 127.382C132.984 127.379 132.994 127.377 133.004 127.375C134.9 127.02 136.796 126.191 138.573 125.244C141.417 123.704 144.024 121.692 146.038 119.087C149.712 114.232 151.845 108.903 152.2 102.865C152.437 100.497 152.319 98.1284 151.963 95.8786C151.489 92.9184 150.66 90.0766 149.475 87.3532C146.868 81.5512 142.839 76.9333 137.27 73.6179C132.767 71.0129 127.909 69.7104 122.813 69.2368C121.392 69.1184 120.088 69.1184 118.666 69.1184C114.163 69 109.661 69 105.158 69Z" fill="white"/>
</svg>
