<svg width="177" height="229" viewBox="0 0 177 229" fill="none" xmlns="http://www.w3.org/2000/svg">
<path d="M88.0831 181.914C88.3633 182.195 88.5207 182.575 88.5207 182.971V192.588C88.5207 192.984 88.3633 193.364 88.0831 193.645L79.8038 201.924H69.9179L81.9492 189.893C83.1163 188.726 83.1163 186.833 81.9492 185.666L70.1149 173.832H80.0008L88.0831 181.914Z" fill="white"/>
<path d="M92.8458 193.572C92.5656 193.292 92.4081 192.912 92.4081 192.515V183.043C92.4081 182.647 92.5656 182.267 92.8458 181.987L101.001 173.832H110.886L99.0523 185.666C97.8852 186.833 97.8852 188.726 99.0523 189.893L111.083 201.924H101.198L92.8458 193.572Z" fill="white"/>
<path d="M36.6378 201.827V194.104H49L56.2 201.827H65.3569L61.3424 197.145C61.1549 196.934 60.9767 196.734 60.8067 196.544L60.8084 196.542L60.7211 196.448C59.9624 195.601 59.3719 194.963 58.871 194.457L57.0722 192.522L57.9468 192.329C61.978 191.439 64.3982 187.968 64.3982 183.662C64.3982 179.719 62.6226 177.302 60.1442 175.838C57.6248 174.349 54.346 173.832 51.3925 173.832H29.6475L29.6475 180.229H52.0648C53.5354 180.229 54.8063 180.524 55.7244 181.195C56.6714 181.887 57.1706 182.927 57.1706 184.23C57.1706 185.455 56.5574 186.446 55.6106 187.108C54.6769 187.762 53.422 188.1 52.0648 188.1H29.6475V201.827H36.6378Z" fill="white"/>
<path d="M117.043 173.832H136.187C145.176 173.832 151.526 179.517 151.526 187.546C151.526 195.645 145.068 201.827 136.187 201.827H117.043V195.513H124.072V195.517H136.187C138.582 195.517 140.687 194.781 142.202 193.449C143.724 192.11 144.615 190.199 144.615 187.938C144.615 183.45 140.886 180.229 136.187 180.229H124.072V191.031H117.043V173.832Z" fill="white"/>
<circle cx="88.5" cy="88.5" r="66.5" fill="white"/>
<path d="M96.3166 127.144C96.6979 127.521 97.202 127.721 97.7379 127.721H122.292C122.746 127.721 122.974 127.172 122.653 126.85L77.2955 81.5062C76.913 81.1237 76.3941 80.9088 75.8532 80.9088H62.8708C58.274 80.9088 55.9416 86.4305 59.1636 89.7091C69.2456 99.9685 85.8697 116.831 96.3166 127.144Z" fill="black"/>
<path d="M84.2323 57.8047H45.1686C44.7094 57.8047 44.4826 58.3658 44.8097 58.6882C48.6416 62.4645 52.0141 66.3444 55.8508 70.1783C56.2838 70.611 56.7168 71.0436 57.2363 71.3897C59.4877 73.0338 61.9989 73.8991 64.8565 73.9856H91.1595C91.679 73.9856 92.1986 73.9856 92.7181 74.0721C96.1818 74.7644 99.0394 78.2255 98.26 82.3789C97.6739 85.5588 94.901 87.9294 91.6646 88.082C91.4264 88.0932 91.3177 88.3816 91.4863 88.5501L102.847 99.9074C103.297 100.357 103.936 100.599 104.559 100.468C104.567 100.467 104.574 100.465 104.581 100.463C105.967 100.204 107.352 99.5981 108.651 98.9059C110.729 97.781 112.634 96.3101 114.106 94.4064C116.791 90.8587 118.349 86.9649 118.609 82.552C118.782 80.8214 118.696 79.0908 118.436 77.4468C118.09 75.2835 117.484 73.2068 116.618 71.2167C114.713 66.9767 111.768 63.6021 107.699 61.1793C104.408 59.2757 100.858 58.3239 97.1344 57.9777C96.0952 57.8912 95.1427 57.8912 94.1036 57.8912C90.8132 57.8047 87.5227 57.8047 84.2323 57.8047Z" fill="black"/>
</svg>
