<svg width="376" height="125" viewBox="0 0 376 125" fill="none" xmlns="http://www.w3.org/2000/svg">
<path d="M89.4937 95.3882C82.7665 100.327 74.4624 103.245 65.4769 103.245C43.0418 103.245 24.8545 85.0576 24.8545 62.6224C24.8545 57.2392 25.9016 52.1006 27.8033 47.399L29.9332 49.529C28.4296 53.6094 27.6086 58.02 27.6086 62.6224C27.6086 83.5365 44.5628 100.491 65.4769 100.491C73.7008 100.491 81.3124 97.8692 87.5217 93.4162L89.4937 95.3882Z" fill="white"/>
<path d="M94.0942 91.4535C101.508 84.094 106.099 73.8944 106.099 62.6224C106.099 40.1873 87.912 22 65.4769 22C51.0034 22 38.2978 29.5694 31.1027 40.9654L33.1033 42.9659C39.7474 32.0466 51.7605 24.7541 65.4769 24.7541C86.391 24.7541 103.345 41.7083 103.345 62.6224C103.345 73.1338 99.0625 82.645 92.1468 89.5061L94.0942 91.4535Z" fill="white"/>
<path d="M72.5415 100.671C72.8882 101.013 73.3464 101.195 73.8336 101.195H96.1562C96.5694 101.195 96.7762 100.696 96.4841 100.404L55.2491 59.1803C54.9013 58.8326 54.4296 58.6373 53.9378 58.6373H42.1353C37.9563 58.6373 35.8358 63.6571 38.765 66.6377C47.9307 75.9648 63.044 91.2949 72.5415 100.671Z" fill="white"/>
<path d="M61.5555 37.6328H26.0419C25.6244 37.6328 25.4182 38.143 25.7156 38.436C29.1992 41.8692 32.2653 45.3964 35.7533 48.8819C36.1469 49.2753 36.5405 49.6686 37.0129 49.9832C39.0597 51.4779 41.3426 52.2645 43.9405 52.3432H67.8531C68.3254 52.3432 68.7978 52.3432 69.2701 52.4219C72.419 53.0512 75.0169 56.1978 74.3084 59.9737C73.7755 62.8646 71.2546 65.0198 68.3123 65.1585C68.0958 65.1687 67.997 65.4309 68.1503 65.5841L78.4783 75.9092C78.8874 76.3182 79.4686 76.5379 80.0348 76.4191C80.0419 76.4176 80.0487 76.4162 80.0551 76.4147C81.3147 76.1787 82.5743 75.6281 83.7551 74.9988C85.6445 73.9761 87.3764 72.6388 88.7147 70.9082C91.1551 67.6829 92.5721 64.143 92.8083 60.1311C92.9657 58.5577 92.887 56.9844 92.6508 55.4898C92.3359 53.5232 91.7849 51.6352 90.9976 49.8259C89.2657 45.9713 86.5891 42.9034 82.8892 40.7008C79.8977 38.9701 76.6701 38.1048 73.285 37.7901C72.3403 37.7115 71.4743 37.7115 70.5297 37.7115C67.5383 37.6328 64.5469 37.6328 61.5555 37.6328Z" fill="white"/>
<path d="M238.805 52.0342C239.301 52.5304 239.58 53.2034 239.58 53.9052V70.9343C239.58 71.6361 239.301 72.3091 238.805 72.8053L224.144 87.4657H206.639L227.943 66.1616C230.01 64.0951 230.01 60.7445 227.943 58.6779L206.988 37.7227H224.493L238.805 52.0342Z" fill="white"/>
<path d="M247.238 72.6769C246.742 72.1807 246.463 71.5077 246.463 70.8059V54.0336C246.463 53.3319 246.742 52.6588 247.238 52.1626L261.678 37.7227H279.183L258.228 58.6779C256.162 60.7445 256.162 64.0951 258.228 66.1616L279.532 87.4657H262.027L247.238 72.6769Z" fill="white"/>
<path d="M147.709 87.2937V73.6185H170.015L182.219 87.2937H198.563L191.454 79.0038C191.122 78.6297 190.807 78.2752 190.506 77.9387L190.509 77.9359L190.354 77.7694C189.011 76.2703 187.965 75.1398 187.078 74.2446L183.893 70.8174L185.442 70.4756C192.58 68.9004 196.865 62.7544 196.865 55.1297C196.865 48.1474 193.721 43.8671 189.333 41.2744C184.871 38.6387 179.066 37.7227 173.836 37.7227H135.331L135.331 49.0494H175.026C177.63 49.0494 179.881 49.5717 181.506 50.7599C183.183 51.9855 184.067 53.8266 184.067 56.1341C184.067 58.3046 182.981 60.0582 181.305 61.2314C179.651 62.3882 177.429 62.9871 175.026 62.9871H135.331V87.2937H147.709Z" fill="white"/>
<path d="M290.084 37.7227H323.984C339.901 37.7227 351.145 47.7884 351.145 62.006C351.145 76.3474 339.71 87.2937 323.984 87.2937H290.084V76.1146H302.532V76.1215H323.984C328.224 76.1215 331.952 74.8185 334.635 72.4583C337.33 70.0881 338.907 66.705 338.907 62.7013C338.907 54.7535 332.305 49.0494 323.984 49.0494H302.532V68.1769H290.084V37.7227Z" fill="white"/>
</svg>
