<svg width="197" height="212" viewBox="0 0 197 212" fill="none" xmlns="http://www.w3.org/2000/svg">
<path d="M132.15 138.32C122.024 145.755 109.525 150.146 95.9999 150.146C62.2302 150.146 34.8545 122.771 34.8545 89.0009C34.8545 80.898 36.4306 73.1633 39.293 66.0865L42.4991 69.2925C40.2358 75.4344 38.9999 82.0733 38.9999 89.0009C38.9999 120.481 64.5197 146.001 95.9999 146.001C108.379 146.001 119.836 142.055 129.182 135.352L132.15 138.32Z" fill="black"/>
<path d="M139.075 132.398C150.235 121.32 157.145 105.968 157.145 89.0009C157.145 55.2312 129.77 27.8555 95.9999 27.8555C74.2142 27.8555 55.0895 39.249 44.2594 56.4025L47.2707 59.4137C57.2716 42.9777 75.3539 32.0009 95.9999 32.0009C127.48 32.0009 153 57.5207 153 89.0009C153 104.823 146.553 119.139 136.144 129.467L139.075 132.398Z" fill="black"/>
<path d="M106.635 146.268C107.157 146.783 107.846 147.058 108.58 147.058H142.18C142.802 147.058 143.113 146.306 142.673 145.866L80.606 83.8164C80.0825 83.293 79.3725 82.999 78.6323 82.999H60.867C54.5766 82.999 51.3849 90.5549 55.7939 95.0415C69.5903 109.081 92.3391 132.156 106.635 146.268Z" fill="black"/>
<path d="M90.0985 51.3828H36.6429C36.0145 51.3828 35.7042 52.1507 36.1518 52.5918C41.3954 57.7594 46.0104 63.0687 51.2607 68.3151C51.8532 68.9072 52.4456 69.4992 53.1566 69.9729C56.2375 72.2226 59.6738 73.4067 63.5842 73.5251H99.5778C100.289 73.5251 101 73.5251 101.711 73.6435C106.45 74.5908 110.361 79.3271 109.294 85.0107C108.492 89.3621 104.698 92.6061 100.269 92.8149C99.9431 92.8303 99.7943 93.2248 100.025 93.4555L115.571 108.997C116.187 109.613 117.062 109.943 117.914 109.765C117.924 109.762 117.935 109.76 117.944 109.758C119.84 109.403 121.736 108.574 123.514 107.627C126.358 106.087 128.964 104.074 130.979 101.469C134.652 96.6147 136.785 91.2863 137.141 85.2475C137.378 82.8793 137.259 80.5112 136.904 78.2614C136.43 75.3012 135.6 72.4594 134.415 69.736C131.808 63.9341 127.78 59.3161 122.21 56.0007C117.707 53.3957 112.849 52.0933 107.754 51.6196C106.332 51.5012 105.029 51.5012 103.607 51.5012C99.1039 51.3828 94.6012 51.3828 90.0985 51.3828Z" fill="black"/>
<path d="M135.487 175.775L147.508 186.25C148.062 186.733 148.772 186.999 149.506 186.999C150.532 186.999 151.364 186.167 151.364 185.141V170.673H147.779V181.217L136.064 170.951C135.609 170.552 135.025 170.332 134.42 170.332C133.042 170.332 131.925 171.449 131.925 172.827V186.658H135.487V175.775Z" fill="black"/>
<path d="M57.6814 175.296L50.3988 186.658H45.6784L55.026 172.113L55.0266 172.112C55.6312 171.183 56.4663 170.399 57.7656 170.399C59.0018 170.399 59.8352 171.114 60.4568 172.108L69.5679 186.658H64.8381L62.2048 182.575L62.2025 182.572C61.8401 182.039 61.2937 181.161 60.8237 180.406L60.8121 180.388C60.7656 180.313 60.7198 180.239 60.675 180.168L60.6745 180.167L57.6814 175.296Z" fill="black"/>
<path d="M25.9914 182.248V186.658H22V178.82H34.7999C35.5749 178.82 36.2914 178.627 36.8245 178.254C37.3652 177.875 37.7153 177.31 37.7153 176.61C37.7153 175.866 37.4302 175.272 36.8895 174.877C36.3653 174.494 35.6397 174.326 34.7999 174.326H22L22 170.673H34.4161C36.1025 170.673 37.9746 170.969 39.4132 171.819C40.8283 172.655 41.8421 174.035 41.8421 176.286C41.8421 178.745 40.4602 180.727 38.1585 181.235L37.6591 181.345L38.6862 182.45C38.9722 182.739 39.3093 183.103 39.7425 183.587L39.7924 183.64L39.7914 183.641C39.8885 183.75 39.9903 183.864 40.0973 183.985L42.3895 186.658H37.2168L33.1699 182.248H25.9914Z" fill="black"/>
<path d="M73.2649 174.326V180.211H77.2789V174.326H84.1963C86.8794 174.326 89.0082 176.165 89.0082 178.728C89.0082 180.019 88.4997 181.11 87.6307 181.874C86.7655 182.635 85.5634 183.055 84.1963 183.055H77.2789H73.2649V186.658H84.1963C89.2671 186.658 92.9545 183.128 92.9545 178.504C92.9545 173.919 89.3287 170.673 84.1963 170.673H73.2649V174.326Z" fill="black"/>
<path d="M116.75 175.296L109.467 186.658H104.747L114.095 172.113L114.095 172.111C114.7 171.183 115.535 170.399 116.834 170.399C118.07 170.399 118.904 171.114 119.525 172.108L128.637 186.658H123.758L121.276 182.579L121.271 182.572C120.909 182.039 120.363 181.162 119.893 180.407L119.892 180.406L119.743 180.167L116.75 175.296Z" fill="black"/>
<path d="M162.825 174.326H154.929V170.673H174.773V174.326H166.816V186.658H162.825V174.326Z" fill="black"/>
<path d="M101.142 186.658V170.673H97.1506V186.658H101.142Z" fill="black"/>
</svg>
