<svg width="197" height="212" viewBox="0 0 197 212" fill="none" xmlns="http://www.w3.org/2000/svg">
<circle cx="95.9995" cy="89.0005" r="64.0005" fill="black"/>
<path d="M103.522 126.192C103.889 126.554 104.374 126.747 104.89 126.747H128.521C128.959 126.747 129.178 126.219 128.868 125.909L85.2162 82.2696C84.848 81.9015 84.3486 81.6947 83.828 81.6947H71.3336C66.9096 81.6947 64.6649 87.0088 67.7657 90.1642C77.4688 100.038 93.468 116.267 103.522 126.192Z" fill="white"/>
<path d="M91.8922 59.459H54.2968C53.8548 59.459 53.6366 59.999 53.9514 60.3093C57.6392 63.9437 60.885 67.6777 64.5775 71.3675C64.9942 71.7839 65.4109 72.2003 65.9109 72.5334C68.0777 74.1157 70.4945 74.9484 73.2446 75.0317H98.559C99.059 75.0317 99.559 75.0317 100.059 75.115C103.393 75.7812 106.143 79.1123 105.393 83.1095C104.829 86.1699 102.16 88.4514 99.0451 88.5983C98.8159 88.6091 98.7113 88.8866 98.8736 89.0488L109.807 99.9792C110.24 100.412 110.855 100.645 111.455 100.519C111.462 100.517 111.469 100.516 111.476 100.514C112.81 100.265 114.143 99.6816 115.393 99.0154C117.393 97.9328 119.227 96.5171 120.643 94.685C123.227 91.2706 124.727 87.5232 124.977 83.2761C125.144 81.6106 125.06 79.945 124.81 78.3628C124.477 76.2809 123.894 74.2822 123.06 72.3669C121.227 68.2863 118.393 65.0385 114.476 62.7068C111.31 60.8747 107.893 59.9586 104.309 59.6255C103.309 59.5423 102.393 59.5423 101.392 59.5423C98.2257 59.459 95.059 59.459 91.8922 59.459Z" fill="white"/>
<path d="M135.487 175.775L147.508 186.25C148.062 186.733 148.772 186.999 149.506 186.999C150.532 186.999 151.364 186.167 151.364 185.141V170.673H147.779V181.217L136.064 170.951C135.609 170.552 135.025 170.332 134.42 170.332C133.042 170.332 131.925 171.449 131.925 172.827V186.658H135.487V175.775Z" fill="black"/>
<path d="M57.6814 175.296L50.3988 186.658H45.6784L55.026 172.113L55.0266 172.112C55.6312 171.183 56.4663 170.399 57.7656 170.399C59.0018 170.399 59.8352 171.114 60.4568 172.108L69.5679 186.658H64.8381L62.2048 182.575L62.2025 182.572C61.8401 182.039 61.2937 181.161 60.8237 180.406L60.8121 180.388C60.7656 180.313 60.7198 180.239 60.675 180.168L60.6745 180.167L57.6814 175.296Z" fill="black"/>
<path d="M25.9914 182.248V186.658H22V178.82H34.7999C35.5749 178.82 36.2914 178.627 36.8245 178.254C37.3652 177.875 37.7153 177.31 37.7153 176.61C37.7153 175.866 37.4302 175.272 36.8895 174.877C36.3653 174.494 35.6397 174.326 34.7999 174.326H22L22 170.673H34.4161C36.1025 170.673 37.9746 170.969 39.4132 171.819C40.8283 172.655 41.8421 174.035 41.8421 176.286C41.8421 178.745 40.4602 180.727 38.1585 181.235L37.6591 181.345L38.6862 182.45C38.9722 182.739 39.3093 183.103 39.7425 183.587L39.7924 183.64L39.7914 183.641C39.8885 183.75 39.9903 183.864 40.0973 183.985L42.3895 186.658H37.2168L33.1699 182.248H25.9914Z" fill="black"/>
<path d="M73.2649 174.326V180.211H77.2789V174.326H84.1963C86.8794 174.326 89.0082 176.165 89.0082 178.728C89.0082 180.019 88.4997 181.11 87.6307 181.874C86.7655 182.635 85.5634 183.055 84.1963 183.055H77.2789H73.2649V186.658H84.1963C89.2671 186.658 92.9545 183.128 92.9545 178.504C92.9545 173.919 89.3287 170.673 84.1963 170.673H73.2649V174.326Z" fill="black"/>
<path d="M116.75 175.296L109.467 186.658H104.747L114.095 172.113L114.095 172.111C114.7 171.183 115.535 170.399 116.834 170.399C118.07 170.399 118.904 171.114 119.525 172.108L128.637 186.658H123.758L121.276 182.579L121.271 182.572C120.909 182.039 120.363 181.162 119.893 180.407L119.892 180.406L119.743 180.167L116.75 175.296Z" fill="black"/>
<path d="M162.825 174.326H154.929V170.673H174.773V174.326H166.816V186.658H162.825V174.326Z" fill="black"/>
<path d="M101.142 186.658V170.673H97.1506V186.658H101.142Z" fill="black"/>
</svg>
