<svg width="545" height="93" viewBox="0 0 545 93" fill="none" xmlns="http://www.w3.org/2000/svg">
<path d="M395.003 36.9684L434.683 71.5458C436.512 73.139 438.855 74.0167 441.28 74.0167C444.667 74.0167 447.413 71.2711 447.413 67.8841V20.1263H435.579V54.9308L396.91 21.0422C395.408 19.7258 393.478 19.0001 391.481 19C386.932 18.9999 383.244 22.6877 383.244 27.2368V72.8902H395.003V36.9684Z" fill="white"/>
<path d="M138.172 35.3842L114.132 72.8902H98.5507L129.407 24.8774L129.408 24.8746C131.404 21.8085 134.161 19.2217 138.45 19.2217C142.53 19.2217 145.282 21.582 147.333 24.8608L177.408 72.8902H161.796L153.103 59.4143L153.096 59.4031C151.899 57.6431 150.096 54.7465 148.544 52.2544L148.506 52.193C148.352 51.9463 148.201 51.7036 148.054 51.4666L148.052 51.4635L138.172 35.3842Z" fill="white"/>
<path d="M33.565 58.3342V72.8902H20.3897V47.018H62.6414C65.1995 47.018 67.5646 46.3805 69.3245 45.1492C71.1091 43.9005 72.2648 42.034 72.2648 39.7237C72.2648 37.2675 71.3239 35.3078 69.539 34.0033C67.8087 32.7385 65.4133 32.1826 62.6414 32.1826H20.3897L20.3896 20.1263H61.3744C66.9411 20.1263 73.1209 21.1014 77.8695 23.9068C82.5406 26.6665 85.8873 31.2225 85.8873 38.6546C85.8873 46.7703 81.3256 53.3122 73.7277 54.9889L72.0793 55.3527L75.4697 59.0006C76.4139 59.9535 77.5268 61.1568 78.9567 62.7525L79.1213 62.9296L79.118 62.9327C79.4384 63.2908 79.7744 63.6682 80.1277 64.0664L87.6942 72.8902H70.6192L57.2607 58.3342H33.565Z" fill="white"/>
<path d="M189.612 32.1826V51.6093H202.862V32.1826H225.696C234.553 32.1826 241.58 38.2541 241.58 46.7138C241.58 50.9754 239.901 54.5764 237.033 57.0993C234.177 59.6115 230.209 60.9984 225.696 60.9984H202.862H189.612V72.8902H225.696C242.434 72.8902 254.606 61.2389 254.606 45.9737C254.606 30.8404 242.637 20.1263 225.696 20.1263H189.612V32.1826Z" fill="white"/>
<path d="M333.154 35.3842L309.114 72.8902H293.533L324.389 24.8774L324.391 24.8736C326.387 21.8079 329.144 19.2217 333.432 19.2217C337.512 19.2217 340.264 21.582 342.315 24.8608L372.391 72.8902H356.288L348.094 59.4265L348.078 59.4031C346.882 57.6436 345.079 54.748 343.528 52.2564L343.526 52.2537L343.034 51.4635L333.154 35.3842Z" fill="white"/>
<path d="M485.244 32.1826H459.179V20.1263H524.685V32.1826H498.419V72.8902H485.244V32.1826Z" fill="white"/>
<path d="M281.633 72.8902V20.1263H268.457V72.8902H281.633Z" fill="white"/>
</svg>
