<svg width="365" height="115" viewBox="0 0 365 115" fill="none" xmlns="http://www.w3.org/2000/svg">
<path d="M176.562 42.481C177.272 43.1911 177.671 44.1543 177.671 45.1585V69.5287C177.671 70.5329 177.272 71.496 176.562 72.2062L155.582 93.1864H130.531L161.019 62.6985C163.976 59.7411 163.976 54.9461 161.019 51.9886L131.03 22H156.081L176.562 42.481Z" fill="white"/>
<path d="M188.631 72.0224C187.921 71.3123 187.522 70.3491 187.522 69.3449V45.3423C187.522 44.338 187.921 43.3749 188.631 42.6648L209.296 22H234.348L204.359 51.9886C201.402 54.9461 201.402 59.7411 204.359 62.6985L234.847 93.1864H209.796L188.631 72.0224Z" fill="white"/>
<path d="M46.197 92.9402V73.3699H78.1192L95.5838 92.9402H118.973L108.8 81.0768C108.325 80.5414 107.873 80.034 107.442 79.5525L107.447 79.5484L107.225 79.3102C105.303 77.1649 103.807 75.5471 102.537 74.2659L97.9788 69.3613L100.195 68.8722C110.41 66.618 116.543 57.8225 116.543 46.911C116.543 36.9187 112.044 30.7932 105.764 27.0829C99.3793 23.311 91.0706 22 83.5862 22H28.4829L28.483 38.2095H85.2898C89.0166 38.2095 92.237 38.957 94.5635 40.6573C96.9632 42.4113 98.2282 45.046 98.2282 48.3484C98.2282 51.4545 96.6745 53.964 94.275 55.6429C91.909 57.2984 88.729 58.1555 85.2898 58.1555H28.483V92.9402H46.197Z" fill="white"/>
<path d="M249.948 22H298.461C321.239 22 337.331 36.4049 337.331 56.7514C337.331 77.2752 320.966 92.9402 298.461 92.9402H249.948V76.9421H267.762V76.9519H298.461C304.529 76.9519 309.864 75.0872 313.704 71.7096C317.56 68.3177 319.817 63.4761 319.817 57.7466C319.817 46.3726 310.37 38.2095 298.461 38.2095H267.762V65.5826H249.948V22Z" fill="white"/>
</svg>
