<svg width="388" height="143" viewBox="0 0 388 143" fill="none" xmlns="http://www.w3.org/2000/svg">
<circle cx="70.5" cy="71.5" r="53.5" fill="white"/>
<path d="M76.7887 102.591C77.0955 102.894 77.501 103.055 77.9321 103.055H97.6861C98.0517 103.055 98.2348 102.613 97.9762 102.355L61.486 65.8748C61.1782 65.5671 60.7608 65.3942 60.3256 65.3942H49.8812C46.183 65.3942 44.3065 69.8364 46.8986 72.4741C55.0098 80.7279 68.384 94.2941 76.7887 102.591Z" fill="black"/>
<path d="M67.0667 46.8066H35.6395C35.2701 46.8066 35.0877 47.2581 35.3508 47.5174C38.4336 50.5555 41.1468 53.6769 44.2335 56.7614C44.5818 57.1094 44.9302 57.4575 45.3482 57.736C47.1594 59.0586 49.1797 59.7547 51.4786 59.8244H72.6397C73.0577 59.8244 73.4757 59.8244 73.8937 59.894C76.6803 60.4509 78.9792 63.2354 78.3522 66.5769C77.8806 69.1351 75.6498 71.0423 73.0461 71.1651C72.8545 71.1741 72.767 71.4061 72.9027 71.5417L82.0423 80.6787C82.4043 81.0406 82.9187 81.235 83.4197 81.13C83.426 81.1287 83.432 81.1274 83.4377 81.1261C84.5523 80.9172 85.667 80.4299 86.7119 79.873C88.3839 78.9681 89.9165 77.7846 91.1008 76.2531C93.2604 73.399 94.5144 70.2664 94.7234 66.7161C94.8627 65.3238 94.793 63.9316 94.584 62.6089C94.3054 60.8686 93.8177 59.1978 93.1211 57.5967C91.5885 54.1857 89.2199 51.4707 85.9456 49.5216C83.2984 47.9901 80.4421 47.2243 77.4466 46.9459C76.6106 46.8763 75.8443 46.8763 75.0083 46.8763C72.3611 46.8066 69.7139 46.8066 67.0667 46.8066Z" fill="black"/>
<path d="M254.805 61.0342C255.301 61.5304 255.58 62.2034 255.58 62.9052V79.9343C255.58 80.6361 255.301 81.3091 254.805 81.8053L240.144 96.4657H222.639L243.943 75.1616C246.01 73.0951 246.01 69.7445 243.943 67.6779L222.988 46.7227H240.493L254.805 61.0342Z" fill="white"/>
<path d="M263.238 81.6769C262.742 81.1807 262.463 80.5077 262.463 79.8059V63.0336C262.463 62.3319 262.742 61.6588 263.238 61.1626L277.678 46.7227H295.183L274.228 67.6779C272.162 69.7445 272.162 73.0951 274.228 75.1616L295.532 96.4657H278.027L263.238 81.6769Z" fill="white"/>
<path d="M163.709 96.2937V82.6185H186.015L198.219 96.2937H214.563L207.454 88.0038C207.122 87.6297 206.807 87.2752 206.506 86.9387L206.509 86.9359L206.354 86.7694C205.011 85.2703 203.965 84.1398 203.078 83.2446L199.893 79.8174L201.442 79.4756C208.58 77.9004 212.865 71.7544 212.865 64.1297C212.865 57.1474 209.721 52.8671 205.333 50.2744C200.871 47.6387 195.066 46.7227 189.836 46.7227H151.331L151.331 58.0494H191.026C193.63 58.0494 195.881 58.5717 197.506 59.7599C199.183 60.9855 200.067 62.8266 200.067 65.1341C200.067 67.3046 198.981 69.0582 197.305 70.2314C195.651 71.3882 193.429 71.9871 191.026 71.9871H151.331V96.2937H163.709Z" fill="white"/>
<path d="M306.084 46.7227H339.984C355.901 46.7227 367.145 56.7884 367.145 71.006C367.145 85.3474 355.71 96.2937 339.984 96.2937H306.084V85.1146H318.532V85.1215H339.984C344.224 85.1215 347.952 83.8185 350.635 81.4583C353.33 79.0881 354.907 75.705 354.907 71.7013C354.907 63.7535 348.305 58.0494 339.984 58.0494H318.532V77.1769H306.084V46.7227Z" fill="white"/>
</svg>
