<svg width="433" height="146" viewBox="0 0 433 146" fill="none" xmlns="http://www.w3.org/2000/svg">
<path fill-rule="evenodd" clip-rule="evenodd" d="M359.744 23.5H73C45.6619 23.5 23.5 45.6619 23.5 73C23.5 100.338 45.662 122.5 73.0001 122.5H359.744C387.082 122.5 409.244 100.338 409.244 73C409.244 45.6619 387.082 23.5 359.744 23.5ZM73 20C43.7289 20 20 43.7289 20 73C20 102.271 43.729 126 73.0001 126H359.744C389.015 126 412.744 102.271 412.744 73C412.744 43.7289 389.015 20 359.744 20H73Z" fill="black"/>
<path fill-rule="evenodd" clip-rule="evenodd" d="M73.1045 126C102.376 126 126.104 102.271 126.104 73C126.104 43.7289 102.376 20 73.1045 20C43.8334 20 20.1045 43.7289 20.1045 73C20.1045 102.271 43.8334 126 73.1045 126ZM38.5693 48.5391H69.7028C72.3252 48.5391 74.9477 48.5391 77.5701 48.608C78.3983 48.608 79.1574 48.608 79.9856 48.677C82.9532 48.9528 85.7827 49.7114 88.4052 51.2286C91.6489 53.1596 93.9953 55.8491 95.5136 59.2283C96.2038 60.8145 96.6868 62.4696 96.9629 64.1936C97.1699 65.5039 97.239 66.8832 97.1009 68.2624C96.8939 71.7796 95.6516 74.8829 93.5122 77.7104C92.339 79.2275 90.8207 80.3999 89.1644 81.2964C88.1292 81.8481 87.0249 82.3309 85.9207 82.5378L85.9029 82.5416C85.4066 82.6457 84.897 82.4531 84.5384 82.0946L75.4842 73.0429C75.3498 72.9086 75.4364 72.6788 75.6262 72.6698C78.2056 72.5482 80.4156 70.6589 80.8828 68.1245C81.5039 64.8143 79.2264 62.0558 76.4659 61.5041C76.0518 61.4351 75.6377 61.4351 75.2237 61.4351H54.2603C51.9829 61.3662 49.9815 60.6765 48.1872 59.3662C47.7731 59.0904 47.428 58.7456 47.0829 58.4008C45.6246 56.9435 44.2504 55.4779 42.8806 54.0169C41.3781 52.4145 39.8807 50.8175 38.2832 49.2432C38.0226 48.9863 38.2033 48.5391 38.5693 48.5391ZM80.4666 104.262C80.0395 104.262 79.6378 104.102 79.3338 103.802C71.0077 95.5827 57.7585 82.1433 49.7232 73.9666C47.1553 71.3536 49.0142 66.9529 52.6778 66.9529H63.0246C63.4558 66.9529 63.8693 67.1241 64.1742 67.429L100.323 103.568C100.58 103.824 100.398 104.262 100.036 104.262H80.4666Z" fill="black"/>
<path d="M313.359 51.7292L330.656 66.8021C331.453 67.4966 332.474 67.8792 333.532 67.8792C335.008 67.8792 336.205 66.6823 336.205 65.2059V44.3875H331.046V59.5593L314.19 44.7867C313.535 44.2129 312.694 43.8965 311.823 43.8965C309.84 43.8964 308.233 45.504 308.233 47.487V67.3881H313.359V51.7292Z" fill="black"/>
<path d="M201.402 51.0386L190.922 67.3881H184.13L197.581 46.4585L197.581 46.4573C198.451 45.1208 199.653 43.9931 201.523 43.9931C203.302 43.9931 204.501 45.022 205.395 46.4513L218.506 67.3881H211.7L207.91 61.5138L207.907 61.5089C207.386 60.7417 206.599 59.479 205.923 58.3926L205.906 58.3659C205.84 58.2583 205.774 58.1525 205.709 58.0492L205.708 58.0479L201.402 51.0386Z" fill="black"/>
<path d="M155.802 61.0429V67.3881H150.058V56.11H168.477C169.592 56.11 170.623 55.8321 171.39 55.2954C172.168 54.751 172.672 53.9374 172.672 52.9303C172.672 51.8596 172.261 51.0053 171.483 50.4367C170.729 49.8853 169.685 49.643 168.477 49.643H150.058L150.058 44.3875H167.924C170.351 44.3875 173.045 44.8125 175.115 46.0354C177.151 47.2384 178.61 49.2245 178.61 52.4642C178.61 56.002 176.621 58.8538 173.309 59.5846L172.591 59.7432L174.069 61.3334C174.48 61.7488 174.965 62.2734 175.589 62.9689L175.661 63.0461L175.659 63.0475C175.799 63.2036 175.945 63.3681 176.099 63.5417L179.398 67.3881H171.954L166.131 61.0429H155.802Z" fill="black"/>
<path d="M223.825 58.1114H229.601V49.643H239.555C243.416 49.643 246.479 52.2897 246.479 55.9774C246.479 57.8351 245.747 59.4048 244.497 60.5046C243.252 61.5997 241.522 62.2043 239.555 62.2043H223.825V67.3881H239.555C246.851 67.3881 252.157 62.3091 252.157 55.6548C252.157 49.0579 246.94 44.3875 239.555 44.3875H223.825V58.1114Z" fill="black"/>
<path d="M286.398 51.0386L275.918 67.3881H269.126L282.577 46.4585L282.578 46.4569C283.448 45.1205 284.649 43.9931 286.519 43.9931C288.298 43.9931 289.497 45.022 290.391 46.4513L303.501 67.3881H296.482L292.91 61.5191L292.903 61.5089C292.382 60.7419 291.596 59.4796 290.92 58.3935L290.919 58.3923L290.704 58.0479L286.398 51.0386Z" fill="black"/>
<path d="M352.696 49.643H341.334V44.3875H369.889V49.643H358.44V67.3881H352.696V49.643Z" fill="black"/>
<path d="M263.939 67.3881V44.3875H258.195V67.3881H263.939Z" fill="black"/>
<path d="M354.205 83.0085H366.821V86.3391H358.38V89.3275H365.999V92.6581H358.38V95.6694H367.049V99H354.205V83.0085Z" fill="black"/>
<path d="M350.085 99H345.363L343.036 94.5744H339.933V99H335.759V83.0085H342.944C347.188 83.0085 349.606 85.0616 349.606 88.6203C349.606 91.0385 348.602 92.8178 346.754 93.776L350.085 99ZM339.933 86.3391V91.2438H342.967C344.655 91.2438 345.636 90.3769 345.636 88.7572C345.636 87.1832 344.655 86.3391 342.967 86.3391H339.933Z" fill="black"/>
<path d="M318.426 83.0085H331.041V86.3391H322.6V89.3275H330.22V92.6581H322.6V95.6694H331.269V99H318.426V83.0085Z" fill="black"/>
<path d="M298.575 83.0085H302.75V89.5328H309.206V83.0085H313.38V99H309.206V92.8635H302.75V99H298.575V83.0085Z" fill="black"/>
<path d="M278.863 83.0085C283.927 83.0085 287.372 86.2478 287.372 90.9928C287.372 95.7606 283.882 99 278.703 99H271.974V83.0085H278.863ZM278.977 95.6238C281.395 95.6238 283.106 93.776 283.106 91.0385C283.106 88.2782 281.304 86.4075 278.772 86.4075H276.148V95.6238H278.977Z" fill="black"/>
<path d="M254.641 83.0085H267.256V86.3391H258.815V89.3275H266.435V92.6581H258.815V95.6694H267.484V99H254.641V83.0085Z" fill="black"/>
<path d="M237.297 83.0085H251.008V86.4532H246.217V99H242.042V86.4532H237.297V83.0085Z" fill="black"/>
<path d="M228.271 83.0085C232.354 83.0085 234.704 85.0616 234.704 88.6203C234.704 92.3844 232.354 94.5744 228.271 94.5744H225.419V99H221.245V83.0085H228.271ZM228.065 91.2438C229.754 91.2438 230.734 90.3769 230.734 88.7572C230.734 87.1832 229.754 86.3391 228.065 86.3391H225.419V91.2438H228.065Z" fill="black"/>
<path d="M203.911 83.0085H216.527V86.3391H208.086V89.3275H215.706V92.6581H208.086V95.6694H216.755V99H203.911V83.0085Z" fill="black"/>
<path d="M197.743 88.5291C196.694 87.2516 195.166 86.4303 193.774 86.4303C191.31 86.4303 189.44 88.3694 189.44 90.9244C189.44 93.5022 191.31 95.4641 193.774 95.4641C195.097 95.4641 196.626 94.7341 197.743 93.5935L200.184 96.2169C198.473 98.0191 195.918 99.1825 193.546 99.1825C188.732 99.1825 185.151 95.6694 185.151 90.97C185.151 86.3619 188.824 82.8944 193.706 82.8944C196.078 82.8944 198.565 83.9438 200.162 85.6319L197.743 88.5291Z" fill="black"/>
<path d="M180.277 88.5291C179.227 87.2516 177.699 86.4303 176.307 86.4303C173.844 86.4303 171.973 88.3694 171.973 90.9244C171.973 93.5022 173.844 95.4641 176.307 95.4641C177.63 95.4641 179.159 94.7341 180.277 93.5935L182.718 96.2169C181.007 98.0191 178.452 99.1825 176.079 99.1825C171.266 99.1825 167.684 95.6694 167.684 90.97C167.684 86.3619 171.357 82.8944 176.239 82.8944C178.611 82.8944 181.098 83.9438 182.695 85.6319L180.277 88.5291Z" fill="black"/>
<path d="M161.299 99L160.204 96.1713H153.292L152.174 99H147.886L154.752 83.0085H159.041L165.748 99H161.299ZM154.547 92.9775H158.973L156.783 87.2744L154.547 92.9775Z" fill="black"/>
</svg>
