<svg width="536" height="119" viewBox="0 0 536 119" fill="none" xmlns="http://www.w3.org/2000/svg">
<path d="M416.49 52.2626L446.633 78.5284C448.021 79.7387 449.801 80.4054 451.644 80.4054C454.216 80.4054 456.302 78.3197 456.302 75.7469V39.4688H447.313V65.9073L417.939 40.1646C416.798 39.1646 415.332 38.6133 413.815 38.6133C410.359 38.6132 407.558 41.4145 407.558 44.8702V79.5497H416.49V52.2626Z" fill="white"/>
<path d="M221.395 51.0591L203.134 79.5497H191.297L214.736 43.0779L214.738 43.0758C216.254 40.7467 218.348 38.7817 221.606 38.7817C224.706 38.7817 226.795 40.5746 228.354 43.0653L251.2 79.5497H239.34L232.737 69.313L232.731 69.3045C231.822 67.9676 230.452 65.7672 229.274 63.8742L229.245 63.8276C229.128 63.6401 229.013 63.4558 228.901 63.2757L228.9 63.2734L221.395 51.0591Z" fill="white"/>
<path d="M141.933 68.4925V79.5497H131.924V59.8965H164.02C165.963 59.8965 167.76 59.4122 169.096 58.4769C170.452 57.5283 171.33 56.1105 171.33 54.3555C171.33 52.4897 170.615 51.0011 169.259 50.0101C167.945 49.0494 166.125 48.6271 164.02 48.6271H131.924L131.924 39.4688H163.057C167.286 39.4688 171.98 40.2096 175.587 42.3406C179.136 44.437 181.678 47.8978 181.678 53.5434C181.678 59.7084 178.213 64.6777 172.441 65.9514L171.189 66.2277L173.765 68.9988C174.482 69.7226 175.327 70.6367 176.413 71.8488L176.538 71.9834L176.536 71.9857C176.779 72.2577 177.035 72.5444 177.303 72.8469L183.051 79.5497H170.08L159.933 68.4925H141.933Z" fill="white"/>
<path d="M260.47 48.6271V63.3841H270.535V48.6271H287.88C294.608 48.6271 299.946 53.2392 299.946 59.6654C299.946 62.9026 298.671 65.6381 296.492 67.5545C294.322 69.4628 291.308 70.5164 287.88 70.5164H270.535H260.47V79.5497H287.88C300.595 79.5497 309.841 70.699 309.841 59.1032C309.841 47.6075 300.75 39.4688 287.88 39.4688H260.47V48.6271Z" fill="white"/>
<path d="M369.508 51.0591L351.247 79.5497H339.411L362.85 43.0779L362.852 43.075C364.368 40.7463 366.462 38.7817 369.719 38.7817C372.819 38.7817 374.909 40.5746 376.467 43.0653L399.313 79.5497H387.081L380.857 69.3223L380.845 69.3045C379.936 67.968 378.567 65.7684 377.388 63.8757L377.387 63.8737L377.013 63.2734L369.508 51.0591Z" fill="white"/>
<path d="M485.04 48.6271H465.24V39.4688H515V48.6271H495.048V79.5497H485.04V48.6271Z" fill="white"/>
<path d="M330.371 79.5497V39.4688H320.363V79.5497H330.371Z" fill="white"/>
<path d="M85.9013 92.5217C79.1468 97.481 70.8091 100.41 61.7871 100.41C39.261 100.41 21 82.1492 21 59.6231C21 54.218 22.0514 49.0585 23.9607 44.338L26.0993 46.4766C24.5896 50.5735 23.7652 55.002 23.7652 59.6231C23.7652 80.622 40.7882 97.645 61.7871 97.645C70.0444 97.645 77.6869 95.0128 83.9213 90.5418L85.9013 92.5217Z" fill="white"/>
<path d="M90.5205 88.5711C97.9647 81.1817 102.574 70.9407 102.574 59.6231C102.574 37.097 84.3132 18.8359 61.7871 18.8359C47.2549 18.8359 34.4978 26.436 27.2736 37.8783L29.2822 39.8869C35.9533 28.9233 48.0151 21.6012 61.7871 21.6012C82.7861 21.6012 99.809 38.6242 99.809 59.6231C99.809 70.1771 95.5089 79.7268 88.5651 86.6157L90.5205 88.5711Z" fill="white"/>
<path d="M68.8809 97.8246C69.229 98.1683 69.6891 98.3513 70.1783 98.3513H92.5914C93.0062 98.3513 93.2139 97.8498 92.9205 97.5565L51.5184 56.1661C51.1691 55.817 50.6956 55.6209 50.2018 55.6209H38.3514C34.1554 55.6209 32.0264 60.661 34.9674 63.6538C44.1703 73.0186 59.3449 88.4109 68.8809 97.8246Z" fill="white"/>
<path d="M57.8503 34.5312H22.1927C21.7735 34.5312 21.5665 35.0435 21.8651 35.3377C25.3628 38.7848 28.4413 42.3264 31.9435 45.826C32.3387 46.2209 32.7339 46.6158 33.2082 46.9318C35.2633 48.4325 37.5555 49.2223 40.1639 49.3013H64.1735C64.6477 49.3013 65.122 49.3013 65.5962 49.3803C68.7579 50.0121 71.3663 53.1715 70.6549 56.9627C70.1198 59.8654 67.5887 62.0293 64.6345 62.1686C64.4172 62.1788 64.3179 62.442 64.4718 62.5959L74.8418 72.9629C75.2525 73.3735 75.8361 73.594 76.4045 73.4748C76.4117 73.4733 76.4185 73.4719 76.425 73.4704C77.6896 73.2335 78.9543 72.6806 80.14 72.0487C82.037 71.0219 83.7759 69.6792 85.1196 67.9415C87.5699 64.7032 88.9927 61.1489 89.2298 57.1207C89.3879 55.541 89.3088 53.9613 89.0717 52.4606C88.7555 50.486 88.2023 48.5904 87.4118 46.7738C85.6729 42.9036 82.9855 39.8232 79.2705 37.6116C76.2669 35.874 73.0262 35.0052 69.6274 34.6892C68.6789 34.6102 67.8094 34.6102 66.8609 34.6102C63.8574 34.5312 60.8538 34.5312 57.8503 34.5312Z" fill="white"/>
</svg>
