<svg width="145" height="136" viewBox="0 0 145 136" fill="none" xmlns="http://www.w3.org/2000/svg">
<path d="M88.6944 114.885C89.2163 115.401 89.906 115.675 90.6393 115.675H124.24C124.861 115.675 125.173 114.923 124.733 114.483L62.6656 52.4336C62.1421 51.9102 61.4321 51.6162 60.6918 51.6162H42.9265C36.6362 51.6162 33.4445 59.1721 37.8534 63.6587C51.6499 77.6978 74.3987 100.773 88.6944 114.885Z" fill="white"/>
<path d="M72.158 20H18.7025C18.0741 20 17.7638 20.7679 18.2113 21.209C23.4549 26.3766 28.07 31.6859 33.3203 36.9323C33.9127 37.5244 34.5052 38.1164 35.2162 38.59C38.297 40.8398 41.7334 42.0239 45.6437 42.1423H81.6373C82.3483 42.1423 83.0593 42.1423 83.7702 42.2607C88.51 43.208 92.4203 47.9443 91.3539 53.6279C90.5517 57.9793 86.7573 61.2233 82.3285 61.4321C82.0026 61.4474 81.8539 61.842 82.0846 62.0727L97.6305 77.6142C98.2463 78.2298 99.1212 78.5604 99.9733 78.3817C99.9841 78.3795 99.9943 78.3773 100.004 78.3751C101.9 78.0199 103.796 77.191 105.573 76.2438C108.417 74.7045 111.024 72.6915 113.038 70.0866C116.712 65.2318 118.845 59.9035 119.2 53.8647C119.437 51.4965 119.319 49.1284 118.963 46.8786C118.489 43.9184 117.66 41.0766 116.475 38.3532C113.868 32.5512 109.839 27.9333 104.27 24.6179C99.767 22.0129 94.9088 20.7104 89.8135 20.2368C88.3915 20.1184 87.0881 20.1184 85.6661 20.1184C81.1634 20 76.6607 20 72.158 20Z" fill="white"/>
</svg>
