<svg width="164" height="164" viewBox="0 0 164 164" fill="none" xmlns="http://www.w3.org/2000/svg">
<path d="M118.15 131.32C108.024 138.755 95.525 143.146 81.9999 143.146C48.2302 143.146 20.8545 115.771 20.8545 82.0009C20.8545 73.898 22.4306 66.1633 25.293 59.0865L28.4991 62.2925C26.2358 68.4344 24.9999 75.0733 24.9999 82.0009C24.9999 113.481 50.5197 139.001 81.9999 139.001C94.3787 139.001 105.836 135.055 115.182 128.352L118.15 131.32Z" fill="white"/>
<path d="M125.075 125.398C136.235 114.32 143.145 98.9676 143.145 82.0009C143.145 48.2312 115.77 20.8555 81.9999 20.8555C60.2142 20.8555 41.0895 32.249 30.2594 49.4025L33.2707 52.4137C43.2716 35.9777 61.3539 25.0009 81.9999 25.0009C113.48 25.0009 139 50.5207 139 82.0009C139 97.8229 132.553 112.139 122.144 122.467L125.075 125.398Z" fill="white"/>
<path d="M92.6348 139.268C93.1567 139.783 93.8464 140.058 94.5798 140.058H128.18C128.802 140.058 129.113 139.306 128.673 138.866L66.606 76.8164C66.0825 76.293 65.3725 75.999 64.6323 75.999H46.867C40.5766 75.999 37.3849 83.5549 41.7939 88.0415C55.5903 102.081 78.3391 125.156 92.6348 139.268Z" fill="white"/>
<path d="M76.0985 44.3828H22.6429C22.0145 44.3828 21.7042 45.1507 22.1518 45.5918C27.3954 50.7594 32.0104 56.0687 37.2607 61.3151C37.8532 61.9072 38.4456 62.4992 39.1566 62.9729C42.2375 65.2226 45.6738 66.4067 49.5842 66.5251H85.5778C86.2887 66.5251 86.9997 66.5251 87.7107 66.6435C92.4504 67.5908 96.3608 72.3271 95.2943 78.0107C94.4922 82.3621 90.6977 85.6061 86.269 85.8149C85.9431 85.8303 85.7943 86.2248 86.025 86.4555L101.571 101.997C102.187 102.613 103.062 102.943 103.914 102.765C103.924 102.762 103.935 102.76 103.944 102.758C105.84 102.403 107.736 101.574 109.514 100.627C112.358 99.0873 114.964 97.0744 116.979 94.4694C120.652 89.6147 122.785 84.2863 123.141 78.2475C123.378 75.8793 123.259 73.5112 122.904 71.2614C122.43 68.3012 121.6 65.4594 120.415 62.736C117.808 56.9341 113.78 52.3161 108.21 49.0007C103.707 46.3957 98.8492 45.0933 93.7539 44.6196C92.332 44.5012 91.0285 44.5012 89.6066 44.5012C85.1039 44.3828 80.6012 44.3828 76.0985 44.3828Z" fill="white"/>
</svg>
