<svg width="174" height="217" viewBox="0 0 174 217" fill="none" xmlns="http://www.w3.org/2000/svg">
<path d="M123.15 134.317C113.024 141.751 100.525 146.142 87 146.142C53.2303 146.142 25.8545 118.767 25.8545 84.997C25.8545 76.8941 27.4306 69.1594 30.293 62.0826L33.4991 65.2886C31.2358 71.4305 29.9999 78.0694 29.9999 84.997C29.9999 116.477 55.5197 141.997 87 141.997C99.3787 141.997 110.836 138.051 120.182 131.348L123.15 134.317Z" fill="black"/>
<path d="M130.075 128.394C141.235 117.316 148.145 101.964 148.145 84.997C148.145 51.2273 120.77 23.8516 87 23.8516C65.2142 23.8516 46.0895 35.2451 35.2594 52.3986L38.2707 55.4098C48.2716 38.9738 66.3539 27.997 87 27.997C118.48 27.997 144 53.5168 144 84.997C144 100.819 137.554 115.135 127.144 125.463L130.075 128.394Z" fill="black"/>
<path d="M97.6348 142.268C98.1567 142.783 98.8464 143.058 99.5797 143.058H133.18C133.802 143.058 134.113 142.306 133.673 141.866L71.606 79.8164C71.0825 79.293 70.3725 78.999 69.6323 78.999H51.867C45.5766 78.999 42.3849 86.5549 46.7939 91.0415C60.5903 105.081 83.3391 128.156 97.6348 142.268Z" fill="black"/>
<path d="M81.0985 47.3828H27.6429C27.0145 47.3828 26.7042 48.1507 27.1518 48.5918C32.3954 53.7594 37.0104 59.0687 42.2607 64.3152C42.8532 64.9072 43.4456 65.4992 44.1566 65.9729C47.2375 68.2226 50.6738 69.4067 54.5841 69.5251H90.5777C91.2887 69.5251 91.9997 69.5251 92.7106 69.6435C97.4504 70.5908 101.361 75.3271 100.294 81.0107C99.4922 85.3621 95.6977 88.6061 91.269 88.8149C90.9431 88.8303 90.7943 89.2248 91.025 89.4555L106.571 104.997C107.187 105.613 108.062 105.943 108.914 105.765C108.924 105.762 108.935 105.76 108.944 105.758C110.84 105.403 112.736 104.574 114.514 103.627C117.358 102.087 119.964 100.074 121.979 97.4694C125.652 92.6147 127.785 87.2863 128.141 81.2475C128.378 78.8793 128.259 76.5112 127.904 74.2614C127.43 71.3012 126.6 68.4594 125.415 65.736C122.808 59.9341 118.78 55.3161 113.21 52.0007C108.707 49.3957 103.849 48.0933 98.7539 47.6196C97.332 47.5012 96.0285 47.5012 94.6066 47.5012C90.1039 47.3828 85.6012 47.3828 81.0985 47.3828Z" fill="black"/>
<path d="M85.0831 175.914C85.3633 176.195 85.5207 176.575 85.5207 176.971V186.588C85.5207 186.984 85.3633 187.364 85.0831 187.645L76.8038 195.924H66.9179L78.9492 183.893C80.1163 182.726 80.1163 180.833 78.9492 179.666L67.1149 167.832H77.0008L85.0831 175.914Z" fill="black"/>
<path d="M89.8458 187.572C89.5656 187.292 89.4081 186.912 89.4081 186.515V177.043C89.4081 176.647 89.5656 176.267 89.8458 175.987L98.0006 167.832H107.886L96.0523 179.666C94.8852 180.833 94.8852 182.726 96.0523 183.893L108.083 195.924H98.1976L89.8458 187.572Z" fill="black"/>
<path d="M33.6378 195.827V188.104H46L53.2 195.827H62.3569L58.3424 191.145C58.1549 190.934 57.9767 190.734 57.8067 190.544L57.8084 190.542L57.7211 190.448C56.9624 189.601 56.3719 188.963 55.871 188.457L54.0722 186.522L54.9468 186.329C58.978 185.439 61.3982 181.968 61.3982 177.662C61.3982 173.719 59.6226 171.302 57.1442 169.838C54.6248 168.349 51.346 167.832 48.3925 167.832H26.6475L26.6475 174.229H49.0648C50.5354 174.229 51.8063 174.524 52.7244 175.195C53.6714 175.887 54.1706 176.927 54.1706 178.23C54.1706 179.455 53.5574 180.446 52.6106 181.108C51.6769 181.762 50.422 182.1 49.0648 182.1H26.6475V195.827H33.6378Z" fill="black"/>
<path d="M114.043 167.832H133.187C142.176 167.832 148.526 173.517 148.526 181.546C148.526 189.645 142.068 195.827 133.187 195.827H114.043V189.513H121.072V189.517H133.187C135.582 189.517 137.687 188.781 139.202 187.449C140.724 186.11 141.615 184.199 141.615 181.938C141.615 177.45 137.886 174.229 133.187 174.229H121.072V185.031H114.043V167.832Z" fill="black"/>
</svg>
