<svg width="536" height="125" viewBox="0 0 536 125" fill="none" xmlns="http://www.w3.org/2000/svg">
<circle cx="62.0002" cy="63.0002" r="45.0901" fill="white"/>
<path d="M67.3002 89.2028C67.5588 89.4581 67.9006 89.594 68.2639 89.594H84.9127C85.2209 89.594 85.3751 89.2215 85.1572 89.0036L54.4031 58.2582C54.1437 57.9989 53.7919 57.8532 53.4251 57.8532H44.6225C41.5056 57.8532 39.9241 61.5971 42.1088 63.8202C48.9449 70.7765 60.2168 82.2101 67.3002 89.2028Z" fill="black"/>
<path d="M59.1065 42.1875H32.6195C32.3082 42.1875 32.1544 42.568 32.3762 42.7865C34.9744 45.3471 37.2611 47.9778 39.8626 50.5774C40.1562 50.8708 40.4497 51.1641 40.802 51.3988C42.3286 52.5135 44.0313 53.1002 45.9688 53.1589H63.8035C64.1558 53.1589 64.5081 53.1589 64.8603 53.2176C67.2089 53.6869 69.1464 56.0338 68.618 58.85C68.2205 61.0061 66.3404 62.6135 64.146 62.7169C63.9845 62.7245 63.9108 62.92 64.0251 63.0343L71.7281 70.7351C72.0332 71.0401 72.4667 71.2039 72.8889 71.1154C72.8942 71.1143 72.8993 71.1132 72.9041 71.1121C73.8435 70.9361 74.7829 70.5254 75.6637 70.056C77.0728 69.2933 78.3645 68.2959 79.3626 67.0052C81.1827 64.5997 82.2396 61.9595 82.4157 58.9673C82.5331 57.7939 82.4744 56.6205 82.2983 55.5057C82.0634 54.039 81.6524 52.6309 81.0653 51.2814C79.7736 48.4066 77.7773 46.1184 75.0178 44.4757C72.7867 43.1849 70.3794 42.5395 67.8547 42.3048C67.1502 42.2462 66.5043 42.2462 65.7998 42.2462C63.5687 42.1875 61.3376 42.1875 59.1065 42.1875Z" fill="black"/>
<path d="M418.49 55.2626L448.632 81.5284C450.021 82.7387 451.801 83.4054 453.643 83.4054C456.216 83.4054 458.302 81.3197 458.302 78.7469V42.4688H449.312V68.9073L419.938 43.1646C418.797 42.1646 417.332 41.6133 415.814 41.6133C412.359 41.6132 409.557 44.4145 409.557 47.8702V82.5497H418.49V55.2626Z" fill="white"/>
<path d="M223.394 54.0591L205.133 82.5497H193.297L216.736 46.0779L216.737 46.0758C218.253 43.7467 220.347 41.7817 223.605 41.7817C226.705 41.7817 228.795 43.5746 230.354 46.0653L253.199 82.5497H241.339L234.736 72.313L234.731 72.3045C233.822 70.9676 232.452 68.7672 231.273 66.8742L231.244 66.8276C231.128 66.6401 231.013 66.4558 230.901 66.2757L230.899 66.2734L223.394 54.0591Z" fill="white"/>
<path d="M143.932 71.4925V82.5497H133.924V62.8965H166.019C167.963 62.8965 169.759 62.4122 171.096 61.4769C172.452 60.5283 173.329 59.1105 173.329 57.3555C173.329 55.4897 172.615 54.0011 171.259 53.0101C169.945 52.0494 168.125 51.6271 166.019 51.6271H133.924L133.924 42.4688H165.057C169.286 42.4688 173.98 43.2096 177.587 45.3406C181.135 47.437 183.678 50.8978 183.678 56.5434C183.678 62.7084 180.212 67.6777 174.441 68.9514L173.189 69.2277L175.764 71.9988C176.481 72.7226 177.327 73.6367 178.413 74.8488L178.538 74.9834L178.535 74.9857C178.779 75.2577 179.034 75.5444 179.302 75.8469L185.05 82.5497H172.08L161.932 71.4925H143.932Z" fill="white"/>
<path d="M262.47 51.6271V66.3841H272.534V51.6271H289.88C296.608 51.6271 301.946 56.2392 301.946 62.6654C301.946 65.9026 300.67 68.6381 298.492 70.5545C296.322 72.4628 293.308 73.5164 289.88 73.5164H272.534H262.47V82.5497H289.88C302.595 82.5497 311.841 73.699 311.841 62.1032C311.841 50.6075 302.749 42.4688 289.88 42.4688H262.47V51.6271Z" fill="white"/>
<path d="M371.508 54.0591L353.246 82.5497H341.41L364.849 46.0779L364.851 46.075C366.367 43.7463 368.461 41.7817 371.719 41.7817C374.819 41.7817 376.908 43.5746 378.467 46.0653L401.313 82.5497H389.081L382.856 72.3223L382.844 72.3045C381.936 70.968 380.566 68.7684 379.388 66.8757L379.386 66.8737L379.013 66.2734L371.508 54.0591Z" fill="white"/>
<path d="M487.039 51.6271H467.239V42.4688H517V51.6271H497.048V82.5497H487.039V51.6271Z" fill="white"/>
<path d="M332.371 82.5497V42.4688H322.362V82.5497H332.371Z" fill="white"/>
</svg>
